<?xml version="1.0" encoding="utf-8" standalone="no"?>
<!DOCTYPE svg PUBLIC "-//W3C//DTD SVG 1.1//EN"
  "http://www.w3.org/Graphics/SVG/1.1/DTD/svg11.dtd">
<!-- Created with matplotlib (http://matplotlib.org/) -->
<svg height="345.6pt" version="1.1" viewBox="0 0 460.8 345.6" width="460.8pt" xmlns="http://www.w3.org/2000/svg" xmlns:xlink="http://www.w3.org/1999/xlink">
 <defs>
  <style type="text/css">
*{stroke-linecap:butt;stroke-linejoin:round;}
  </style>
 </defs>
 <g id="figure_1">
  <g id="patch_1">
   <path d="M 0 345.6 
L 460.8 345.6 
L 460.8 0 
L 0 0 
z
" style="fill:#ffffff;"/>
  </g>
  <g id="axes_1">
   <g id="patch_2">
    <path d="M 34.56 276.48 
L 456.192 276.48 
L 456.192 9.3312 
L 34.56 9.3312 
z
" style="fill:#ffffff;"/>
   </g>
   <g id="patch_3">
    <path clip-path="url(#pe208544774)" d="M 36.722215 276.48 
L 45.371077 276.48 
L 45.371077 235.53989 
L 36.722215 235.53989 
z
" style="fill:#7fc97f;"/>
   </g>
   <g id="patch_4">
    <path clip-path="url(#pe208544774)" d="M 47.533292 276.48 
L 56.182154 276.48 
L 56.182154 276.48 
L 47.533292 276.48 
z
" style="fill:#7fc97f;"/>
   </g>
   <g id="patch_5">
    <path clip-path="url(#pe208544774)" d="M 58.344369 276.48 
L 66.993231 276.48 
L 66.993231 276.48 
L 58.344369 276.48 
z
" style="fill:#7fc97f;"/>
   </g>
   <g id="patch_6">
    <path clip-path="url(#pe208544774)" d="M 69.155446 276.48 
L 77.804308 276.48 
L 77.804308 276.48 
L 69.155446 276.48 
z
" style="fill:#7fc97f;"/>
   </g>
   <g id="patch_7">
    <path clip-path="url(#pe208544774)" d="M 79.966523 276.48 
L 88.615385 276.48 
L 88.615385 273.564038 
L 79.966523 273.564038 
z
" style="fill:#7fc97f;"/>
   </g>
   <g id="patch_8">
    <path clip-path="url(#pe208544774)" d="M 90.7776 276.48 
L 99.426462 276.48 
L 99.426462 276.48 
L 90.7776 276.48 
z
" style="fill:#7fc97f;"/>
   </g>
   <g id="patch_9">
    <path clip-path="url(#pe208544774)" d="M 101.588677 276.48 
L 110.237538 276.48 
L 110.237538 276.48 
L 101.588677 276.48 
z
" style="fill:#7fc97f;"/>
   </g>
   <g id="patch_10">
    <path clip-path="url(#pe208544774)" d="M 112.399754 276.48 
L 121.048615 276.48 
L 121.048615 213.88401 
L 112.399754 213.88401 
z
" style="fill:#7fc97f;"/>
   </g>
   <g id="patch_11">
    <path clip-path="url(#pe208544774)" d="M 123.210831 276.48 
L 131.859692 276.48 
L 131.859692 276.48 
L 123.210831 276.48 
z
" style="fill:#7fc97f;"/>
   </g>
   <g id="patch_12">
    <path clip-path="url(#pe208544774)" d="M 134.021908 276.48 
L 142.670769 276.48 
L 142.670769 276.48 
L 134.021908 276.48 
z
" style="fill:#7fc97f;"/>
   </g>
   <g id="patch_13">
    <path clip-path="url(#pe208544774)" d="M 144.832985 276.48 
L 153.481846 276.48 
L 153.481846 276.48 
L 144.832985 276.48 
z
" style="fill:#7fc97f;"/>
   </g>
   <g id="patch_14">
    <path clip-path="url(#pe208544774)" d="M 155.644062 276.48 
L 164.292923 276.48 
L 164.292923 276.48 
L 155.644062 276.48 
z
" style="fill:#7fc97f;"/>
   </g>
   <g id="patch_15">
    <path clip-path="url(#pe208544774)" d="M 166.455138 276.48 
L 175.104 276.48 
L 175.104 276.48 
L 166.455138 276.48 
z
" style="fill:#7fc97f;"/>
   </g>
   <g id="patch_16">
    <path clip-path="url(#pe208544774)" d="M 177.266215 276.48 
L 185.915077 276.48 
L 185.915077 276.48 
L 177.266215 276.48 
z
" style="fill:#7fc97f;"/>
   </g>
   <g id="patch_17">
    <path clip-path="url(#pe208544774)" d="M 188.077292 276.48 
L 196.726154 276.48 
L 196.726154 127.649285 
L 188.077292 127.649285 
z
" style="fill:#7fc97f;"/>
   </g>
   <g id="patch_18">
    <path clip-path="url(#pe208544774)" d="M 198.888369 276.48 
L 207.537231 276.48 
L 207.537231 243.160271 
L 198.888369 243.160271 
z
" style="fill:#7fc97f;"/>
   </g>
   <g id="patch_19">
    <path clip-path="url(#pe208544774)" d="M 209.699446 276.48 
L 218.348308 276.48 
L 218.348308 37.487732 
L 209.699446 37.487732 
z
" style="fill:#7fc97f;"/>
   </g>
   <g id="patch_20">
    <path clip-path="url(#pe208544774)" d="M 220.510523 276.48 
L 229.159385 276.48 
L 229.159385 276.363362 
L 220.510523 276.363362 
z
" style="fill:#7fc97f;"/>
   </g>
   <g id="patch_21">
    <path clip-path="url(#pe208544774)" d="M 231.3216 276.48 
L 239.970462 276.48 
L 239.970462 276.48 
L 231.3216 276.48 
z
" style="fill:#7fc97f;"/>
   </g>
   <g id="patch_22">
    <path clip-path="url(#pe208544774)" d="M 242.132677 276.48 
L 250.781538 276.48 
L 250.781538 276.168964 
L 242.132677 276.168964 
z
" style="fill:#7fc97f;"/>
   </g>
   <g id="patch_23">
    <path clip-path="url(#pe208544774)" d="M 252.943754 276.48 
L 261.592615 276.48 
L 261.592615 276.48 
L 252.943754 276.48 
z
" style="fill:#7fc97f;"/>
   </g>
   <g id="patch_24">
    <path clip-path="url(#pe208544774)" d="M 263.754831 276.48 
L 272.403692 276.48 
L 272.403692 274.885941 
L 263.754831 274.885941 
z
" style="fill:#7fc97f;"/>
   </g>
   <g id="patch_25">
    <path clip-path="url(#pe208544774)" d="M 274.565908 276.48 
L 283.214769 276.48 
L 283.214769 276.48 
L 274.565908 276.48 
z
" style="fill:#7fc97f;"/>
   </g>
   <g id="patch_26">
    <path clip-path="url(#pe208544774)" d="M 285.376985 276.48 
L 294.025846 276.48 
L 294.025846 276.48 
L 285.376985 276.48 
z
" style="fill:#7fc97f;"/>
   </g>
   <g id="patch_27">
    <path clip-path="url(#pe208544774)" d="M 296.188062 276.48 
L 304.836923 276.48 
L 304.836923 276.48 
L 296.188062 276.48 
z
" style="fill:#7fc97f;"/>
   </g>
   <g id="patch_28">
    <path clip-path="url(#pe208544774)" d="M 306.999138 276.48 
L 315.648 276.48 
L 315.648 275.430254 
L 306.999138 275.430254 
z
" style="fill:#7fc97f;"/>
   </g>
   <g id="patch_29">
    <path clip-path="url(#pe208544774)" d="M 317.810215 276.48 
L 326.459077 276.48 
L 326.459077 276.48 
L 317.810215 276.48 
z
" style="fill:#7fc97f;"/>
   </g>
   <g id="patch_30">
    <path clip-path="url(#pe208544774)" d="M 328.621292 276.48 
L 337.270154 276.48 
L 337.270154 276.48 
L 328.621292 276.48 
z
" style="fill:#7fc97f;"/>
   </g>
   <g id="patch_31">
    <path clip-path="url(#pe208544774)" d="M 339.432369 276.48 
L 348.081231 276.48 
L 348.081231 276.48 
L 339.432369 276.48 
z
" style="fill:#7fc97f;"/>
   </g>
   <g id="patch_32">
    <path clip-path="url(#pe208544774)" d="M 350.243446 276.48 
L 358.892308 276.48 
L 358.892308 276.48 
L 350.243446 276.48 
z
" style="fill:#7fc97f;"/>
   </g>
   <g id="patch_33">
    <path clip-path="url(#pe208544774)" d="M 361.054523 276.48 
L 369.703385 276.48 
L 369.703385 276.48 
L 361.054523 276.48 
z
" style="fill:#7fc97f;"/>
   </g>
   <g id="patch_34">
    <path clip-path="url(#pe208544774)" d="M 371.8656 276.48 
L 380.514462 276.48 
L 380.514462 276.48 
L 371.8656 276.48 
z
" style="fill:#7fc97f;"/>
   </g>
   <g id="patch_35">
    <path clip-path="url(#pe208544774)" d="M 382.676677 276.48 
L 391.325538 276.48 
L 391.325538 276.48 
L 382.676677 276.48 
z
" style="fill:#7fc97f;"/>
   </g>
   <g id="patch_36">
    <path clip-path="url(#pe208544774)" d="M 393.487754 276.48 
L 402.136615 276.48 
L 402.136615 276.48 
L 393.487754 276.48 
z
" style="fill:#7fc97f;"/>
   </g>
   <g id="patch_37">
    <path clip-path="url(#pe208544774)" d="M 404.298831 276.48 
L 412.947692 276.48 
L 412.947692 274.108351 
L 404.298831 274.108351 
z
" style="fill:#7fc97f;"/>
   </g>
   <g id="patch_38">
    <path clip-path="url(#pe208544774)" d="M 415.109908 276.48 
L 423.758769 276.48 
L 423.758769 276.48 
L 415.109908 276.48 
z
" style="fill:#7fc97f;"/>
   </g>
   <g id="patch_39">
    <path clip-path="url(#pe208544774)" d="M 425.920985 276.48 
L 434.569846 276.48 
L 434.569846 276.402241 
L 425.920985 276.402241 
z
" style="fill:#7fc97f;"/>
   </g>
   <g id="patch_40">
    <path clip-path="url(#pe208544774)" d="M 436.732062 276.48 
L 445.380923 276.48 
L 445.380923 276.48 
L 436.732062 276.48 
z
" style="fill:#7fc97f;"/>
   </g>
   <g id="patch_41">
    <path clip-path="url(#pe208544774)" d="M 36.722215 235.53989 
L 45.371077 235.53989 
L 45.371077 234.490143 
L 36.722215 234.490143 
z
" style="fill:#beaed4;"/>
   </g>
   <g id="patch_42">
    <path clip-path="url(#pe208544774)" d="M 47.533292 276.48 
L 56.182154 276.48 
L 56.182154 276.48 
L 47.533292 276.48 
z
" style="fill:#beaed4;"/>
   </g>
   <g id="patch_43">
    <path clip-path="url(#pe208544774)" d="M 58.344369 276.48 
L 66.993231 276.48 
L 66.993231 206.769062 
L 58.344369 206.769062 
z
" style="fill:#beaed4;"/>
   </g>
   <g id="patch_44">
    <path clip-path="url(#pe208544774)" d="M 69.155446 276.48 
L 77.804308 276.48 
L 77.804308 268.665221 
L 69.155446 268.665221 
z
" style="fill:#beaed4;"/>
   </g>
   <g id="patch_45">
    <path clip-path="url(#pe208544774)" d="M 79.966523 273.564038 
L 88.615385 273.564038 
L 88.615385 273.564038 
L 79.966523 273.564038 
z
" style="fill:#beaed4;"/>
   </g>
   <g id="patch_46">
    <path clip-path="url(#pe208544774)" d="M 90.7776 276.48 
L 99.426462 276.48 
L 99.426462 276.48 
L 90.7776 276.48 
z
" style="fill:#beaed4;"/>
   </g>
   <g id="patch_47">
    <path clip-path="url(#pe208544774)" d="M 101.588677 276.48 
L 110.237538 276.48 
L 110.237538 274.885941 
L 101.588677 274.885941 
z
" style="fill:#beaed4;"/>
   </g>
   <g id="patch_48">
    <path clip-path="url(#pe208544774)" d="M 112.399754 213.88401 
L 121.048615 213.88401 
L 121.048615 213.88401 
L 112.399754 213.88401 
z
" style="fill:#beaed4;"/>
   </g>
   <g id="patch_49">
    <path clip-path="url(#pe208544774)" d="M 123.210831 276.48 
L 131.859692 276.48 
L 131.859692 276.48 
L 123.210831 276.48 
z
" style="fill:#beaed4;"/>
   </g>
   <g id="patch_50">
    <path clip-path="url(#pe208544774)" d="M 134.021908 276.48 
L 142.670769 276.48 
L 142.670769 252.258073 
L 134.021908 252.258073 
z
" style="fill:#beaed4;"/>
   </g>
   <g id="patch_51">
    <path clip-path="url(#pe208544774)" d="M 144.832985 276.48 
L 153.481846 276.48 
L 153.481846 219.910332 
L 144.832985 219.910332 
z
" style="fill:#beaed4;"/>
   </g>
   <g id="patch_52">
    <path clip-path="url(#pe208544774)" d="M 155.644062 276.48 
L 164.292923 276.48 
L 164.292923 273.447399 
L 155.644062 273.447399 
z
" style="fill:#beaed4;"/>
   </g>
   <g id="patch_53">
    <path clip-path="url(#pe208544774)" d="M 166.455138 276.48 
L 175.104 276.48 
L 175.104 269.55945 
L 166.455138 269.55945 
z
" style="fill:#beaed4;"/>
   </g>
   <g id="patch_54">
    <path clip-path="url(#pe208544774)" d="M 177.266215 276.48 
L 185.915077 276.48 
L 185.915077 238.533611 
L 177.266215 238.533611 
z
" style="fill:#beaed4;"/>
   </g>
   <g id="patch_55">
    <path clip-path="url(#pe208544774)" d="M 188.077292 127.649285 
L 196.726154 127.649285 
L 196.726154 127.649285 
L 188.077292 127.649285 
z
" style="fill:#beaed4;"/>
   </g>
   <g id="patch_56">
    <path clip-path="url(#pe208544774)" d="M 198.888369 243.160271 
L 207.537231 243.160271 
L 207.537231 243.160271 
L 198.888369 243.160271 
z
" style="fill:#beaed4;"/>
   </g>
   <g id="patch_57">
    <path clip-path="url(#pe208544774)" d="M 209.699446 37.487732 
L 218.348308 37.487732 
L 218.348308 37.487732 
L 209.699446 37.487732 
z
" style="fill:#beaed4;"/>
   </g>
   <g id="patch_58">
    <path clip-path="url(#pe208544774)" d="M 220.510523 276.363362 
L 229.159385 276.363362 
L 229.159385 276.363362 
L 220.510523 276.363362 
z
" style="fill:#beaed4;"/>
   </g>
   <g id="patch_59">
    <path clip-path="url(#pe208544774)" d="M 231.3216 276.48 
L 239.970462 276.48 
L 239.970462 274.458266 
L 231.3216 274.458266 
z
" style="fill:#beaed4;"/>
   </g>
   <g id="patch_60">
    <path clip-path="url(#pe208544774)" d="M 242.132677 276.168964 
L 250.781538 276.168964 
L 250.781538 276.168964 
L 242.132677 276.168964 
z
" style="fill:#beaed4;"/>
   </g>
   <g id="patch_61">
    <path clip-path="url(#pe208544774)" d="M 252.943754 276.48 
L 261.592615 276.48 
L 261.592615 276.48 
L 252.943754 276.48 
z
" style="fill:#beaed4;"/>
   </g>
   <g id="patch_62">
    <path clip-path="url(#pe208544774)" d="M 263.754831 274.885941 
L 272.403692 274.885941 
L 272.403692 274.885941 
L 263.754831 274.885941 
z
" style="fill:#beaed4;"/>
   </g>
   <g id="patch_63">
    <path clip-path="url(#pe208544774)" d="M 274.565908 276.48 
L 283.214769 276.48 
L 283.214769 276.48 
L 274.565908 276.48 
z
" style="fill:#beaed4;"/>
   </g>
   <g id="patch_64">
    <path clip-path="url(#pe208544774)" d="M 285.376985 276.48 
L 294.025846 276.48 
L 294.025846 276.48 
L 285.376985 276.48 
z
" style="fill:#beaed4;"/>
   </g>
   <g id="patch_65">
    <path clip-path="url(#pe208544774)" d="M 296.188062 276.48 
L 304.836923 276.48 
L 304.836923 228.658219 
L 296.188062 228.658219 
z
" style="fill:#beaed4;"/>
   </g>
   <g id="patch_66">
    <path clip-path="url(#pe208544774)" d="M 306.999138 275.430254 
L 315.648 275.430254 
L 315.648 119.173555 
L 306.999138 119.173555 
z
" style="fill:#beaed4;"/>
   </g>
   <g id="patch_67">
    <path clip-path="url(#pe208544774)" d="M 317.810215 276.48 
L 326.459077 276.48 
L 326.459077 276.48 
L 317.810215 276.48 
z
" style="fill:#beaed4;"/>
   </g>
   <g id="patch_68">
    <path clip-path="url(#pe208544774)" d="M 328.621292 276.48 
L 337.270154 276.48 
L 337.270154 239.738875 
L 328.621292 239.738875 
z
" style="fill:#beaed4;"/>
   </g>
   <g id="patch_69">
    <path clip-path="url(#pe208544774)" d="M 339.432369 276.48 
L 348.081231 276.48 
L 348.081231 269.248414 
L 339.432369 269.248414 
z
" style="fill:#beaed4;"/>
   </g>
   <g id="patch_70">
    <path clip-path="url(#pe208544774)" d="M 350.243446 276.48 
L 358.892308 276.48 
L 358.892308 276.48 
L 350.243446 276.48 
z
" style="fill:#beaed4;"/>
   </g>
   <g id="patch_71">
    <path clip-path="url(#pe208544774)" d="M 361.054523 276.48 
L 369.703385 276.48 
L 369.703385 238.728008 
L 361.054523 238.728008 
z
" style="fill:#beaed4;"/>
   </g>
   <g id="patch_72">
    <path clip-path="url(#pe208544774)" d="M 371.8656 276.48 
L 380.514462 276.48 
L 380.514462 275.896808 
L 371.8656 275.896808 
z
" style="fill:#beaed4;"/>
   </g>
   <g id="patch_73">
    <path clip-path="url(#pe208544774)" d="M 382.676677 276.48 
L 391.325538 276.48 
L 391.325538 276.48 
L 382.676677 276.48 
z
" style="fill:#beaed4;"/>
   </g>
   <g id="patch_74">
    <path clip-path="url(#pe208544774)" d="M 393.487754 276.48 
L 402.136615 276.48 
L 402.136615 276.48 
L 393.487754 276.48 
z
" style="fill:#beaed4;"/>
   </g>
   <g id="patch_75">
    <path clip-path="url(#pe208544774)" d="M 404.298831 274.108351 
L 412.947692 274.108351 
L 412.947692 274.108351 
L 404.298831 274.108351 
z
" style="fill:#beaed4;"/>
   </g>
   <g id="patch_76">
    <path clip-path="url(#pe208544774)" d="M 415.109908 276.48 
L 423.758769 276.48 
L 423.758769 276.48 
L 415.109908 276.48 
z
" style="fill:#beaed4;"/>
   </g>
   <g id="patch_77">
    <path clip-path="url(#pe208544774)" d="M 425.920985 276.402241 
L 434.569846 276.402241 
L 434.569846 276.168964 
L 425.920985 276.168964 
z
" style="fill:#beaed4;"/>
   </g>
   <g id="patch_78">
    <path clip-path="url(#pe208544774)" d="M 436.732062 276.48 
L 445.380923 276.48 
L 445.380923 276.48 
L 436.732062 276.48 
z
" style="fill:#beaed4;"/>
   </g>
   <g id="patch_79">
    <path clip-path="url(#pe208544774)" d="M 36.722215 234.490143 
L 45.371077 234.490143 
L 45.371077 234.490143 
L 36.722215 234.490143 
z
" style="fill:#f0027f;"/>
   </g>
   <g id="patch_80">
    <path clip-path="url(#pe208544774)" d="M 47.533292 276.48 
L 56.182154 276.48 
L 56.182154 276.48 
L 47.533292 276.48 
z
" style="fill:#f0027f;"/>
   </g>
   <g id="patch_81">
    <path clip-path="url(#pe208544774)" d="M 58.344369 206.769062 
L 66.993231 206.769062 
L 66.993231 206.769062 
L 58.344369 206.769062 
z
" style="fill:#f0027f;"/>
   </g>
   <g id="patch_82">
    <path clip-path="url(#pe208544774)" d="M 69.155446 268.665221 
L 77.804308 268.665221 
L 77.804308 268.665221 
L 69.155446 268.665221 
z
" style="fill:#f0027f;"/>
   </g>
   <g id="patch_83">
    <path clip-path="url(#pe208544774)" d="M 79.966523 273.564038 
L 88.615385 273.564038 
L 88.615385 273.564038 
L 79.966523 273.564038 
z
" style="fill:#f0027f;"/>
   </g>
   <g id="patch_84">
    <path clip-path="url(#pe208544774)" d="M 90.7776 276.48 
L 99.426462 276.48 
L 99.426462 276.48 
L 90.7776 276.48 
z
" style="fill:#f0027f;"/>
   </g>
   <g id="patch_85">
    <path clip-path="url(#pe208544774)" d="M 101.588677 274.885941 
L 110.237538 274.885941 
L 110.237538 274.885941 
L 101.588677 274.885941 
z
" style="fill:#f0027f;"/>
   </g>
   <g id="patch_86">
    <path clip-path="url(#pe208544774)" d="M 112.399754 213.88401 
L 121.048615 213.88401 
L 121.048615 213.88401 
L 112.399754 213.88401 
z
" style="fill:#f0027f;"/>
   </g>
   <g id="patch_87">
    <path clip-path="url(#pe208544774)" d="M 123.210831 276.48 
L 131.859692 276.48 
L 131.859692 276.48 
L 123.210831 276.48 
z
" style="fill:#f0027f;"/>
   </g>
   <g id="patch_88">
    <path clip-path="url(#pe208544774)" d="M 134.021908 252.258073 
L 142.670769 252.258073 
L 142.670769 252.258073 
L 134.021908 252.258073 
z
" style="fill:#f0027f;"/>
   </g>
   <g id="patch_89">
    <path clip-path="url(#pe208544774)" d="M 144.832985 219.910332 
L 153.481846 219.910332 
L 153.481846 219.910332 
L 144.832985 219.910332 
z
" style="fill:#f0027f;"/>
   </g>
   <g id="patch_90">
    <path clip-path="url(#pe208544774)" d="M 155.644062 273.447399 
L 164.292923 273.447399 
L 164.292923 273.447399 
L 155.644062 273.447399 
z
" style="fill:#f0027f;"/>
   </g>
   <g id="patch_91">
    <path clip-path="url(#pe208544774)" d="M 166.455138 269.55945 
L 175.104 269.55945 
L 175.104 269.55945 
L 166.455138 269.55945 
z
" style="fill:#f0027f;"/>
   </g>
   <g id="patch_92">
    <path clip-path="url(#pe208544774)" d="M 177.266215 238.533611 
L 185.915077 238.533611 
L 185.915077 238.533611 
L 177.266215 238.533611 
z
" style="fill:#f0027f;"/>
   </g>
   <g id="patch_93">
    <path clip-path="url(#pe208544774)" d="M 188.077292 127.649285 
L 196.726154 127.649285 
L 196.726154 127.649285 
L 188.077292 127.649285 
z
" style="fill:#f0027f;"/>
   </g>
   <g id="patch_94">
    <path clip-path="url(#pe208544774)" d="M 198.888369 243.160271 
L 207.537231 243.160271 
L 207.537231 243.160271 
L 198.888369 243.160271 
z
" style="fill:#f0027f;"/>
   </g>
   <g id="patch_95">
    <path clip-path="url(#pe208544774)" d="M 209.699446 37.487732 
L 218.348308 37.487732 
L 218.348308 37.487732 
L 209.699446 37.487732 
z
" style="fill:#f0027f;"/>
   </g>
   <g id="patch_96">
    <path clip-path="url(#pe208544774)" d="M 220.510523 276.363362 
L 229.159385 276.363362 
L 229.159385 276.324482 
L 220.510523 276.324482 
z
" style="fill:#f0027f;"/>
   </g>
   <g id="patch_97">
    <path clip-path="url(#pe208544774)" d="M 231.3216 274.458266 
L 239.970462 274.458266 
L 239.970462 274.458266 
L 231.3216 274.458266 
z
" style="fill:#f0027f;"/>
   </g>
   <g id="patch_98">
    <path clip-path="url(#pe208544774)" d="M 242.132677 276.168964 
L 250.781538 276.168964 
L 250.781538 276.168964 
L 242.132677 276.168964 
z
" style="fill:#f0027f;"/>
   </g>
   <g id="patch_99">
    <path clip-path="url(#pe208544774)" d="M 252.943754 276.48 
L 261.592615 276.48 
L 261.592615 276.48 
L 252.943754 276.48 
z
" style="fill:#f0027f;"/>
   </g>
   <g id="patch_100">
    <path clip-path="url(#pe208544774)" d="M 263.754831 274.885941 
L 272.403692 274.885941 
L 272.403692 274.885941 
L 263.754831 274.885941 
z
" style="fill:#f0027f;"/>
   </g>
   <g id="patch_101">
    <path clip-path="url(#pe208544774)" d="M 274.565908 276.48 
L 283.214769 276.48 
L 283.214769 276.48 
L 274.565908 276.48 
z
" style="fill:#f0027f;"/>
   </g>
   <g id="patch_102">
    <path clip-path="url(#pe208544774)" d="M 285.376985 276.48 
L 294.025846 276.48 
L 294.025846 276.48 
L 285.376985 276.48 
z
" style="fill:#f0027f;"/>
   </g>
   <g id="patch_103">
    <path clip-path="url(#pe208544774)" d="M 296.188062 228.658219 
L 304.836923 228.658219 
L 304.836923 228.658219 
L 296.188062 228.658219 
z
" style="fill:#f0027f;"/>
   </g>
   <g id="patch_104">
    <path clip-path="url(#pe208544774)" d="M 306.999138 119.173555 
L 315.648 119.173555 
L 315.648 119.173555 
L 306.999138 119.173555 
z
" style="fill:#f0027f;"/>
   </g>
   <g id="patch_105">
    <path clip-path="url(#pe208544774)" d="M 317.810215 276.48 
L 326.459077 276.48 
L 326.459077 276.48 
L 317.810215 276.48 
z
" style="fill:#f0027f;"/>
   </g>
   <g id="patch_106">
    <path clip-path="url(#pe208544774)" d="M 328.621292 239.738875 
L 337.270154 239.738875 
L 337.270154 239.738875 
L 328.621292 239.738875 
z
" style="fill:#f0027f;"/>
   </g>
   <g id="patch_107">
    <path clip-path="url(#pe208544774)" d="M 339.432369 269.248414 
L 348.081231 269.248414 
L 348.081231 269.248414 
L 339.432369 269.248414 
z
" style="fill:#f0027f;"/>
   </g>
   <g id="patch_108">
    <path clip-path="url(#pe208544774)" d="M 350.243446 276.48 
L 358.892308 276.48 
L 358.892308 276.48 
L 350.243446 276.48 
z
" style="fill:#f0027f;"/>
   </g>
   <g id="patch_109">
    <path clip-path="url(#pe208544774)" d="M 361.054523 238.728008 
L 369.703385 238.728008 
L 369.703385 238.728008 
L 361.054523 238.728008 
z
" style="fill:#f0027f;"/>
   </g>
   <g id="patch_110">
    <path clip-path="url(#pe208544774)" d="M 371.8656 275.896808 
L 380.514462 275.896808 
L 380.514462 275.896808 
L 371.8656 275.896808 
z
" style="fill:#f0027f;"/>
   </g>
   <g id="patch_111">
    <path clip-path="url(#pe208544774)" d="M 382.676677 276.48 
L 391.325538 276.48 
L 391.325538 276.48 
L 382.676677 276.48 
z
" style="fill:#f0027f;"/>
   </g>
   <g id="patch_112">
    <path clip-path="url(#pe208544774)" d="M 393.487754 276.48 
L 402.136615 276.48 
L 402.136615 276.48 
L 393.487754 276.48 
z
" style="fill:#f0027f;"/>
   </g>
   <g id="patch_113">
    <path clip-path="url(#pe208544774)" d="M 404.298831 274.108351 
L 412.947692 274.108351 
L 412.947692 274.108351 
L 404.298831 274.108351 
z
" style="fill:#f0027f;"/>
   </g>
   <g id="patch_114">
    <path clip-path="url(#pe208544774)" d="M 415.109908 276.48 
L 423.758769 276.48 
L 423.758769 276.48 
L 415.109908 276.48 
z
" style="fill:#f0027f;"/>
   </g>
   <g id="patch_115">
    <path clip-path="url(#pe208544774)" d="M 425.920985 276.168964 
L 434.569846 276.168964 
L 434.569846 276.168964 
L 425.920985 276.168964 
z
" style="fill:#f0027f;"/>
   </g>
   <g id="patch_116">
    <path clip-path="url(#pe208544774)" d="M 436.732062 276.48 
L 445.380923 276.48 
L 445.380923 276.48 
L 436.732062 276.48 
z
" style="fill:#f0027f;"/>
   </g>
   <g id="patch_117">
    <path clip-path="url(#pe208544774)" d="M 36.722215 234.490143 
L 45.371077 234.490143 
L 45.371077 154.748295 
L 36.722215 154.748295 
z
" style="fill:#386cb0;"/>
   </g>
   <g id="patch_118">
    <path clip-path="url(#pe208544774)" d="M 47.533292 276.48 
L 56.182154 276.48 
L 56.182154 269.481691 
L 47.533292 269.481691 
z
" style="fill:#386cb0;"/>
   </g>
   <g id="patch_119">
    <path clip-path="url(#pe208544774)" d="M 58.344369 206.769062 
L 66.993231 206.769062 
L 66.993231 199.809632 
L 58.344369 199.809632 
z
" style="fill:#386cb0;"/>
   </g>
   <g id="patch_120">
    <path clip-path="url(#pe208544774)" d="M 69.155446 268.665221 
L 77.804308 268.665221 
L 77.804308 268.665221 
L 69.155446 268.665221 
z
" style="fill:#386cb0;"/>
   </g>
   <g id="patch_121">
    <path clip-path="url(#pe208544774)" d="M 79.966523 273.564038 
L 88.615385 273.564038 
L 88.615385 249.575388 
L 79.966523 249.575388 
z
" style="fill:#386cb0;"/>
   </g>
   <g id="patch_122">
    <path clip-path="url(#pe208544774)" d="M 90.7776 276.48 
L 99.426462 276.48 
L 99.426462 276.402241 
L 90.7776 276.402241 
z
" style="fill:#386cb0;"/>
   </g>
   <g id="patch_123">
    <path clip-path="url(#pe208544774)" d="M 101.588677 274.885941 
L 110.237538 274.885941 
L 110.237538 274.885941 
L 101.588677 274.885941 
z
" style="fill:#386cb0;"/>
   </g>
   <g id="patch_124">
    <path clip-path="url(#pe208544774)" d="M 112.399754 213.88401 
L 121.048615 213.88401 
L 121.048615 184.296713 
L 112.399754 184.296713 
z
" style="fill:#386cb0;"/>
   </g>
   <g id="patch_125">
    <path clip-path="url(#pe208544774)" d="M 123.210831 276.48 
L 131.859692 276.48 
L 131.859692 276.441121 
L 123.210831 276.441121 
z
" style="fill:#386cb0;"/>
   </g>
   <g id="patch_126">
    <path clip-path="url(#pe208544774)" d="M 134.021908 252.258073 
L 142.670769 252.258073 
L 142.670769 252.258073 
L 134.021908 252.258073 
z
" style="fill:#386cb0;"/>
   </g>
   <g id="patch_127">
    <path clip-path="url(#pe208544774)" d="M 144.832985 219.910332 
L 153.481846 219.910332 
L 153.481846 219.910332 
L 144.832985 219.910332 
z
" style="fill:#386cb0;"/>
   </g>
   <g id="patch_128">
    <path clip-path="url(#pe208544774)" d="M 155.644062 273.447399 
L 164.292923 273.447399 
L 164.292923 273.447399 
L 155.644062 273.447399 
z
" style="fill:#386cb0;"/>
   </g>
   <g id="patch_129">
    <path clip-path="url(#pe208544774)" d="M 166.455138 269.55945 
L 175.104 269.55945 
L 175.104 269.55945 
L 166.455138 269.55945 
z
" style="fill:#386cb0;"/>
   </g>
   <g id="patch_130">
    <path clip-path="url(#pe208544774)" d="M 177.266215 238.533611 
L 185.915077 238.533611 
L 185.915077 238.533611 
L 177.266215 238.533611 
z
" style="fill:#386cb0;"/>
   </g>
   <g id="patch_131">
    <path clip-path="url(#pe208544774)" d="M 188.077292 127.649285 
L 196.726154 127.649285 
L 196.726154 127.649285 
L 188.077292 127.649285 
z
" style="fill:#386cb0;"/>
   </g>
   <g id="patch_132">
    <path clip-path="url(#pe208544774)" d="M 198.888369 243.160271 
L 207.537231 243.160271 
L 207.537231 241.449573 
L 198.888369 241.449573 
z
" style="fill:#386cb0;"/>
   </g>
   <g id="patch_133">
    <path clip-path="url(#pe208544774)" d="M 209.699446 37.487732 
L 218.348308 37.487732 
L 218.348308 22.052571 
L 209.699446 22.052571 
z
" style="fill:#386cb0;"/>
   </g>
   <g id="patch_134">
    <path clip-path="url(#pe208544774)" d="M 220.510523 276.324482 
L 229.159385 276.324482 
L 229.159385 242.810356 
L 220.510523 242.810356 
z
" style="fill:#386cb0;"/>
   </g>
   <g id="patch_135">
    <path clip-path="url(#pe208544774)" d="M 231.3216 274.458266 
L 239.970462 274.458266 
L 239.970462 274.458266 
L 231.3216 274.458266 
z
" style="fill:#386cb0;"/>
   </g>
   <g id="patch_136">
    <path clip-path="url(#pe208544774)" d="M 242.132677 276.168964 
L 250.781538 276.168964 
L 250.781538 246.776064 
L 242.132677 246.776064 
z
" style="fill:#386cb0;"/>
   </g>
   <g id="patch_137">
    <path clip-path="url(#pe208544774)" d="M 252.943754 276.48 
L 261.592615 276.48 
L 261.592615 275.780169 
L 252.943754 275.780169 
z
" style="fill:#386cb0;"/>
   </g>
   <g id="patch_138">
    <path clip-path="url(#pe208544774)" d="M 263.754831 274.885941 
L 272.403692 274.885941 
L 272.403692 257.973359 
L 263.754831 257.973359 
z
" style="fill:#386cb0;"/>
   </g>
   <g id="patch_139">
    <path clip-path="url(#pe208544774)" d="M 274.565908 276.48 
L 283.214769 276.48 
L 283.214769 276.402241 
L 274.565908 276.402241 
z
" style="fill:#386cb0;"/>
   </g>
   <g id="patch_140">
    <path clip-path="url(#pe208544774)" d="M 285.376985 276.48 
L 294.025846 276.48 
L 294.025846 273.447399 
L 285.376985 273.447399 
z
" style="fill:#386cb0;"/>
   </g>
   <g id="patch_141">
    <path clip-path="url(#pe208544774)" d="M 296.188062 228.658219 
L 304.836923 228.658219 
L 304.836923 228.658219 
L 296.188062 228.658219 
z
" style="fill:#386cb0;"/>
   </g>
   <g id="patch_142">
    <path clip-path="url(#pe208544774)" d="M 306.999138 119.173555 
L 315.648 119.173555 
L 315.648 107.431947 
L 306.999138 107.431947 
z
" style="fill:#386cb0;"/>
   </g>
   <g id="patch_143">
    <path clip-path="url(#pe208544774)" d="M 317.810215 276.48 
L 326.459077 276.48 
L 326.459077 218.160754 
L 317.810215 218.160754 
z
" style="fill:#386cb0;"/>
   </g>
   <g id="patch_144">
    <path clip-path="url(#pe208544774)" d="M 328.621292 239.738875 
L 337.270154 239.738875 
L 337.270154 239.738875 
L 328.621292 239.738875 
z
" style="fill:#386cb0;"/>
   </g>
   <g id="patch_145">
    <path clip-path="url(#pe208544774)" d="M 339.432369 269.248414 
L 348.081231 269.248414 
L 348.081231 269.248414 
L 339.432369 269.248414 
z
" style="fill:#386cb0;"/>
   </g>
   <g id="patch_146">
    <path clip-path="url(#pe208544774)" d="M 350.243446 276.48 
L 358.892308 276.48 
L 358.892308 273.875074 
L 350.243446 273.875074 
z
" style="fill:#386cb0;"/>
   </g>
   <g id="patch_147">
    <path clip-path="url(#pe208544774)" d="M 361.054523 238.728008 
L 369.703385 238.728008 
L 369.703385 237.950418 
L 361.054523 237.950418 
z
" style="fill:#386cb0;"/>
   </g>
   <g id="patch_148">
    <path clip-path="url(#pe208544774)" d="M 371.8656 275.896808 
L 380.514462 275.896808 
L 380.514462 275.896808 
L 371.8656 275.896808 
z
" style="fill:#386cb0;"/>
   </g>
   <g id="patch_149">
    <path clip-path="url(#pe208544774)" d="M 382.676677 276.48 
L 391.325538 276.48 
L 391.325538 274.847061 
L 382.676677 274.847061 
z
" style="fill:#386cb0;"/>
   </g>
   <g id="patch_150">
    <path clip-path="url(#pe208544774)" d="M 393.487754 276.48 
L 402.136615 276.48 
L 402.136615 273.991712 
L 393.487754 273.991712 
z
" style="fill:#386cb0;"/>
   </g>
   <g id="patch_151">
    <path clip-path="url(#pe208544774)" d="M 404.298831 274.108351 
L 412.947692 274.108351 
L 412.947692 247.437016 
L 404.298831 247.437016 
z
" style="fill:#386cb0;"/>
   </g>
   <g id="patch_152">
    <path clip-path="url(#pe208544774)" d="M 415.109908 276.48 
L 423.758769 276.48 
L 423.758769 275.313615 
L 415.109908 275.313615 
z
" style="fill:#386cb0;"/>
   </g>
   <g id="patch_153">
    <path clip-path="url(#pe208544774)" d="M 425.920985 276.168964 
L 434.569846 276.168964 
L 434.569846 272.047737 
L 425.920985 272.047737 
z
" style="fill:#386cb0;"/>
   </g>
   <g id="patch_154">
    <path clip-path="url(#pe208544774)" d="M 436.732062 276.48 
L 445.380923 276.48 
L 445.380923 276.052326 
L 436.732062 276.052326 
z
" style="fill:#386cb0;"/>
   </g>
   <g id="matplotlib.axis_1">
    <g id="xtick_1">
     <g id="line2d_1">
      <defs>
       <path d="M 0 0 
L 0 3.5 
" id="m6a18a5d52d" style="stroke:#000000;stroke-width:0.8;"/>
      </defs>
      <g>
       <use style="stroke:#000000;stroke-width:0.8;" x="41.046646" xlink:href="#m6a18a5d52d" y="276.48"/>
      </g>
     </g>
     <g id="text_1">
      <!-- LYS_529 -->
      <defs>
       <path d="M 9.8125 72.90625 
L 19.671875 72.90625 
L 19.671875 8.296875 
L 55.171875 8.296875 
L 55.171875 0 
L 9.8125 0 
z
" id="DejaVuSans-4c"/>
       <path d="M -0.203125 72.90625 
L 10.40625 72.90625 
L 30.609375 42.921875 
L 50.6875 72.90625 
L 61.28125 72.90625 
L 35.5 34.71875 
L 35.5 0 
L 25.59375 0 
L 25.59375 34.71875 
z
" id="DejaVuSans-59"/>
       <path d="M 53.515625 70.515625 
L 53.515625 60.890625 
Q 47.90625 63.578125 42.921875 64.890625 
Q 37.9375 66.21875 33.296875 66.21875 
Q 25.25 66.21875 20.875 63.09375 
Q 16.5 59.96875 16.5 54.203125 
Q 16.5 49.359375 19.40625 46.890625 
Q 22.3125 44.4375 30.421875 42.921875 
L 36.375 41.703125 
Q 47.40625 39.59375 52.65625 34.296875 
Q 57.90625 29 57.90625 20.125 
Q 57.90625 9.515625 50.796875 4.046875 
Q 43.703125 -1.421875 29.984375 -1.421875 
Q 24.8125 -1.421875 18.96875 -0.25 
Q 13.140625 0.921875 6.890625 3.21875 
L 6.890625 13.375 
Q 12.890625 10.015625 18.65625 8.296875 
Q 24.421875 6.59375 29.984375 6.59375 
Q 38.421875 6.59375 43.015625 9.90625 
Q 47.609375 13.234375 47.609375 19.390625 
Q 47.609375 24.75 44.3125 27.78125 
Q 41.015625 30.8125 33.5 32.328125 
L 27.484375 33.5 
Q 16.453125 35.6875 11.515625 40.375 
Q 6.59375 45.0625 6.59375 53.421875 
Q 6.59375 63.09375 13.40625 68.65625 
Q 20.21875 74.21875 32.171875 74.21875 
Q 37.3125 74.21875 42.625 73.28125 
Q 47.953125 72.359375 53.515625 70.515625 
z
" id="DejaVuSans-53"/>
       <path d="M 50.984375 -16.609375 
L 50.984375 -23.578125 
L -0.984375 -23.578125 
L -0.984375 -16.609375 
z
" id="DejaVuSans-5f"/>
       <path d="M 10.796875 72.90625 
L 49.515625 72.90625 
L 49.515625 64.59375 
L 19.828125 64.59375 
L 19.828125 46.734375 
Q 21.96875 47.46875 24.109375 47.828125 
Q 26.265625 48.1875 28.421875 48.1875 
Q 40.625 48.1875 47.75 41.5 
Q 54.890625 34.8125 54.890625 23.390625 
Q 54.890625 11.625 47.5625 5.09375 
Q 40.234375 -1.421875 26.90625 -1.421875 
Q 22.3125 -1.421875 17.546875 -0.640625 
Q 12.796875 0.140625 7.71875 1.703125 
L 7.71875 11.625 
Q 12.109375 9.234375 16.796875 8.0625 
Q 21.484375 6.890625 26.703125 6.890625 
Q 35.15625 6.890625 40.078125 11.328125 
Q 45.015625 15.765625 45.015625 23.390625 
Q 45.015625 31 40.078125 35.4375 
Q 35.15625 39.890625 26.703125 39.890625 
Q 22.75 39.890625 18.8125 39.015625 
Q 14.890625 38.140625 10.796875 36.28125 
z
" id="DejaVuSans-35"/>
       <path d="M 19.1875 8.296875 
L 53.609375 8.296875 
L 53.609375 0 
L 7.328125 0 
L 7.328125 8.296875 
Q 12.9375 14.109375 22.625 23.890625 
Q 32.328125 33.6875 34.8125 36.53125 
Q 39.546875 41.84375 41.421875 45.53125 
Q 43.3125 49.21875 43.3125 52.78125 
Q 43.3125 58.59375 39.234375 62.25 
Q 35.15625 65.921875 28.609375 65.921875 
Q 23.96875 65.921875 18.8125 64.3125 
Q 13.671875 62.703125 7.8125 59.421875 
L 7.8125 69.390625 
Q 13.765625 71.78125 18.9375 73 
Q 24.125 74.21875 28.421875 74.21875 
Q 39.75 74.21875 46.484375 68.546875 
Q 53.21875 62.890625 53.21875 53.421875 
Q 53.21875 48.921875 51.53125 44.890625 
Q 49.859375 40.875 45.40625 35.40625 
Q 44.1875 33.984375 37.640625 27.21875 
Q 31.109375 20.453125 19.1875 8.296875 
z
" id="DejaVuSans-32"/>
       <path d="M 10.984375 1.515625 
L 10.984375 10.5 
Q 14.703125 8.734375 18.5 7.8125 
Q 22.3125 6.890625 25.984375 6.890625 
Q 35.75 6.890625 40.890625 13.453125 
Q 46.046875 20.015625 46.78125 33.40625 
Q 43.953125 29.203125 39.59375 26.953125 
Q 35.25 24.703125 29.984375 24.703125 
Q 19.046875 24.703125 12.671875 31.3125 
Q 6.296875 37.9375 6.296875 49.421875 
Q 6.296875 60.640625 12.9375 67.421875 
Q 19.578125 74.21875 30.609375 74.21875 
Q 43.265625 74.21875 49.921875 64.515625 
Q 56.59375 54.828125 56.59375 36.375 
Q 56.59375 19.140625 48.40625 8.859375 
Q 40.234375 -1.421875 26.421875 -1.421875 
Q 22.703125 -1.421875 18.890625 -0.6875 
Q 15.09375 0.046875 10.984375 1.515625 
z
M 30.609375 32.421875 
Q 37.25 32.421875 41.125 36.953125 
Q 45.015625 41.5 45.015625 49.421875 
Q 45.015625 57.28125 41.125 61.84375 
Q 37.25 66.40625 30.609375 66.40625 
Q 23.96875 66.40625 20.09375 61.84375 
Q 16.21875 57.28125 16.21875 49.421875 
Q 16.21875 41.5 20.09375 36.953125 
Q 23.96875 32.421875 30.609375 32.421875 
z
" id="DejaVuSans-39"/>
      </defs>
      <g transform="translate(20.6233 312.646611)rotate(-45)scale(0.0833 -0.0833)">
       <use xlink:href="#DejaVuSans-4c"/>
       <use x="55.509766" xlink:href="#DejaVuSans-59"/>
       <use x="116.59375" xlink:href="#DejaVuSans-53"/>
       <use x="180.070312" xlink:href="#DejaVuSans-5f"/>
       <use x="230.070312" xlink:href="#DejaVuSans-35"/>
       <use x="293.693359" xlink:href="#DejaVuSans-32"/>
       <use x="357.316406" xlink:href="#DejaVuSans-39"/>
      </g>
     </g>
    </g>
    <g id="xtick_2">
     <g id="line2d_2">
      <g>
       <use style="stroke:#000000;stroke-width:0.8;" x="51.857723" xlink:href="#m6a18a5d52d" y="276.48"/>
      </g>
     </g>
     <g id="text_2">
      <!-- GLN_530 -->
      <defs>
       <path d="M 59.515625 10.40625 
L 59.515625 29.984375 
L 43.40625 29.984375 
L 43.40625 38.09375 
L 69.28125 38.09375 
L 69.28125 6.78125 
Q 63.578125 2.734375 56.6875 0.65625 
Q 49.8125 -1.421875 42 -1.421875 
Q 24.90625 -1.421875 15.25 8.5625 
Q 5.609375 18.5625 5.609375 36.375 
Q 5.609375 54.25 15.25 64.234375 
Q 24.90625 74.21875 42 74.21875 
Q 49.125 74.21875 55.546875 72.453125 
Q 61.96875 70.703125 67.390625 67.28125 
L 67.390625 56.78125 
Q 61.921875 61.421875 55.765625 63.765625 
Q 49.609375 66.109375 42.828125 66.109375 
Q 29.4375 66.109375 22.71875 58.640625 
Q 16.015625 51.171875 16.015625 36.375 
Q 16.015625 21.625 22.71875 14.15625 
Q 29.4375 6.6875 42.828125 6.6875 
Q 48.046875 6.6875 52.140625 7.59375 
Q 56.25 8.5 59.515625 10.40625 
z
" id="DejaVuSans-47"/>
       <path d="M 9.8125 72.90625 
L 23.09375 72.90625 
L 55.421875 11.921875 
L 55.421875 72.90625 
L 64.984375 72.90625 
L 64.984375 0 
L 51.703125 0 
L 19.390625 60.984375 
L 19.390625 0 
L 9.8125 0 
z
" id="DejaVuSans-4e"/>
       <path d="M 40.578125 39.3125 
Q 47.65625 37.796875 51.625 33 
Q 55.609375 28.21875 55.609375 21.1875 
Q 55.609375 10.40625 48.1875 4.484375 
Q 40.765625 -1.421875 27.09375 -1.421875 
Q 22.515625 -1.421875 17.65625 -0.515625 
Q 12.796875 0.390625 7.625 2.203125 
L 7.625 11.71875 
Q 11.71875 9.328125 16.59375 8.109375 
Q 21.484375 6.890625 26.8125 6.890625 
Q 36.078125 6.890625 40.9375 10.546875 
Q 45.796875 14.203125 45.796875 21.1875 
Q 45.796875 27.640625 41.28125 31.265625 
Q 36.765625 34.90625 28.71875 34.90625 
L 20.21875 34.90625 
L 20.21875 43.015625 
L 29.109375 43.015625 
Q 36.375 43.015625 40.234375 45.921875 
Q 44.09375 48.828125 44.09375 54.296875 
Q 44.09375 59.90625 40.109375 62.90625 
Q 36.140625 65.921875 28.71875 65.921875 
Q 24.65625 65.921875 20.015625 65.03125 
Q 15.375 64.15625 9.8125 62.3125 
L 9.8125 71.09375 
Q 15.4375 72.65625 20.34375 73.4375 
Q 25.25 74.21875 29.59375 74.21875 
Q 40.828125 74.21875 47.359375 69.109375 
Q 53.90625 64.015625 53.90625 55.328125 
Q 53.90625 49.265625 50.4375 45.09375 
Q 46.96875 40.921875 40.578125 39.3125 
z
" id="DejaVuSans-33"/>
       <path d="M 31.78125 66.40625 
Q 24.171875 66.40625 20.328125 58.90625 
Q 16.5 51.421875 16.5 36.375 
Q 16.5 21.390625 20.328125 13.890625 
Q 24.171875 6.390625 31.78125 6.390625 
Q 39.453125 6.390625 43.28125 13.890625 
Q 47.125 21.390625 47.125 36.375 
Q 47.125 51.421875 43.28125 58.90625 
Q 39.453125 66.40625 31.78125 66.40625 
z
M 31.78125 74.21875 
Q 44.046875 74.21875 50.515625 64.515625 
Q 56.984375 54.828125 56.984375 36.375 
Q 56.984375 17.96875 50.515625 8.265625 
Q 44.046875 -1.421875 31.78125 -1.421875 
Q 19.53125 -1.421875 13.0625 8.265625 
Q 6.59375 17.96875 6.59375 36.375 
Q 6.59375 54.828125 13.0625 64.515625 
Q 19.53125 74.21875 31.78125 74.21875 
z
" id="DejaVuSans-30"/>
      </defs>
      <g transform="translate(29.788802 314.292186)rotate(-45)scale(0.0833 -0.0833)">
       <use xlink:href="#DejaVuSans-47"/>
       <use x="77.490234" xlink:href="#DejaVuSans-4c"/>
       <use x="133.203125" xlink:href="#DejaVuSans-4e"/>
       <use x="208.007812" xlink:href="#DejaVuSans-5f"/>
       <use x="258.007812" xlink:href="#DejaVuSans-35"/>
       <use x="321.630859" xlink:href="#DejaVuSans-33"/>
       <use x="385.253906" xlink:href="#DejaVuSans-30"/>
      </g>
     </g>
    </g>
    <g id="xtick_3">
     <g id="line2d_3">
      <g>
       <use style="stroke:#000000;stroke-width:0.8;" x="62.6688" xlink:href="#m6a18a5d52d" y="276.48"/>
      </g>
     </g>
     <g id="text_3">
      <!-- ILE_531 -->
      <defs>
       <path d="M 9.8125 72.90625 
L 19.671875 72.90625 
L 19.671875 0 
L 9.8125 0 
z
" id="DejaVuSans-49"/>
       <path d="M 9.8125 72.90625 
L 55.90625 72.90625 
L 55.90625 64.59375 
L 19.671875 64.59375 
L 19.671875 43.015625 
L 54.390625 43.015625 
L 54.390625 34.71875 
L 19.671875 34.71875 
L 19.671875 8.296875 
L 56.78125 8.296875 
L 56.78125 0 
L 9.8125 0 
z
" id="DejaVuSans-45"/>
       <path d="M 12.40625 8.296875 
L 28.515625 8.296875 
L 28.515625 63.921875 
L 10.984375 60.40625 
L 10.984375 69.390625 
L 28.421875 72.90625 
L 38.28125 72.90625 
L 38.28125 8.296875 
L 54.390625 8.296875 
L 54.390625 0 
L 12.40625 0 
z
" id="DejaVuSans-31"/>
      </defs>
      <g transform="translate(44.11099 310.781075)rotate(-45)scale(0.0833 -0.0833)">
       <use xlink:href="#DejaVuSans-49"/>
       <use x="29.492188" xlink:href="#DejaVuSans-4c"/>
       <use x="85.205078" xlink:href="#DejaVuSans-45"/>
       <use x="148.388672" xlink:href="#DejaVuSans-5f"/>
       <use x="198.388672" xlink:href="#DejaVuSans-35"/>
       <use x="262.011719" xlink:href="#DejaVuSans-33"/>
       <use x="325.634766" xlink:href="#DejaVuSans-31"/>
      </g>
     </g>
    </g>
    <g id="xtick_4">
     <g id="line2d_4">
      <g>
       <use style="stroke:#000000;stroke-width:0.8;" x="73.479877" xlink:href="#m6a18a5d52d" y="276.48"/>
      </g>
     </g>
     <g id="text_4">
      <!-- VAL_539 -->
      <defs>
       <path d="M 28.609375 0 
L 0.78125 72.90625 
L 11.078125 72.90625 
L 34.1875 11.53125 
L 57.328125 72.90625 
L 67.578125 72.90625 
L 39.796875 0 
z
" id="DejaVuSans-56"/>
       <path d="M 34.1875 63.1875 
L 20.796875 26.90625 
L 47.609375 26.90625 
z
M 28.609375 72.90625 
L 39.796875 72.90625 
L 67.578125 0 
L 57.328125 0 
L 50.6875 18.703125 
L 17.828125 18.703125 
L 11.1875 0 
L 0.78125 0 
z
" id="DejaVuSans-41"/>
      </defs>
      <g transform="translate(52.328539 313.374603)rotate(-45)scale(0.0833 -0.0833)">
       <use xlink:href="#DejaVuSans-56"/>
       <use x="68.314453" xlink:href="#DejaVuSans-41"/>
       <use x="136.722656" xlink:href="#DejaVuSans-4c"/>
       <use x="192.435547" xlink:href="#DejaVuSans-5f"/>
       <use x="242.435547" xlink:href="#DejaVuSans-35"/>
       <use x="306.058594" xlink:href="#DejaVuSans-33"/>
       <use x="369.681641" xlink:href="#DejaVuSans-39"/>
      </g>
     </g>
    </g>
    <g id="xtick_5">
     <g id="line2d_5">
      <g>
       <use style="stroke:#000000;stroke-width:0.8;" x="84.290954" xlink:href="#m6a18a5d52d" y="276.48"/>
      </g>
     </g>
     <g id="text_5">
      <!-- GLN_541 -->
      <defs>
       <path d="M 37.796875 64.3125 
L 12.890625 25.390625 
L 37.796875 25.390625 
z
M 35.203125 72.90625 
L 47.609375 72.90625 
L 47.609375 25.390625 
L 58.015625 25.390625 
L 58.015625 17.1875 
L 47.609375 17.1875 
L 47.609375 0 
L 37.796875 0 
L 37.796875 17.1875 
L 4.890625 17.1875 
L 4.890625 26.703125 
z
" id="DejaVuSans-34"/>
      </defs>
      <g transform="translate(62.222033 314.292186)rotate(-45)scale(0.0833 -0.0833)">
       <use xlink:href="#DejaVuSans-47"/>
       <use x="77.490234" xlink:href="#DejaVuSans-4c"/>
       <use x="133.203125" xlink:href="#DejaVuSans-4e"/>
       <use x="208.007812" xlink:href="#DejaVuSans-5f"/>
       <use x="258.007812" xlink:href="#DejaVuSans-35"/>
       <use x="321.630859" xlink:href="#DejaVuSans-34"/>
       <use x="385.253906" xlink:href="#DejaVuSans-31"/>
      </g>
     </g>
    </g>
    <g id="xtick_6">
     <g id="line2d_6">
      <g>
       <use style="stroke:#000000;stroke-width:0.8;" x="95.102031" xlink:href="#m6a18a5d52d" y="276.48"/>
      </g>
     </g>
     <g id="text_6">
      <!-- TYR_550 -->
      <defs>
       <path d="M -0.296875 72.90625 
L 61.375 72.90625 
L 61.375 64.59375 
L 35.5 64.59375 
L 35.5 0 
L 25.59375 0 
L 25.59375 64.59375 
L -0.296875 64.59375 
z
" id="DejaVuSans-54"/>
       <path d="M 44.390625 34.1875 
Q 47.5625 33.109375 50.5625 29.59375 
Q 53.5625 26.078125 56.59375 19.921875 
L 66.609375 0 
L 56 0 
L 46.6875 18.703125 
Q 43.0625 26.03125 39.671875 28.421875 
Q 36.28125 30.8125 30.421875 30.8125 
L 19.671875 30.8125 
L 19.671875 0 
L 9.8125 0 
L 9.8125 72.90625 
L 32.078125 72.90625 
Q 44.578125 72.90625 50.734375 67.671875 
Q 56.890625 62.453125 56.890625 51.90625 
Q 56.890625 45.015625 53.6875 40.46875 
Q 50.484375 35.9375 44.390625 34.1875 
z
M 19.671875 64.796875 
L 19.671875 38.921875 
L 32.078125 38.921875 
Q 39.203125 38.921875 42.84375 42.21875 
Q 46.484375 45.515625 46.484375 51.90625 
Q 46.484375 58.296875 42.84375 61.546875 
Q 39.203125 64.796875 32.078125 64.796875 
z
" id="DejaVuSans-52"/>
      </defs>
      <g transform="translate(73.99763 313.327666)rotate(-45)scale(0.0833 -0.0833)">
       <use xlink:href="#DejaVuSans-54"/>
       <use x="61.083984" xlink:href="#DejaVuSans-59"/>
       <use x="122.167969" xlink:href="#DejaVuSans-52"/>
       <use x="191.650391" xlink:href="#DejaVuSans-5f"/>
       <use x="241.650391" xlink:href="#DejaVuSans-35"/>
       <use x="305.273438" xlink:href="#DejaVuSans-35"/>
       <use x="368.896484" xlink:href="#DejaVuSans-30"/>
      </g>
     </g>
    </g>
    <g id="xtick_7">
     <g id="line2d_7">
      <g>
       <use style="stroke:#000000;stroke-width:0.8;" x="105.913108" xlink:href="#m6a18a5d52d" y="276.48"/>
      </g>
     </g>
     <g id="text_7">
      <!-- ALA_551 -->
      <g transform="translate(84.694584 313.322143)rotate(-45)scale(0.0833 -0.0833)">
       <use xlink:href="#DejaVuSans-41"/>
       <use x="68.408203" xlink:href="#DejaVuSans-4c"/>
       <use x="124.152344" xlink:href="#DejaVuSans-41"/>
       <use x="192.560547" xlink:href="#DejaVuSans-5f"/>
       <use x="242.560547" xlink:href="#DejaVuSans-35"/>
       <use x="306.183594" xlink:href="#DejaVuSans-35"/>
       <use x="369.806641" xlink:href="#DejaVuSans-31"/>
      </g>
     </g>
    </g>
    <g id="xtick_8">
     <g id="line2d_8">
      <g>
       <use style="stroke:#000000;stroke-width:0.8;" x="116.724185" xlink:href="#m6a18a5d52d" y="276.48"/>
      </g>
     </g>
     <g id="text_8">
      <!-- LYS_553 -->
      <g transform="translate(96.300838 312.646611)rotate(-45)scale(0.0833 -0.0833)">
       <use xlink:href="#DejaVuSans-4c"/>
       <use x="55.509766" xlink:href="#DejaVuSans-59"/>
       <use x="116.59375" xlink:href="#DejaVuSans-53"/>
       <use x="180.070312" xlink:href="#DejaVuSans-5f"/>
       <use x="230.070312" xlink:href="#DejaVuSans-35"/>
       <use x="293.693359" xlink:href="#DejaVuSans-35"/>
       <use x="357.316406" xlink:href="#DejaVuSans-33"/>
      </g>
     </g>
    </g>
    <g id="xtick_9">
     <g id="line2d_9">
      <g>
       <use style="stroke:#000000;stroke-width:0.8;" x="127.535262" xlink:href="#m6a18a5d52d" y="276.48"/>
      </g>
     </g>
     <g id="text_9">
      <!-- GLU_571 -->
      <defs>
       <path d="M 8.6875 72.90625 
L 18.609375 72.90625 
L 18.609375 28.609375 
Q 18.609375 16.890625 22.84375 11.734375 
Q 27.09375 6.59375 36.625 6.59375 
Q 46.09375 6.59375 50.34375 11.734375 
Q 54.59375 16.890625 54.59375 28.609375 
L 54.59375 72.90625 
L 64.5 72.90625 
L 64.5 27.390625 
Q 64.5 13.140625 57.4375 5.859375 
Q 50.390625 -1.421875 36.625 -1.421875 
Q 22.796875 -1.421875 15.734375 5.859375 
Q 8.6875 13.140625 8.6875 27.390625 
z
" id="DejaVuSans-55"/>
       <path d="M 8.203125 72.90625 
L 55.078125 72.90625 
L 55.078125 68.703125 
L 28.609375 0 
L 18.3125 0 
L 43.21875 64.59375 
L 8.203125 64.59375 
z
" id="DejaVuSans-37"/>
      </defs>
      <g transform="translate(105.566658 314.191868)rotate(-45)scale(0.0833 -0.0833)">
       <use xlink:href="#DejaVuSans-47"/>
       <use x="77.490234" xlink:href="#DejaVuSans-4c"/>
       <use x="133.125" xlink:href="#DejaVuSans-55"/>
       <use x="206.318359" xlink:href="#DejaVuSans-5f"/>
       <use x="256.318359" xlink:href="#DejaVuSans-35"/>
       <use x="319.941406" xlink:href="#DejaVuSans-37"/>
       <use x="383.564453" xlink:href="#DejaVuSans-31"/>
      </g>
     </g>
    </g>
    <g id="xtick_10">
     <g id="line2d_10">
      <g>
       <use style="stroke:#000000;stroke-width:0.8;" x="138.346338" xlink:href="#m6a18a5d52d" y="276.48"/>
      </g>
     </g>
     <g id="text_10">
      <!-- LEU_575 -->
      <g transform="translate(117.155425 313.294533)rotate(-45)scale(0.0833 -0.0833)">
       <use xlink:href="#DejaVuSans-4c"/>
       <use x="55.712891" xlink:href="#DejaVuSans-45"/>
       <use x="118.896484" xlink:href="#DejaVuSans-55"/>
       <use x="192.089844" xlink:href="#DejaVuSans-5f"/>
       <use x="242.089844" xlink:href="#DejaVuSans-35"/>
       <use x="305.712891" xlink:href="#DejaVuSans-37"/>
       <use x="369.335938" xlink:href="#DejaVuSans-35"/>
      </g>
     </g>
    </g>
    <g id="xtick_11">
     <g id="line2d_11">
      <g>
       <use style="stroke:#000000;stroke-width:0.8;" x="149.157415" xlink:href="#m6a18a5d52d" y="276.48"/>
      </g>
     </g>
     <g id="text_11">
      <!-- ILE_586 -->
      <defs>
       <path d="M 31.78125 34.625 
Q 24.75 34.625 20.71875 30.859375 
Q 16.703125 27.09375 16.703125 20.515625 
Q 16.703125 13.921875 20.71875 10.15625 
Q 24.75 6.390625 31.78125 6.390625 
Q 38.8125 6.390625 42.859375 10.171875 
Q 46.921875 13.96875 46.921875 20.515625 
Q 46.921875 27.09375 42.890625 30.859375 
Q 38.875 34.625 31.78125 34.625 
z
M 21.921875 38.8125 
Q 15.578125 40.375 12.03125 44.71875 
Q 8.5 49.078125 8.5 55.328125 
Q 8.5 64.0625 14.71875 69.140625 
Q 20.953125 74.21875 31.78125 74.21875 
Q 42.671875 74.21875 48.875 69.140625 
Q 55.078125 64.0625 55.078125 55.328125 
Q 55.078125 49.078125 51.53125 44.71875 
Q 48 40.375 41.703125 38.8125 
Q 48.828125 37.15625 52.796875 32.3125 
Q 56.78125 27.484375 56.78125 20.515625 
Q 56.78125 9.90625 50.3125 4.234375 
Q 43.84375 -1.421875 31.78125 -1.421875 
Q 19.734375 -1.421875 13.25 4.234375 
Q 6.78125 9.90625 6.78125 20.515625 
Q 6.78125 27.484375 10.78125 32.3125 
Q 14.796875 37.15625 21.921875 38.8125 
z
M 18.3125 54.390625 
Q 18.3125 48.734375 21.84375 45.5625 
Q 25.390625 42.390625 31.78125 42.390625 
Q 38.140625 42.390625 41.71875 45.5625 
Q 45.3125 48.734375 45.3125 54.390625 
Q 45.3125 60.0625 41.71875 63.234375 
Q 38.140625 66.40625 31.78125 66.40625 
Q 25.390625 66.40625 21.84375 63.234375 
Q 18.3125 60.0625 18.3125 54.390625 
z
" id="DejaVuSans-38"/>
       <path d="M 33.015625 40.375 
Q 26.375 40.375 22.484375 35.828125 
Q 18.609375 31.296875 18.609375 23.390625 
Q 18.609375 15.53125 22.484375 10.953125 
Q 26.375 6.390625 33.015625 6.390625 
Q 39.65625 6.390625 43.53125 10.953125 
Q 47.40625 15.53125 47.40625 23.390625 
Q 47.40625 31.296875 43.53125 35.828125 
Q 39.65625 40.375 33.015625 40.375 
z
M 52.59375 71.296875 
L 52.59375 62.3125 
Q 48.875 64.0625 45.09375 64.984375 
Q 41.3125 65.921875 37.59375 65.921875 
Q 27.828125 65.921875 22.671875 59.328125 
Q 17.53125 52.734375 16.796875 39.40625 
Q 19.671875 43.65625 24.015625 45.921875 
Q 28.375 48.1875 33.59375 48.1875 
Q 44.578125 48.1875 50.953125 41.515625 
Q 57.328125 34.859375 57.328125 23.390625 
Q 57.328125 12.15625 50.6875 5.359375 
Q 44.046875 -1.421875 33.015625 -1.421875 
Q 20.359375 -1.421875 13.671875 8.265625 
Q 6.984375 17.96875 6.984375 36.375 
Q 6.984375 53.65625 15.1875 63.9375 
Q 23.390625 74.21875 37.203125 74.21875 
Q 40.921875 74.21875 44.703125 73.484375 
Q 48.484375 72.75 52.59375 71.296875 
z
" id="DejaVuSans-36"/>
      </defs>
      <g transform="translate(130.599606 310.781075)rotate(-45)scale(0.0833 -0.0833)">
       <use xlink:href="#DejaVuSans-49"/>
       <use x="29.492188" xlink:href="#DejaVuSans-4c"/>
       <use x="85.205078" xlink:href="#DejaVuSans-45"/>
       <use x="148.388672" xlink:href="#DejaVuSans-5f"/>
       <use x="198.388672" xlink:href="#DejaVuSans-35"/>
       <use x="262.011719" xlink:href="#DejaVuSans-38"/>
       <use x="325.634766" xlink:href="#DejaVuSans-36"/>
      </g>
     </g>
    </g>
    <g id="xtick_12">
     <g id="line2d_12">
      <g>
       <use style="stroke:#000000;stroke-width:0.8;" x="159.968492" xlink:href="#m6a18a5d52d" y="276.48"/>
      </g>
     </g>
     <g id="text_12">
      <!-- LEU_588 -->
      <g transform="translate(138.837402 313.354356)rotate(-45)scale(0.0833 -0.0833)">
       <use xlink:href="#DejaVuSans-4c"/>
       <use x="55.712891" xlink:href="#DejaVuSans-45"/>
       <use x="118.896484" xlink:href="#DejaVuSans-55"/>
       <use x="192.089844" xlink:href="#DejaVuSans-5f"/>
       <use x="242.089844" xlink:href="#DejaVuSans-35"/>
       <use x="305.712891" xlink:href="#DejaVuSans-38"/>
       <use x="369.335938" xlink:href="#DejaVuSans-38"/>
      </g>
     </g>
    </g>
    <g id="xtick_13">
     <g id="line2d_13">
      <g>
       <use style="stroke:#000000;stroke-width:0.8;" x="170.779569" xlink:href="#m6a18a5d52d" y="276.48"/>
      </g>
     </g>
     <g id="text_13">
      <!-- MET_600 -->
      <defs>
       <path d="M 9.8125 72.90625 
L 24.515625 72.90625 
L 43.109375 23.296875 
L 61.8125 72.90625 
L 76.515625 72.90625 
L 76.515625 0 
L 66.890625 0 
L 66.890625 64.015625 
L 48.09375 14.015625 
L 38.1875 14.015625 
L 19.390625 64.015625 
L 19.390625 0 
L 9.8125 0 
z
" id="DejaVuSans-4d"/>
      </defs>
      <g transform="translate(148.561553 314.441281)rotate(-45)scale(0.0833 -0.0833)">
       <use xlink:href="#DejaVuSans-4d"/>
       <use x="86.279297" xlink:href="#DejaVuSans-45"/>
       <use x="149.462891" xlink:href="#DejaVuSans-54"/>
       <use x="210.546875" xlink:href="#DejaVuSans-5f"/>
       <use x="260.546875" xlink:href="#DejaVuSans-36"/>
       <use x="324.169922" xlink:href="#DejaVuSans-30"/>
       <use x="387.792969" xlink:href="#DejaVuSans-30"/>
      </g>
     </g>
    </g>
    <g id="xtick_14">
     <g id="line2d_14">
      <g>
       <use style="stroke:#000000;stroke-width:0.8;" x="181.590646" xlink:href="#m6a18a5d52d" y="276.48"/>
      </g>
     </g>
     <g id="text_14">
      <!-- MET_602 -->
      <g transform="translate(159.37263 314.441281)rotate(-45)scale(0.0833 -0.0833)">
       <use xlink:href="#DejaVuSans-4d"/>
       <use x="86.279297" xlink:href="#DejaVuSans-45"/>
       <use x="149.462891" xlink:href="#DejaVuSans-54"/>
       <use x="210.546875" xlink:href="#DejaVuSans-5f"/>
       <use x="260.546875" xlink:href="#DejaVuSans-36"/>
       <use x="324.169922" xlink:href="#DejaVuSans-30"/>
       <use x="387.792969" xlink:href="#DejaVuSans-32"/>
      </g>
     </g>
    </g>
    <g id="xtick_15">
     <g id="line2d_15">
      <g>
       <use style="stroke:#000000;stroke-width:0.8;" x="192.401723" xlink:href="#m6a18a5d52d" y="276.48"/>
      </g>
     </g>
     <g id="text_15">
      <!-- GLU_603 -->
      <g transform="translate(170.43312 314.191868)rotate(-45)scale(0.0833 -0.0833)">
       <use xlink:href="#DejaVuSans-47"/>
       <use x="77.490234" xlink:href="#DejaVuSans-4c"/>
       <use x="133.125" xlink:href="#DejaVuSans-55"/>
       <use x="206.318359" xlink:href="#DejaVuSans-5f"/>
       <use x="256.318359" xlink:href="#DejaVuSans-36"/>
       <use x="319.941406" xlink:href="#DejaVuSans-30"/>
       <use x="383.564453" xlink:href="#DejaVuSans-33"/>
      </g>
     </g>
    </g>
    <g id="xtick_16">
     <g id="line2d_16">
      <g>
       <use style="stroke:#000000;stroke-width:0.8;" x="203.2128" xlink:href="#m6a18a5d52d" y="276.48"/>
      </g>
     </g>
     <g id="text_16">
      <!-- CYS_604 -->
      <defs>
       <path d="M 64.40625 67.28125 
L 64.40625 56.890625 
Q 59.421875 61.53125 53.78125 63.8125 
Q 48.140625 66.109375 41.796875 66.109375 
Q 29.296875 66.109375 22.65625 58.46875 
Q 16.015625 50.828125 16.015625 36.375 
Q 16.015625 21.96875 22.65625 14.328125 
Q 29.296875 6.6875 41.796875 6.6875 
Q 48.140625 6.6875 53.78125 8.984375 
Q 59.421875 11.28125 64.40625 15.921875 
L 64.40625 5.609375 
Q 59.234375 2.09375 53.4375 0.328125 
Q 47.65625 -1.421875 41.21875 -1.421875 
Q 24.65625 -1.421875 15.125 8.703125 
Q 5.609375 18.84375 5.609375 36.375 
Q 5.609375 53.953125 15.125 64.078125 
Q 24.65625 74.21875 41.21875 74.21875 
Q 47.75 74.21875 53.53125 72.484375 
Q 59.328125 70.75 64.40625 67.28125 
z
" id="DejaVuSans-43"/>
      </defs>
      <g transform="translate(181.947339 313.488726)rotate(-45)scale(0.0833 -0.0833)">
       <use xlink:href="#DejaVuSans-43"/>
       <use x="69.808594" xlink:href="#DejaVuSans-59"/>
       <use x="130.892578" xlink:href="#DejaVuSans-53"/>
       <use x="194.369141" xlink:href="#DejaVuSans-5f"/>
       <use x="244.369141" xlink:href="#DejaVuSans-36"/>
       <use x="307.992188" xlink:href="#DejaVuSans-30"/>
       <use x="371.615234" xlink:href="#DejaVuSans-34"/>
      </g>
     </g>
    </g>
    <g id="xtick_17">
     <g id="line2d_17">
      <g>
       <use style="stroke:#000000;stroke-width:0.8;" x="214.023877" xlink:href="#m6a18a5d52d" y="276.48"/>
      </g>
     </g>
     <g id="text_17">
      <!-- GLY_605 -->
      <g transform="translate(192.775903 313.471239)rotate(-45)scale(0.0833 -0.0833)">
       <use xlink:href="#DejaVuSans-47"/>
       <use x="77.490234" xlink:href="#DejaVuSans-4c"/>
       <use x="133" xlink:href="#DejaVuSans-59"/>
       <use x="194.083984" xlink:href="#DejaVuSans-5f"/>
       <use x="244.083984" xlink:href="#DejaVuSans-36"/>
       <use x="307.707031" xlink:href="#DejaVuSans-30"/>
       <use x="371.330078" xlink:href="#DejaVuSans-35"/>
      </g>
     </g>
    </g>
    <g id="xtick_18">
     <g id="line2d_18">
      <g>
       <use style="stroke:#000000;stroke-width:0.8;" x="224.834954" xlink:href="#m6a18a5d52d" y="276.48"/>
      </g>
     </g>
     <g id="text_18">
      <!-- ASN_606 -->
      <g transform="translate(202.843342 314.214877)rotate(-45)scale(0.0833 -0.0833)">
       <use xlink:href="#DejaVuSans-41"/>
       <use x="68.408203" xlink:href="#DejaVuSans-53"/>
       <use x="131.884766" xlink:href="#DejaVuSans-4e"/>
       <use x="206.689453" xlink:href="#DejaVuSans-5f"/>
       <use x="256.689453" xlink:href="#DejaVuSans-36"/>
       <use x="320.3125" xlink:href="#DejaVuSans-30"/>
       <use x="383.935547" xlink:href="#DejaVuSans-36"/>
      </g>
     </g>
    </g>
    <g id="xtick_19">
     <g id="line2d_19">
      <g>
       <use style="stroke:#000000;stroke-width:0.8;" x="235.646031" xlink:href="#m6a18a5d52d" y="276.48"/>
      </g>
     </g>
     <g id="text_19">
      <!-- ILE_607 -->
      <g transform="translate(217.088221 310.781075)rotate(-45)scale(0.0833 -0.0833)">
       <use xlink:href="#DejaVuSans-49"/>
       <use x="29.492188" xlink:href="#DejaVuSans-4c"/>
       <use x="85.205078" xlink:href="#DejaVuSans-45"/>
       <use x="148.388672" xlink:href="#DejaVuSans-5f"/>
       <use x="198.388672" xlink:href="#DejaVuSans-36"/>
       <use x="262.011719" xlink:href="#DejaVuSans-30"/>
       <use x="325.634766" xlink:href="#DejaVuSans-37"/>
      </g>
     </g>
    </g>
    <g id="xtick_20">
     <g id="line2d_20">
      <g>
       <use style="stroke:#000000;stroke-width:0.8;" x="246.457108" xlink:href="#m6a18a5d52d" y="276.48"/>
      </g>
     </g>
     <g id="text_20">
      <!-- ASP_608 -->
      <defs>
       <path d="M 19.671875 64.796875 
L 19.671875 37.40625 
L 32.078125 37.40625 
Q 38.96875 37.40625 42.71875 40.96875 
Q 46.484375 44.53125 46.484375 51.125 
Q 46.484375 57.671875 42.71875 61.234375 
Q 38.96875 64.796875 32.078125 64.796875 
z
M 9.8125 72.90625 
L 32.078125 72.90625 
Q 44.34375 72.90625 50.609375 67.359375 
Q 56.890625 61.8125 56.890625 51.125 
Q 56.890625 40.328125 50.609375 34.8125 
Q 44.34375 29.296875 32.078125 29.296875 
L 19.671875 29.296875 
L 19.671875 0 
L 9.8125 0 
z
" id="DejaVuSans-50"/>
      </defs>
      <g transform="translate(225.320495 313.359878)rotate(-45)scale(0.0833 -0.0833)">
       <use xlink:href="#DejaVuSans-41"/>
       <use x="68.408203" xlink:href="#DejaVuSans-53"/>
       <use x="131.884766" xlink:href="#DejaVuSans-50"/>
       <use x="192.1875" xlink:href="#DejaVuSans-5f"/>
       <use x="242.1875" xlink:href="#DejaVuSans-36"/>
       <use x="305.810547" xlink:href="#DejaVuSans-30"/>
       <use x="369.433594" xlink:href="#DejaVuSans-38"/>
      </g>
     </g>
    </g>
    <g id="xtick_21">
     <g id="line2d_21">
      <g>
       <use style="stroke:#000000;stroke-width:0.8;" x="257.268185" xlink:href="#m6a18a5d52d" y="276.48"/>
      </g>
     </g>
     <g id="text_21">
      <!-- ASN_610 -->
      <g transform="translate(235.276573 314.214877)rotate(-45)scale(0.0833 -0.0833)">
       <use xlink:href="#DejaVuSans-41"/>
       <use x="68.408203" xlink:href="#DejaVuSans-53"/>
       <use x="131.884766" xlink:href="#DejaVuSans-4e"/>
       <use x="206.689453" xlink:href="#DejaVuSans-5f"/>
       <use x="256.689453" xlink:href="#DejaVuSans-36"/>
       <use x="320.3125" xlink:href="#DejaVuSans-31"/>
       <use x="383.935547" xlink:href="#DejaVuSans-30"/>
      </g>
     </g>
    </g>
    <g id="xtick_22">
     <g id="line2d_22">
      <g>
       <use style="stroke:#000000;stroke-width:0.8;" x="268.079262" xlink:href="#m6a18a5d52d" y="276.48"/>
      </g>
     </g>
     <g id="text_22">
      <!-- SER_611 -->
      <g transform="translate(246.708882 313.593645)rotate(-45)scale(0.0833 -0.0833)">
       <use xlink:href="#DejaVuSans-53"/>
       <use x="63.476562" xlink:href="#DejaVuSans-45"/>
       <use x="126.660156" xlink:href="#DejaVuSans-52"/>
       <use x="196.142578" xlink:href="#DejaVuSans-5f"/>
       <use x="246.142578" xlink:href="#DejaVuSans-36"/>
       <use x="309.765625" xlink:href="#DejaVuSans-31"/>
       <use x="373.388672" xlink:href="#DejaVuSans-31"/>
      </g>
     </g>
    </g>
    <g id="xtick_23">
     <g id="line2d_23">
      <g>
       <use style="stroke:#000000;stroke-width:0.8;" x="278.890338" xlink:href="#m6a18a5d52d" y="276.48"/>
      </g>
     </g>
     <g id="text_23">
      <!-- LYS_614 -->
      <g transform="translate(258.466992 312.646611)rotate(-45)scale(0.0833 -0.0833)">
       <use xlink:href="#DejaVuSans-4c"/>
       <use x="55.509766" xlink:href="#DejaVuSans-59"/>
       <use x="116.59375" xlink:href="#DejaVuSans-53"/>
       <use x="180.070312" xlink:href="#DejaVuSans-5f"/>
       <use x="230.070312" xlink:href="#DejaVuSans-36"/>
       <use x="293.693359" xlink:href="#DejaVuSans-31"/>
       <use x="357.316406" xlink:href="#DejaVuSans-34"/>
      </g>
     </g>
    </g>
    <g id="xtick_24">
     <g id="line2d_24">
      <g>
       <use style="stroke:#000000;stroke-width:0.8;" x="289.701415" xlink:href="#m6a18a5d52d" y="276.48"/>
      </g>
     </g>
     <g id="text_24">
      <!-- LYS_615 -->
      <g transform="translate(269.278069 312.646611)rotate(-45)scale(0.0833 -0.0833)">
       <use xlink:href="#DejaVuSans-4c"/>
       <use x="55.509766" xlink:href="#DejaVuSans-59"/>
       <use x="116.59375" xlink:href="#DejaVuSans-53"/>
       <use x="180.070312" xlink:href="#DejaVuSans-5f"/>
       <use x="230.070312" xlink:href="#DejaVuSans-36"/>
       <use x="293.693359" xlink:href="#DejaVuSans-31"/>
       <use x="357.316406" xlink:href="#DejaVuSans-35"/>
      </g>
     </g>
    </g>
    <g id="xtick_25">
     <g id="line2d_25">
      <g>
       <use style="stroke:#000000;stroke-width:0.8;" x="300.512492" xlink:href="#m6a18a5d52d" y="276.48"/>
      </g>
     </g>
     <g id="text_25">
      <!-- LEU_654 -->
      <g transform="translate(279.381402 313.354356)rotate(-45)scale(0.0833 -0.0833)">
       <use xlink:href="#DejaVuSans-4c"/>
       <use x="55.712891" xlink:href="#DejaVuSans-45"/>
       <use x="118.896484" xlink:href="#DejaVuSans-55"/>
       <use x="192.089844" xlink:href="#DejaVuSans-5f"/>
       <use x="242.089844" xlink:href="#DejaVuSans-36"/>
       <use x="305.712891" xlink:href="#DejaVuSans-35"/>
       <use x="369.335938" xlink:href="#DejaVuSans-34"/>
      </g>
     </g>
    </g>
    <g id="xtick_26">
     <g id="line2d_26">
      <g>
       <use style="stroke:#000000;stroke-width:0.8;" x="311.323569" xlink:href="#m6a18a5d52d" y="276.48"/>
      </g>
     </g>
     <g id="text_26">
      <!-- ILE_663 -->
      <g transform="translate(292.765759 310.781075)rotate(-45)scale(0.0833 -0.0833)">
       <use xlink:href="#DejaVuSans-49"/>
       <use x="29.492188" xlink:href="#DejaVuSans-4c"/>
       <use x="85.205078" xlink:href="#DejaVuSans-45"/>
       <use x="148.388672" xlink:href="#DejaVuSans-5f"/>
       <use x="198.388672" xlink:href="#DejaVuSans-36"/>
       <use x="262.011719" xlink:href="#DejaVuSans-36"/>
       <use x="325.634766" xlink:href="#DejaVuSans-33"/>
      </g>
     </g>
    </g>
    <g id="xtick_27">
     <g id="line2d_27">
      <g>
       <use style="stroke:#000000;stroke-width:0.8;" x="322.134646" xlink:href="#m6a18a5d52d" y="276.48"/>
      </g>
     </g>
     <g id="text_27">
      <!-- ASP_664 -->
      <g transform="translate(300.998033 313.359878)rotate(-45)scale(0.0833 -0.0833)">
       <use xlink:href="#DejaVuSans-41"/>
       <use x="68.408203" xlink:href="#DejaVuSans-53"/>
       <use x="131.884766" xlink:href="#DejaVuSans-50"/>
       <use x="192.1875" xlink:href="#DejaVuSans-5f"/>
       <use x="242.1875" xlink:href="#DejaVuSans-36"/>
       <use x="305.810547" xlink:href="#DejaVuSans-36"/>
       <use x="369.433594" xlink:href="#DejaVuSans-34"/>
      </g>
     </g>
    </g>
    <g id="xtick_28">
     <g id="line2d_28">
      <g>
       <use style="stroke:#000000;stroke-width:0.8;" x="332.945723" xlink:href="#m6a18a5d52d" y="276.48"/>
      </g>
     </g>
     <g id="text_28">
      <!-- PHE_665 -->
      <defs>
       <path d="M 9.8125 72.90625 
L 19.671875 72.90625 
L 19.671875 43.015625 
L 55.515625 43.015625 
L 55.515625 72.90625 
L 65.375 72.90625 
L 65.375 0 
L 55.515625 0 
L 55.515625 34.71875 
L 19.671875 34.71875 
L 19.671875 0 
L 9.8125 0 
z
" id="DejaVuSans-48"/>
      </defs>
      <g transform="translate(311.426247 313.742741)rotate(-45)scale(0.0833 -0.0833)">
       <use xlink:href="#DejaVuSans-50"/>
       <use x="60.302734" xlink:href="#DejaVuSans-48"/>
       <use x="135.498047" xlink:href="#DejaVuSans-45"/>
       <use x="198.681641" xlink:href="#DejaVuSans-5f"/>
       <use x="248.681641" xlink:href="#DejaVuSans-36"/>
       <use x="312.304688" xlink:href="#DejaVuSans-36"/>
       <use x="375.927734" xlink:href="#DejaVuSans-35"/>
      </g>
     </g>
    </g>
    <g id="xtick_29">
     <g id="line2d_29">
      <g>
       <use style="stroke:#000000;stroke-width:0.8;" x="343.7568" xlink:href="#m6a18a5d52d" y="276.48"/>
      </g>
     </g>
     <g id="text_29">
      <!-- ALA_668 -->
      <g transform="translate(322.598099 313.381966)rotate(-45)scale(0.0833 -0.0833)">
       <use xlink:href="#DejaVuSans-41"/>
       <use x="68.408203" xlink:href="#DejaVuSans-4c"/>
       <use x="124.152344" xlink:href="#DejaVuSans-41"/>
       <use x="192.560547" xlink:href="#DejaVuSans-5f"/>
       <use x="242.560547" xlink:href="#DejaVuSans-36"/>
       <use x="306.183594" xlink:href="#DejaVuSans-36"/>
       <use x="369.806641" xlink:href="#DejaVuSans-38"/>
      </g>
     </g>
    </g>
    <g id="xtick_30">
     <g id="line2d_30">
      <g>
       <use style="stroke:#000000;stroke-width:0.8;" x="354.567877" xlink:href="#m6a18a5d52d" y="276.48"/>
      </g>
     </g>
     <g id="text_30">
      <!-- ASN_669 -->
      <g transform="translate(332.576265 314.214877)rotate(-45)scale(0.0833 -0.0833)">
       <use xlink:href="#DejaVuSans-41"/>
       <use x="68.408203" xlink:href="#DejaVuSans-53"/>
       <use x="131.884766" xlink:href="#DejaVuSans-4e"/>
       <use x="206.689453" xlink:href="#DejaVuSans-5f"/>
       <use x="256.689453" xlink:href="#DejaVuSans-36"/>
       <use x="320.3125" xlink:href="#DejaVuSans-36"/>
       <use x="383.935547" xlink:href="#DejaVuSans-39"/>
      </g>
     </g>
    </g>
    <g id="xtick_31">
     <g id="line2d_31">
      <g>
       <use style="stroke:#000000;stroke-width:0.8;" x="365.378954" xlink:href="#m6a18a5d52d" y="276.48"/>
      </g>
     </g>
     <g id="text_31">
      <!-- MET_671 -->
      <g transform="translate(343.160937 314.441281)rotate(-45)scale(0.0833 -0.0833)">
       <use xlink:href="#DejaVuSans-4d"/>
       <use x="86.279297" xlink:href="#DejaVuSans-45"/>
       <use x="149.462891" xlink:href="#DejaVuSans-54"/>
       <use x="210.546875" xlink:href="#DejaVuSans-5f"/>
       <use x="260.546875" xlink:href="#DejaVuSans-36"/>
       <use x="324.169922" xlink:href="#DejaVuSans-37"/>
       <use x="387.792969" xlink:href="#DejaVuSans-31"/>
      </g>
     </g>
    </g>
    <g id="xtick_32">
     <g id="line2d_32">
      <g>
       <use style="stroke:#000000;stroke-width:0.8;" x="376.190031" xlink:href="#m6a18a5d52d" y="276.48"/>
      </g>
     </g>
     <g id="text_32">
      <!-- PRO_673 -->
      <defs>
       <path d="M 39.40625 66.21875 
Q 28.65625 66.21875 22.328125 58.203125 
Q 16.015625 50.203125 16.015625 36.375 
Q 16.015625 22.609375 22.328125 14.59375 
Q 28.65625 6.59375 39.40625 6.59375 
Q 50.140625 6.59375 56.421875 14.59375 
Q 62.703125 22.609375 62.703125 36.375 
Q 62.703125 50.203125 56.421875 58.203125 
Q 50.140625 66.21875 39.40625 66.21875 
z
M 39.40625 74.21875 
Q 54.734375 74.21875 63.90625 63.9375 
Q 73.09375 53.65625 73.09375 36.375 
Q 73.09375 19.140625 63.90625 8.859375 
Q 54.734375 -1.421875 39.40625 -1.421875 
Q 24.03125 -1.421875 14.8125 8.828125 
Q 5.609375 19.09375 5.609375 36.375 
Q 5.609375 53.65625 14.8125 63.9375 
Q 24.03125 74.21875 39.40625 74.21875 
z
" id="DejaVuSans-4f"/>
      </defs>
      <g transform="translate(354.092579 314.320716)rotate(-45)scale(0.0833 -0.0833)">
       <use xlink:href="#DejaVuSans-50"/>
       <use x="60.302734" xlink:href="#DejaVuSans-52"/>
       <use x="129.785156" xlink:href="#DejaVuSans-4f"/>
       <use x="208.496094" xlink:href="#DejaVuSans-5f"/>
       <use x="258.496094" xlink:href="#DejaVuSans-36"/>
       <use x="322.119141" xlink:href="#DejaVuSans-37"/>
       <use x="385.742188" xlink:href="#DejaVuSans-33"/>
      </g>
     </g>
    </g>
    <g id="xtick_33">
     <g id="line2d_33">
      <g>
       <use style="stroke:#000000;stroke-width:0.8;" x="387.001108" xlink:href="#m6a18a5d52d" y="276.48"/>
      </g>
     </g>
     <g id="text_33">
      <!-- ASP_674 -->
      <g transform="translate(365.864495 313.359878)rotate(-45)scale(0.0833 -0.0833)">
       <use xlink:href="#DejaVuSans-41"/>
       <use x="68.408203" xlink:href="#DejaVuSans-53"/>
       <use x="131.884766" xlink:href="#DejaVuSans-50"/>
       <use x="192.1875" xlink:href="#DejaVuSans-5f"/>
       <use x="242.1875" xlink:href="#DejaVuSans-36"/>
       <use x="305.810547" xlink:href="#DejaVuSans-37"/>
       <use x="369.433594" xlink:href="#DejaVuSans-34"/>
      </g>
     </g>
    </g>
    <g id="xtick_34">
     <g id="line2d_34">
      <g>
       <use style="stroke:#000000;stroke-width:0.8;" x="397.812185" xlink:href="#m6a18a5d52d" y="276.48"/>
      </g>
     </g>
     <g id="text_34">
      <!-- THR_675 -->
      <g transform="translate(375.875793 314.159656)rotate(-45)scale(0.0833 -0.0833)">
       <use xlink:href="#DejaVuSans-54"/>
       <use x="61.083984" xlink:href="#DejaVuSans-48"/>
       <use x="136.279297" xlink:href="#DejaVuSans-52"/>
       <use x="205.761719" xlink:href="#DejaVuSans-5f"/>
       <use x="255.761719" xlink:href="#DejaVuSans-36"/>
       <use x="319.384766" xlink:href="#DejaVuSans-37"/>
       <use x="383.007812" xlink:href="#DejaVuSans-35"/>
      </g>
     </g>
    </g>
    <g id="xtick_35">
     <g id="line2d_35">
      <g>
       <use style="stroke:#000000;stroke-width:0.8;" x="408.623262" xlink:href="#m6a18a5d52d" y="276.48"/>
      </g>
     </g>
     <g id="text_35">
      <!-- THR_676 -->
      <g transform="translate(386.68687 314.159656)rotate(-45)scale(0.0833 -0.0833)">
       <use xlink:href="#DejaVuSans-54"/>
       <use x="61.083984" xlink:href="#DejaVuSans-48"/>
       <use x="136.279297" xlink:href="#DejaVuSans-52"/>
       <use x="205.761719" xlink:href="#DejaVuSans-5f"/>
       <use x="255.761719" xlink:href="#DejaVuSans-36"/>
       <use x="319.384766" xlink:href="#DejaVuSans-37"/>
       <use x="383.007812" xlink:href="#DejaVuSans-36"/>
      </g>
     </g>
    </g>
    <g id="xtick_36">
     <g id="line2d_36">
      <g>
       <use style="stroke:#000000;stroke-width:0.8;" x="419.434338" xlink:href="#m6a18a5d52d" y="276.48"/>
      </g>
     </g>
     <g id="text_36">
      <!-- SER_677 -->
      <g transform="translate(398.063958 313.593645)rotate(-45)scale(0.0833 -0.0833)">
       <use xlink:href="#DejaVuSans-53"/>
       <use x="63.476562" xlink:href="#DejaVuSans-45"/>
       <use x="126.660156" xlink:href="#DejaVuSans-52"/>
       <use x="196.142578" xlink:href="#DejaVuSans-5f"/>
       <use x="246.142578" xlink:href="#DejaVuSans-36"/>
       <use x="309.765625" xlink:href="#DejaVuSans-37"/>
       <use x="373.388672" xlink:href="#DejaVuSans-37"/>
      </g>
     </g>
    </g>
    <g id="xtick_37">
     <g id="line2d_37">
      <g>
       <use style="stroke:#000000;stroke-width:0.8;" x="430.245415" xlink:href="#m6a18a5d52d" y="276.48"/>
      </g>
     </g>
     <g id="text_37">
      <!-- VAL_678 -->
      <g transform="translate(409.094077 313.374603)rotate(-45)scale(0.0833 -0.0833)">
       <use xlink:href="#DejaVuSans-56"/>
       <use x="68.314453" xlink:href="#DejaVuSans-41"/>
       <use x="136.722656" xlink:href="#DejaVuSans-4c"/>
       <use x="192.435547" xlink:href="#DejaVuSans-5f"/>
       <use x="242.435547" xlink:href="#DejaVuSans-36"/>
       <use x="306.058594" xlink:href="#DejaVuSans-37"/>
       <use x="369.681641" xlink:href="#DejaVuSans-38"/>
      </g>
     </g>
    </g>
    <g id="xtick_38">
     <g id="line2d_38">
      <g>
       <use style="stroke:#000000;stroke-width:0.8;" x="441.056492" xlink:href="#m6a18a5d52d" y="276.48"/>
      </g>
     </g>
     <g id="text_38">
      <!-- VAL_679 -->
      <g transform="translate(419.905154 313.374603)rotate(-45)scale(0.0833 -0.0833)">
       <use xlink:href="#DejaVuSans-56"/>
       <use x="68.314453" xlink:href="#DejaVuSans-41"/>
       <use x="136.722656" xlink:href="#DejaVuSans-4c"/>
       <use x="192.435547" xlink:href="#DejaVuSans-5f"/>
       <use x="242.435547" xlink:href="#DejaVuSans-36"/>
       <use x="306.058594" xlink:href="#DejaVuSans-37"/>
       <use x="369.681641" xlink:href="#DejaVuSans-39"/>
      </g>
     </g>
    </g>
   </g>
   <g id="matplotlib.axis_2">
    <g id="ytick_1">
     <g id="line2d_39">
      <defs>
       <path d="M 0 0 
L -3.5 0 
" id="m069d352227" style="stroke:#000000;stroke-width:0.8;"/>
      </defs>
      <g>
       <use style="stroke:#000000;stroke-width:0.8;" x="34.56" xlink:href="#m069d352227" y="276.48"/>
      </g>
     </g>
     <g id="text_39">
      <!-- 0.0 -->
      <defs>
       <path d="M 10.6875 12.40625 
L 21 12.40625 
L 21 0 
L 10.6875 0 
z
" id="DejaVuSans-2e"/>
      </defs>
      <g transform="translate(11.656875 280.279219)scale(0.1 -0.1)">
       <use xlink:href="#DejaVuSans-30"/>
       <use x="63.623047" xlink:href="#DejaVuSans-2e"/>
       <use x="95.410156" xlink:href="#DejaVuSans-30"/>
      </g>
     </g>
    </g>
    <g id="ytick_2">
     <g id="line2d_40">
      <g>
       <use style="stroke:#000000;stroke-width:0.8;" x="34.56" xlink:href="#m069d352227" y="237.592727"/>
      </g>
     </g>
     <g id="text_40">
      <!-- 0.2 -->
      <g transform="translate(11.656875 241.391946)scale(0.1 -0.1)">
       <use xlink:href="#DejaVuSans-30"/>
       <use x="63.623047" xlink:href="#DejaVuSans-2e"/>
       <use x="95.410156" xlink:href="#DejaVuSans-32"/>
      </g>
     </g>
    </g>
    <g id="ytick_3">
     <g id="line2d_41">
      <g>
       <use style="stroke:#000000;stroke-width:0.8;" x="34.56" xlink:href="#m069d352227" y="198.705454"/>
      </g>
     </g>
     <g id="text_41">
      <!-- 0.4 -->
      <g transform="translate(11.656875 202.504673)scale(0.1 -0.1)">
       <use xlink:href="#DejaVuSans-30"/>
       <use x="63.623047" xlink:href="#DejaVuSans-2e"/>
       <use x="95.410156" xlink:href="#DejaVuSans-34"/>
      </g>
     </g>
    </g>
    <g id="ytick_4">
     <g id="line2d_42">
      <g>
       <use style="stroke:#000000;stroke-width:0.8;" x="34.56" xlink:href="#m069d352227" y="159.818181"/>
      </g>
     </g>
     <g id="text_42">
      <!-- 0.6 -->
      <g transform="translate(11.656875 163.6174)scale(0.1 -0.1)">
       <use xlink:href="#DejaVuSans-30"/>
       <use x="63.623047" xlink:href="#DejaVuSans-2e"/>
       <use x="95.410156" xlink:href="#DejaVuSans-36"/>
      </g>
     </g>
    </g>
    <g id="ytick_5">
     <g id="line2d_43">
      <g>
       <use style="stroke:#000000;stroke-width:0.8;" x="34.56" xlink:href="#m069d352227" y="120.930908"/>
      </g>
     </g>
     <g id="text_43">
      <!-- 0.8 -->
      <g transform="translate(11.656875 124.730127)scale(0.1 -0.1)">
       <use xlink:href="#DejaVuSans-30"/>
       <use x="63.623047" xlink:href="#DejaVuSans-2e"/>
       <use x="95.410156" xlink:href="#DejaVuSans-38"/>
      </g>
     </g>
    </g>
    <g id="ytick_6">
     <g id="line2d_44">
      <g>
       <use style="stroke:#000000;stroke-width:0.8;" x="34.56" xlink:href="#m069d352227" y="82.043635"/>
      </g>
     </g>
     <g id="text_44">
      <!-- 1.0 -->
      <g transform="translate(11.656875 85.842854)scale(0.1 -0.1)">
       <use xlink:href="#DejaVuSans-31"/>
       <use x="63.623047" xlink:href="#DejaVuSans-2e"/>
       <use x="95.410156" xlink:href="#DejaVuSans-30"/>
      </g>
     </g>
    </g>
    <g id="ytick_7">
     <g id="line2d_45">
      <g>
       <use style="stroke:#000000;stroke-width:0.8;" x="34.56" xlink:href="#m069d352227" y="43.156362"/>
      </g>
     </g>
     <g id="text_45">
      <!-- 1.2 -->
      <g transform="translate(11.656875 46.955581)scale(0.1 -0.1)">
       <use xlink:href="#DejaVuSans-31"/>
       <use x="63.623047" xlink:href="#DejaVuSans-2e"/>
       <use x="95.410156" xlink:href="#DejaVuSans-32"/>
      </g>
     </g>
    </g>
    <g id="text_46">
     <!-- Interactions Fraction -->
     <defs>
      <path d="M 54.890625 33.015625 
L 54.890625 0 
L 45.90625 0 
L 45.90625 32.71875 
Q 45.90625 40.484375 42.875 44.328125 
Q 39.84375 48.1875 33.796875 48.1875 
Q 26.515625 48.1875 22.3125 43.546875 
Q 18.109375 38.921875 18.109375 30.90625 
L 18.109375 0 
L 9.078125 0 
L 9.078125 54.6875 
L 18.109375 54.6875 
L 18.109375 46.1875 
Q 21.34375 51.125 25.703125 53.5625 
Q 30.078125 56 35.796875 56 
Q 45.21875 56 50.046875 50.171875 
Q 54.890625 44.34375 54.890625 33.015625 
z
" id="DejaVuSans-6e"/>
      <path d="M 18.3125 70.21875 
L 18.3125 54.6875 
L 36.8125 54.6875 
L 36.8125 47.703125 
L 18.3125 47.703125 
L 18.3125 18.015625 
Q 18.3125 11.328125 20.140625 9.421875 
Q 21.96875 7.515625 27.59375 7.515625 
L 36.8125 7.515625 
L 36.8125 0 
L 27.59375 0 
Q 17.1875 0 13.234375 3.875 
Q 9.28125 7.765625 9.28125 18.015625 
L 9.28125 47.703125 
L 2.6875 47.703125 
L 2.6875 54.6875 
L 9.28125 54.6875 
L 9.28125 70.21875 
z
" id="DejaVuSans-74"/>
      <path d="M 56.203125 29.59375 
L 56.203125 25.203125 
L 14.890625 25.203125 
Q 15.484375 15.921875 20.484375 11.0625 
Q 25.484375 6.203125 34.421875 6.203125 
Q 39.59375 6.203125 44.453125 7.46875 
Q 49.3125 8.734375 54.109375 11.28125 
L 54.109375 2.78125 
Q 49.265625 0.734375 44.1875 -0.34375 
Q 39.109375 -1.421875 33.890625 -1.421875 
Q 20.796875 -1.421875 13.15625 6.1875 
Q 5.515625 13.8125 5.515625 26.8125 
Q 5.515625 40.234375 12.765625 48.109375 
Q 20.015625 56 32.328125 56 
Q 43.359375 56 49.78125 48.890625 
Q 56.203125 41.796875 56.203125 29.59375 
z
M 47.21875 32.234375 
Q 47.125 39.59375 43.09375 43.984375 
Q 39.0625 48.390625 32.421875 48.390625 
Q 24.90625 48.390625 20.390625 44.140625 
Q 15.875 39.890625 15.1875 32.171875 
z
" id="DejaVuSans-65"/>
      <path d="M 41.109375 46.296875 
Q 39.59375 47.171875 37.8125 47.578125 
Q 36.03125 48 33.890625 48 
Q 26.265625 48 22.1875 43.046875 
Q 18.109375 38.09375 18.109375 28.8125 
L 18.109375 0 
L 9.078125 0 
L 9.078125 54.6875 
L 18.109375 54.6875 
L 18.109375 46.1875 
Q 20.953125 51.171875 25.484375 53.578125 
Q 30.03125 56 36.53125 56 
Q 37.453125 56 38.578125 55.875 
Q 39.703125 55.765625 41.0625 55.515625 
z
" id="DejaVuSans-72"/>
      <path d="M 34.28125 27.484375 
Q 23.390625 27.484375 19.1875 25 
Q 14.984375 22.515625 14.984375 16.5 
Q 14.984375 11.71875 18.140625 8.90625 
Q 21.296875 6.109375 26.703125 6.109375 
Q 34.1875 6.109375 38.703125 11.40625 
Q 43.21875 16.703125 43.21875 25.484375 
L 43.21875 27.484375 
z
M 52.203125 31.203125 
L 52.203125 0 
L 43.21875 0 
L 43.21875 8.296875 
Q 40.140625 3.328125 35.546875 0.953125 
Q 30.953125 -1.421875 24.3125 -1.421875 
Q 15.921875 -1.421875 10.953125 3.296875 
Q 6 8.015625 6 15.921875 
Q 6 25.140625 12.171875 29.828125 
Q 18.359375 34.515625 30.609375 34.515625 
L 43.21875 34.515625 
L 43.21875 35.40625 
Q 43.21875 41.609375 39.140625 45 
Q 35.0625 48.390625 27.6875 48.390625 
Q 23 48.390625 18.546875 47.265625 
Q 14.109375 46.140625 10.015625 43.890625 
L 10.015625 52.203125 
Q 14.9375 54.109375 19.578125 55.046875 
Q 24.21875 56 28.609375 56 
Q 40.484375 56 46.34375 49.84375 
Q 52.203125 43.703125 52.203125 31.203125 
z
" id="DejaVuSans-61"/>
      <path d="M 48.78125 52.59375 
L 48.78125 44.1875 
Q 44.96875 46.296875 41.140625 47.34375 
Q 37.3125 48.390625 33.40625 48.390625 
Q 24.65625 48.390625 19.8125 42.84375 
Q 14.984375 37.3125 14.984375 27.296875 
Q 14.984375 17.28125 19.8125 11.734375 
Q 24.65625 6.203125 33.40625 6.203125 
Q 37.3125 6.203125 41.140625 7.25 
Q 44.96875 8.296875 48.78125 10.40625 
L 48.78125 2.09375 
Q 45.015625 0.34375 40.984375 -0.53125 
Q 36.96875 -1.421875 32.421875 -1.421875 
Q 20.0625 -1.421875 12.78125 6.34375 
Q 5.515625 14.109375 5.515625 27.296875 
Q 5.515625 40.671875 12.859375 48.328125 
Q 20.21875 56 33.015625 56 
Q 37.15625 56 41.109375 55.140625 
Q 45.0625 54.296875 48.78125 52.59375 
z
" id="DejaVuSans-63"/>
      <path d="M 9.421875 54.6875 
L 18.40625 54.6875 
L 18.40625 0 
L 9.421875 0 
z
M 9.421875 75.984375 
L 18.40625 75.984375 
L 18.40625 64.59375 
L 9.421875 64.59375 
z
" id="DejaVuSans-69"/>
      <path d="M 30.609375 48.390625 
Q 23.390625 48.390625 19.1875 42.75 
Q 14.984375 37.109375 14.984375 27.296875 
Q 14.984375 17.484375 19.15625 11.84375 
Q 23.34375 6.203125 30.609375 6.203125 
Q 37.796875 6.203125 41.984375 11.859375 
Q 46.1875 17.53125 46.1875 27.296875 
Q 46.1875 37.015625 41.984375 42.703125 
Q 37.796875 48.390625 30.609375 48.390625 
z
M 30.609375 56 
Q 42.328125 56 49.015625 48.375 
Q 55.71875 40.765625 55.71875 27.296875 
Q 55.71875 13.875 49.015625 6.21875 
Q 42.328125 -1.421875 30.609375 -1.421875 
Q 18.84375 -1.421875 12.171875 6.21875 
Q 5.515625 13.875 5.515625 27.296875 
Q 5.515625 40.765625 12.171875 48.375 
Q 18.84375 56 30.609375 56 
z
" id="DejaVuSans-6f"/>
      <path d="M 44.28125 53.078125 
L 44.28125 44.578125 
Q 40.484375 46.53125 36.375 47.5 
Q 32.28125 48.484375 27.875 48.484375 
Q 21.1875 48.484375 17.84375 46.4375 
Q 14.5 44.390625 14.5 40.28125 
Q 14.5 37.15625 16.890625 35.375 
Q 19.28125 33.59375 26.515625 31.984375 
L 29.59375 31.296875 
Q 39.15625 29.25 43.1875 25.515625 
Q 47.21875 21.78125 47.21875 15.09375 
Q 47.21875 7.46875 41.1875 3.015625 
Q 35.15625 -1.421875 24.609375 -1.421875 
Q 20.21875 -1.421875 15.453125 -0.5625 
Q 10.6875 0.296875 5.421875 2 
L 5.421875 11.28125 
Q 10.40625 8.6875 15.234375 7.390625 
Q 20.0625 6.109375 24.8125 6.109375 
Q 31.15625 6.109375 34.5625 8.28125 
Q 37.984375 10.453125 37.984375 14.40625 
Q 37.984375 18.0625 35.515625 20.015625 
Q 33.0625 21.96875 24.703125 23.78125 
L 21.578125 24.515625 
Q 13.234375 26.265625 9.515625 29.90625 
Q 5.8125 33.546875 5.8125 39.890625 
Q 5.8125 47.609375 11.28125 51.796875 
Q 16.75 56 26.8125 56 
Q 31.78125 56 36.171875 55.265625 
Q 40.578125 54.546875 44.28125 53.078125 
z
" id="DejaVuSans-73"/>
      <path id="DejaVuSans-20"/>
      <path d="M 9.8125 72.90625 
L 51.703125 72.90625 
L 51.703125 64.59375 
L 19.671875 64.59375 
L 19.671875 43.109375 
L 48.578125 43.109375 
L 48.578125 34.8125 
L 19.671875 34.8125 
L 19.671875 0 
L 9.8125 0 
z
" id="DejaVuSans-46"/>
     </defs>
     <g transform="translate(5.577187 194.542319)rotate(-90)scale(0.1 -0.1)">
      <use xlink:href="#DejaVuSans-49"/>
      <use x="29.492188" xlink:href="#DejaVuSans-6e"/>
      <use x="92.871094" xlink:href="#DejaVuSans-74"/>
      <use x="132.080078" xlink:href="#DejaVuSans-65"/>
      <use x="193.603516" xlink:href="#DejaVuSans-72"/>
      <use x="234.716797" xlink:href="#DejaVuSans-61"/>
      <use x="295.996094" xlink:href="#DejaVuSans-63"/>
      <use x="350.976562" xlink:href="#DejaVuSans-74"/>
      <use x="390.185547" xlink:href="#DejaVuSans-69"/>
      <use x="417.96875" xlink:href="#DejaVuSans-6f"/>
      <use x="479.150391" xlink:href="#DejaVuSans-6e"/>
      <use x="542.529297" xlink:href="#DejaVuSans-73"/>
      <use x="594.628906" xlink:href="#DejaVuSans-20"/>
      <use x="626.416016" xlink:href="#DejaVuSans-46"/>
      <use x="683.826172" xlink:href="#DejaVuSans-72"/>
      <use x="724.939453" xlink:href="#DejaVuSans-61"/>
      <use x="786.21875" xlink:href="#DejaVuSans-63"/>
      <use x="841.199219" xlink:href="#DejaVuSans-74"/>
      <use x="880.408203" xlink:href="#DejaVuSans-69"/>
      <use x="908.191406" xlink:href="#DejaVuSans-6f"/>
      <use x="969.373047" xlink:href="#DejaVuSans-6e"/>
     </g>
    </g>
   </g>
   <g id="patch_155">
    <path d="M 34.56 276.48 
L 34.56 9.3312 
" style="fill:none;stroke:#000000;stroke-linecap:square;stroke-linejoin:miter;stroke-width:0.8;"/>
   </g>
   <g id="patch_156">
    <path d="M 456.192 276.48 
L 456.192 9.3312 
" style="fill:none;stroke:#000000;stroke-linecap:square;stroke-linejoin:miter;stroke-width:0.8;"/>
   </g>
   <g id="patch_157">
    <path d="M 34.56 276.48 
L 456.192 276.48 
" style="fill:none;stroke:#000000;stroke-linecap:square;stroke-linejoin:miter;stroke-width:0.8;"/>
   </g>
   <g id="patch_158">
    <path d="M 34.56 9.3312 
L 456.192 9.3312 
" style="fill:none;stroke:#000000;stroke-linecap:square;stroke-linejoin:miter;stroke-width:0.8;"/>
   </g>
  </g>
 </g>
 <defs>
  <clipPath id="pe208544774">
   <rect height="267.1488" width="421.632" x="34.56" y="9.3312"/>
  </clipPath>
 </defs>
</svg>
