<?xml version="1.0" encoding="utf-8" standalone="no"?>
<!DOCTYPE svg PUBLIC "-//W3C//DTD SVG 1.1//EN"
  "http://www.w3.org/Graphics/SVG/1.1/DTD/svg11.dtd">
<!-- Created with matplotlib (http://matplotlib.org/) -->
<svg height="345.6pt" version="1.1" viewBox="0 0 460.8 345.6" width="460.8pt" xmlns="http://www.w3.org/2000/svg" xmlns:xlink="http://www.w3.org/1999/xlink">
 <defs>
  <style type="text/css">
*{stroke-linecap:butt;stroke-linejoin:round;}
  </style>
 </defs>
 <g id="figure_1">
  <g id="patch_1">
   <path d="M 0 345.6 
L 460.8 345.6 
L 460.8 0 
L 0 0 
z
" style="fill:#ffffff;"/>
  </g>
  <g id="axes_1">
   <g id="patch_2">
    <path d="M 34.56 276.48 
L 456.192 276.48 
L 456.192 9.3312 
L 34.56 9.3312 
z
" style="fill:#ffffff;"/>
   </g>
   <g id="patch_3">
    <path clip-path="url(#p6749b2f7bb)" d="M 36.66816 276.48 
L 45.1008 276.48 
L 45.1008 243.447453 
L 36.66816 243.447453 
z
" style="fill:#7fc97f;"/>
   </g>
   <g id="patch_4">
    <path clip-path="url(#p6749b2f7bb)" d="M 47.20896 276.48 
L 55.6416 276.48 
L 55.6416 276.48 
L 47.20896 276.48 
z
" style="fill:#7fc97f;"/>
   </g>
   <g id="patch_5">
    <path clip-path="url(#p6749b2f7bb)" d="M 57.74976 276.48 
L 66.1824 276.48 
L 66.1824 276.48 
L 57.74976 276.48 
z
" style="fill:#7fc97f;"/>
   </g>
   <g id="patch_6">
    <path clip-path="url(#p6749b2f7bb)" d="M 68.29056 276.48 
L 76.7232 276.48 
L 76.7232 276.48 
L 68.29056 276.48 
z
" style="fill:#7fc97f;"/>
   </g>
   <g id="patch_7">
    <path clip-path="url(#p6749b2f7bb)" d="M 78.83136 276.48 
L 87.264 276.48 
L 87.264 276.48 
L 78.83136 276.48 
z
" style="fill:#7fc97f;"/>
   </g>
   <g id="patch_8">
    <path clip-path="url(#p6749b2f7bb)" d="M 89.37216 276.48 
L 97.8048 276.48 
L 97.8048 244.40002 
L 89.37216 244.40002 
z
" style="fill:#7fc97f;"/>
   </g>
   <g id="patch_9">
    <path clip-path="url(#p6749b2f7bb)" d="M 99.91296 276.48 
L 108.3456 276.48 
L 108.3456 276.48 
L 99.91296 276.48 
z
" style="fill:#7fc97f;"/>
   </g>
   <g id="patch_10">
    <path clip-path="url(#p6749b2f7bb)" d="M 110.45376 276.48 
L 118.8864 276.48 
L 118.8864 146.101307 
L 110.45376 146.101307 
z
" style="fill:#7fc97f;"/>
   </g>
   <g id="patch_11">
    <path clip-path="url(#p6749b2f7bb)" d="M 120.99456 276.48 
L 129.4272 276.48 
L 129.4272 276.48 
L 120.99456 276.48 
z
" style="fill:#7fc97f;"/>
   </g>
   <g id="patch_12">
    <path clip-path="url(#p6749b2f7bb)" d="M 131.53536 276.48 
L 139.968 276.48 
L 139.968 276.48 
L 131.53536 276.48 
z
" style="fill:#7fc97f;"/>
   </g>
   <g id="patch_13">
    <path clip-path="url(#p6749b2f7bb)" d="M 142.07616 276.48 
L 150.5088 276.48 
L 150.5088 276.48 
L 142.07616 276.48 
z
" style="fill:#7fc97f;"/>
   </g>
   <g id="patch_14">
    <path clip-path="url(#p6749b2f7bb)" d="M 152.61696 276.48 
L 161.0496 276.48 
L 161.0496 276.48 
L 152.61696 276.48 
z
" style="fill:#7fc97f;"/>
   </g>
   <g id="patch_15">
    <path clip-path="url(#p6749b2f7bb)" d="M 163.15776 276.48 
L 171.5904 276.48 
L 171.5904 276.48 
L 163.15776 276.48 
z
" style="fill:#7fc97f;"/>
   </g>
   <g id="patch_16">
    <path clip-path="url(#p6749b2f7bb)" d="M 173.69856 276.48 
L 182.1312 276.48 
L 182.1312 276.48 
L 173.69856 276.48 
z
" style="fill:#7fc97f;"/>
   </g>
   <g id="patch_17">
    <path clip-path="url(#p6749b2f7bb)" d="M 184.23936 276.48 
L 192.672 276.48 
L 192.672 270.119314 
L 184.23936 270.119314 
z
" style="fill:#7fc97f;"/>
   </g>
   <g id="patch_18">
    <path clip-path="url(#p6749b2f7bb)" d="M 194.78016 276.48 
L 203.2128 276.48 
L 203.2128 48.171329 
L 194.78016 48.171329 
z
" style="fill:#7fc97f;"/>
   </g>
   <g id="patch_19">
    <path clip-path="url(#p6749b2f7bb)" d="M 205.32096 276.48 
L 213.7536 276.48 
L 213.7536 274.23686 
L 205.32096 274.23686 
z
" style="fill:#7fc97f;"/>
   </g>
   <g id="patch_20">
    <path clip-path="url(#p6749b2f7bb)" d="M 215.86176 276.48 
L 224.2944 276.48 
L 224.2944 276.48 
L 215.86176 276.48 
z
" style="fill:#7fc97f;"/>
   </g>
   <g id="patch_21">
    <path clip-path="url(#p6749b2f7bb)" d="M 226.40256 276.48 
L 234.8352 276.48 
L 234.8352 276.48 
L 226.40256 276.48 
z
" style="fill:#7fc97f;"/>
   </g>
   <g id="patch_22">
    <path clip-path="url(#p6749b2f7bb)" d="M 236.94336 276.48 
L 245.376 276.48 
L 245.376 276.48 
L 236.94336 276.48 
z
" style="fill:#7fc97f;"/>
   </g>
   <g id="patch_23">
    <path clip-path="url(#p6749b2f7bb)" d="M 247.48416 276.48 
L 255.9168 276.48 
L 255.9168 276.48 
L 247.48416 276.48 
z
" style="fill:#7fc97f;"/>
   </g>
   <g id="patch_24">
    <path clip-path="url(#p6749b2f7bb)" d="M 258.02496 276.48 
L 266.4576 276.48 
L 266.4576 276.48 
L 258.02496 276.48 
z
" style="fill:#7fc97f;"/>
   </g>
   <g id="patch_25">
    <path clip-path="url(#p6749b2f7bb)" d="M 268.56576 276.48 
L 276.9984 276.48 
L 276.9984 276.48 
L 268.56576 276.48 
z
" style="fill:#7fc97f;"/>
   </g>
   <g id="patch_26">
    <path clip-path="url(#p6749b2f7bb)" d="M 279.10656 276.48 
L 287.5392 276.48 
L 287.5392 276.48 
L 279.10656 276.48 
z
" style="fill:#7fc97f;"/>
   </g>
   <g id="patch_27">
    <path clip-path="url(#p6749b2f7bb)" d="M 289.64736 276.48 
L 298.08 276.48 
L 298.08 276.48 
L 289.64736 276.48 
z
" style="fill:#7fc97f;"/>
   </g>
   <g id="patch_28">
    <path clip-path="url(#p6749b2f7bb)" d="M 300.18816 276.48 
L 308.6208 276.48 
L 308.6208 138.511503 
L 300.18816 138.511503 
z
" style="fill:#7fc97f;"/>
   </g>
   <g id="patch_29">
    <path clip-path="url(#p6749b2f7bb)" d="M 310.72896 276.48 
L 319.1616 276.48 
L 319.1616 276.48 
L 310.72896 276.48 
z
" style="fill:#7fc97f;"/>
   </g>
   <g id="patch_30">
    <path clip-path="url(#p6749b2f7bb)" d="M 321.26976 276.48 
L 329.7024 276.48 
L 329.7024 276.48 
L 321.26976 276.48 
z
" style="fill:#7fc97f;"/>
   </g>
   <g id="patch_31">
    <path clip-path="url(#p6749b2f7bb)" d="M 331.81056 276.48 
L 340.2432 276.48 
L 340.2432 276.48 
L 331.81056 276.48 
z
" style="fill:#7fc97f;"/>
   </g>
   <g id="patch_32">
    <path clip-path="url(#p6749b2f7bb)" d="M 342.35136 276.48 
L 350.784 276.48 
L 350.784 276.48 
L 342.35136 276.48 
z
" style="fill:#7fc97f;"/>
   </g>
   <g id="patch_33">
    <path clip-path="url(#p6749b2f7bb)" d="M 352.89216 276.48 
L 361.3248 276.48 
L 361.3248 276.48 
L 352.89216 276.48 
z
" style="fill:#7fc97f;"/>
   </g>
   <g id="patch_34">
    <path clip-path="url(#p6749b2f7bb)" d="M 363.43296 276.48 
L 371.8656 276.48 
L 371.8656 276.48 
L 363.43296 276.48 
z
" style="fill:#7fc97f;"/>
   </g>
   <g id="patch_35">
    <path clip-path="url(#p6749b2f7bb)" d="M 373.97376 276.48 
L 382.4064 276.48 
L 382.4064 276.48 
L 373.97376 276.48 
z
" style="fill:#7fc97f;"/>
   </g>
   <g id="patch_36">
    <path clip-path="url(#p6749b2f7bb)" d="M 384.51456 276.48 
L 392.9472 276.48 
L 392.9472 276.48 
L 384.51456 276.48 
z
" style="fill:#7fc97f;"/>
   </g>
   <g id="patch_37">
    <path clip-path="url(#p6749b2f7bb)" d="M 395.05536 276.48 
L 403.488 276.48 
L 403.488 276.48 
L 395.05536 276.48 
z
" style="fill:#7fc97f;"/>
   </g>
   <g id="patch_38">
    <path clip-path="url(#p6749b2f7bb)" d="M 405.59616 276.48 
L 414.0288 276.48 
L 414.0288 275.803985 
L 405.59616 275.803985 
z
" style="fill:#7fc97f;"/>
   </g>
   <g id="patch_39">
    <path clip-path="url(#p6749b2f7bb)" d="M 416.13696 276.48 
L 424.5696 276.48 
L 424.5696 275.988353 
L 416.13696 275.988353 
z
" style="fill:#7fc97f;"/>
   </g>
   <g id="patch_40">
    <path clip-path="url(#p6749b2f7bb)" d="M 426.67776 276.48 
L 435.1104 276.48 
L 435.1104 276.48 
L 426.67776 276.48 
z
" style="fill:#7fc97f;"/>
   </g>
   <g id="patch_41">
    <path clip-path="url(#p6749b2f7bb)" d="M 437.21856 276.48 
L 445.6512 276.48 
L 445.6512 276.141993 
L 437.21856 276.141993 
z
" style="fill:#7fc97f;"/>
   </g>
   <g id="patch_42">
    <path clip-path="url(#p6749b2f7bb)" d="M 36.66816 243.447453 
L 45.1008 243.447453 
L 45.1008 243.447453 
L 36.66816 243.447453 
z
" style="fill:#beaed4;"/>
   </g>
   <g id="patch_43">
    <path clip-path="url(#p6749b2f7bb)" d="M 47.20896 276.48 
L 55.6416 276.48 
L 55.6416 276.48 
L 47.20896 276.48 
z
" style="fill:#beaed4;"/>
   </g>
   <g id="patch_44">
    <path clip-path="url(#p6749b2f7bb)" d="M 57.74976 276.48 
L 66.1824 276.48 
L 66.1824 222.828999 
L 57.74976 222.828999 
z
" style="fill:#beaed4;"/>
   </g>
   <g id="patch_45">
    <path clip-path="url(#p6749b2f7bb)" d="M 68.29056 276.48 
L 76.7232 276.48 
L 76.7232 276.48 
L 68.29056 276.48 
z
" style="fill:#beaed4;"/>
   </g>
   <g id="patch_46">
    <path clip-path="url(#p6749b2f7bb)" d="M 78.83136 276.48 
L 87.264 276.48 
L 87.264 256.752656 
L 78.83136 256.752656 
z
" style="fill:#beaed4;"/>
   </g>
   <g id="patch_47">
    <path clip-path="url(#p6749b2f7bb)" d="M 89.37216 244.40002 
L 97.8048 244.40002 
L 97.8048 244.40002 
L 89.37216 244.40002 
z
" style="fill:#beaed4;"/>
   </g>
   <g id="patch_48">
    <path clip-path="url(#p6749b2f7bb)" d="M 99.91296 276.48 
L 108.3456 276.48 
L 108.3456 269.689123 
L 99.91296 269.689123 
z
" style="fill:#beaed4;"/>
   </g>
   <g id="patch_49">
    <path clip-path="url(#p6749b2f7bb)" d="M 110.45376 146.101307 
L 118.8864 146.101307 
L 118.8864 146.101307 
L 110.45376 146.101307 
z
" style="fill:#beaed4;"/>
   </g>
   <g id="patch_50">
    <path clip-path="url(#p6749b2f7bb)" d="M 120.99456 276.48 
L 129.4272 276.48 
L 129.4272 276.48 
L 120.99456 276.48 
z
" style="fill:#beaed4;"/>
   </g>
   <g id="patch_51">
    <path clip-path="url(#p6749b2f7bb)" d="M 131.53536 276.48 
L 139.968 276.48 
L 139.968 216.437585 
L 131.53536 216.437585 
z
" style="fill:#beaed4;"/>
   </g>
   <g id="patch_52">
    <path clip-path="url(#p6749b2f7bb)" d="M 142.07616 276.48 
L 150.5088 276.48 
L 150.5088 276.295632 
L 142.07616 276.295632 
z
" style="fill:#beaed4;"/>
   </g>
   <g id="patch_53">
    <path clip-path="url(#p6749b2f7bb)" d="M 152.61696 276.48 
L 161.0496 276.48 
L 161.0496 250.269058 
L 152.61696 250.269058 
z
" style="fill:#beaed4;"/>
   </g>
   <g id="patch_54">
    <path clip-path="url(#p6749b2f7bb)" d="M 163.15776 276.48 
L 171.5904 276.48 
L 171.5904 272.085903 
L 163.15776 272.085903 
z
" style="fill:#beaed4;"/>
   </g>
   <g id="patch_55">
    <path clip-path="url(#p6749b2f7bb)" d="M 173.69856 276.48 
L 182.1312 276.48 
L 182.1312 232.877039 
L 173.69856 232.877039 
z
" style="fill:#beaed4;"/>
   </g>
   <g id="patch_56">
    <path clip-path="url(#p6749b2f7bb)" d="M 184.23936 270.119314 
L 192.672 270.119314 
L 192.672 270.119314 
L 184.23936 270.119314 
z
" style="fill:#beaed4;"/>
   </g>
   <g id="patch_57">
    <path clip-path="url(#p6749b2f7bb)" d="M 194.78016 48.171329 
L 203.2128 48.171329 
L 203.2128 48.171329 
L 194.78016 48.171329 
z
" style="fill:#beaed4;"/>
   </g>
   <g id="patch_58">
    <path clip-path="url(#p6749b2f7bb)" d="M 205.32096 274.23686 
L 213.7536 274.23686 
L 213.7536 274.23686 
L 205.32096 274.23686 
z
" style="fill:#beaed4;"/>
   </g>
   <g id="patch_59">
    <path clip-path="url(#p6749b2f7bb)" d="M 215.86176 276.48 
L 224.2944 276.48 
L 224.2944 276.449272 
L 215.86176 276.449272 
z
" style="fill:#beaed4;"/>
   </g>
   <g id="patch_60">
    <path clip-path="url(#p6749b2f7bb)" d="M 226.40256 276.48 
L 234.8352 276.48 
L 234.8352 276.48 
L 226.40256 276.48 
z
" style="fill:#beaed4;"/>
   </g>
   <g id="patch_61">
    <path clip-path="url(#p6749b2f7bb)" d="M 236.94336 276.48 
L 245.376 276.48 
L 245.376 276.48 
L 236.94336 276.48 
z
" style="fill:#beaed4;"/>
   </g>
   <g id="patch_62">
    <path clip-path="url(#p6749b2f7bb)" d="M 247.48416 276.48 
L 255.9168 276.48 
L 255.9168 276.48 
L 247.48416 276.48 
z
" style="fill:#beaed4;"/>
   </g>
   <g id="patch_63">
    <path clip-path="url(#p6749b2f7bb)" d="M 258.02496 276.48 
L 266.4576 276.48 
L 266.4576 276.48 
L 258.02496 276.48 
z
" style="fill:#beaed4;"/>
   </g>
   <g id="patch_64">
    <path clip-path="url(#p6749b2f7bb)" d="M 268.56576 276.48 
L 276.9984 276.48 
L 276.9984 276.48 
L 268.56576 276.48 
z
" style="fill:#beaed4;"/>
   </g>
   <g id="patch_65">
    <path clip-path="url(#p6749b2f7bb)" d="M 279.10656 276.48 
L 287.5392 276.48 
L 287.5392 276.48 
L 279.10656 276.48 
z
" style="fill:#beaed4;"/>
   </g>
   <g id="patch_66">
    <path clip-path="url(#p6749b2f7bb)" d="M 289.64736 276.48 
L 298.08 276.48 
L 298.08 218.926549 
L 289.64736 218.926549 
z
" style="fill:#beaed4;"/>
   </g>
   <g id="patch_67">
    <path clip-path="url(#p6749b2f7bb)" d="M 300.18816 138.511503 
L 308.6208 138.511503 
L 308.6208 9.3312 
L 300.18816 9.3312 
z
" style="fill:#beaed4;"/>
   </g>
   <g id="patch_68">
    <path clip-path="url(#p6749b2f7bb)" d="M 310.72896 276.48 
L 319.1616 276.48 
L 319.1616 276.48 
L 310.72896 276.48 
z
" style="fill:#beaed4;"/>
   </g>
   <g id="patch_69">
    <path clip-path="url(#p6749b2f7bb)" d="M 321.26976 276.48 
L 329.7024 276.48 
L 329.7024 244.24638 
L 321.26976 244.24638 
z
" style="fill:#beaed4;"/>
   </g>
   <g id="patch_70">
    <path clip-path="url(#p6749b2f7bb)" d="M 331.81056 276.48 
L 340.2432 276.48 
L 340.2432 274.359771 
L 331.81056 274.359771 
z
" style="fill:#beaed4;"/>
   </g>
   <g id="patch_71">
    <path clip-path="url(#p6749b2f7bb)" d="M 342.35136 276.48 
L 350.784 276.48 
L 350.784 276.48 
L 342.35136 276.48 
z
" style="fill:#beaed4;"/>
   </g>
   <g id="patch_72">
    <path clip-path="url(#p6749b2f7bb)" d="M 352.89216 276.48 
L 361.3248 276.48 
L 361.3248 276.48 
L 352.89216 276.48 
z
" style="fill:#beaed4;"/>
   </g>
   <g id="patch_73">
    <path clip-path="url(#p6749b2f7bb)" d="M 363.43296 276.48 
L 371.8656 276.48 
L 371.8656 263.14407 
L 363.43296 263.14407 
z
" style="fill:#beaed4;"/>
   </g>
   <g id="patch_74">
    <path clip-path="url(#p6749b2f7bb)" d="M 373.97376 276.48 
L 382.4064 276.48 
L 382.4064 276.48 
L 373.97376 276.48 
z
" style="fill:#beaed4;"/>
   </g>
   <g id="patch_75">
    <path clip-path="url(#p6749b2f7bb)" d="M 384.51456 276.48 
L 392.9472 276.48 
L 392.9472 256.168825 
L 384.51456 256.168825 
z
" style="fill:#beaed4;"/>
   </g>
   <g id="patch_76">
    <path clip-path="url(#p6749b2f7bb)" d="M 395.05536 276.48 
L 403.488 276.48 
L 403.488 276.48 
L 395.05536 276.48 
z
" style="fill:#beaed4;"/>
   </g>
   <g id="patch_77">
    <path clip-path="url(#p6749b2f7bb)" d="M 405.59616 275.803985 
L 414.0288 275.803985 
L 414.0288 275.803985 
L 405.59616 275.803985 
z
" style="fill:#beaed4;"/>
   </g>
   <g id="patch_78">
    <path clip-path="url(#p6749b2f7bb)" d="M 416.13696 275.988353 
L 424.5696 275.988353 
L 424.5696 275.988353 
L 416.13696 275.988353 
z
" style="fill:#beaed4;"/>
   </g>
   <g id="patch_79">
    <path clip-path="url(#p6749b2f7bb)" d="M 426.67776 276.48 
L 435.1104 276.48 
L 435.1104 276.48 
L 426.67776 276.48 
z
" style="fill:#beaed4;"/>
   </g>
   <g id="patch_80">
    <path clip-path="url(#p6749b2f7bb)" d="M 437.21856 276.141993 
L 445.6512 276.141993 
L 445.6512 276.111265 
L 437.21856 276.111265 
z
" style="fill:#beaed4;"/>
   </g>
   <g id="patch_81">
    <path clip-path="url(#p6749b2f7bb)" d="M 36.66816 243.447453 
L 45.1008 243.447453 
L 45.1008 243.04799 
L 36.66816 243.04799 
z
" style="fill:#f0027f;"/>
   </g>
   <g id="patch_82">
    <path clip-path="url(#p6749b2f7bb)" d="M 47.20896 276.48 
L 55.6416 276.48 
L 55.6416 276.48 
L 47.20896 276.48 
z
" style="fill:#f0027f;"/>
   </g>
   <g id="patch_83">
    <path clip-path="url(#p6749b2f7bb)" d="M 57.74976 222.828999 
L 66.1824 222.828999 
L 66.1824 222.828999 
L 57.74976 222.828999 
z
" style="fill:#f0027f;"/>
   </g>
   <g id="patch_84">
    <path clip-path="url(#p6749b2f7bb)" d="M 68.29056 276.48 
L 76.7232 276.48 
L 76.7232 276.48 
L 68.29056 276.48 
z
" style="fill:#f0027f;"/>
   </g>
   <g id="patch_85">
    <path clip-path="url(#p6749b2f7bb)" d="M 78.83136 256.752656 
L 87.264 256.752656 
L 87.264 256.752656 
L 78.83136 256.752656 
z
" style="fill:#f0027f;"/>
   </g>
   <g id="patch_86">
    <path clip-path="url(#p6749b2f7bb)" d="M 89.37216 244.40002 
L 97.8048 244.40002 
L 97.8048 244.277108 
L 89.37216 244.277108 
z
" style="fill:#f0027f;"/>
   </g>
   <g id="patch_87">
    <path clip-path="url(#p6749b2f7bb)" d="M 99.91296 269.689123 
L 108.3456 269.689123 
L 108.3456 269.689123 
L 99.91296 269.689123 
z
" style="fill:#f0027f;"/>
   </g>
   <g id="patch_88">
    <path clip-path="url(#p6749b2f7bb)" d="M 110.45376 146.101307 
L 118.8864 146.101307 
L 118.8864 146.101307 
L 110.45376 146.101307 
z
" style="fill:#f0027f;"/>
   </g>
   <g id="patch_89">
    <path clip-path="url(#p6749b2f7bb)" d="M 120.99456 276.48 
L 129.4272 276.48 
L 129.4272 276.48 
L 120.99456 276.48 
z
" style="fill:#f0027f;"/>
   </g>
   <g id="patch_90">
    <path clip-path="url(#p6749b2f7bb)" d="M 131.53536 216.437585 
L 139.968 216.437585 
L 139.968 216.437585 
L 131.53536 216.437585 
z
" style="fill:#f0027f;"/>
   </g>
   <g id="patch_91">
    <path clip-path="url(#p6749b2f7bb)" d="M 142.07616 276.295632 
L 150.5088 276.295632 
L 150.5088 276.295632 
L 142.07616 276.295632 
z
" style="fill:#f0027f;"/>
   </g>
   <g id="patch_92">
    <path clip-path="url(#p6749b2f7bb)" d="M 152.61696 250.269058 
L 161.0496 250.269058 
L 161.0496 250.269058 
L 152.61696 250.269058 
z
" style="fill:#f0027f;"/>
   </g>
   <g id="patch_93">
    <path clip-path="url(#p6749b2f7bb)" d="M 163.15776 272.085903 
L 171.5904 272.085903 
L 171.5904 272.085903 
L 163.15776 272.085903 
z
" style="fill:#f0027f;"/>
   </g>
   <g id="patch_94">
    <path clip-path="url(#p6749b2f7bb)" d="M 173.69856 232.877039 
L 182.1312 232.877039 
L 182.1312 232.877039 
L 173.69856 232.877039 
z
" style="fill:#f0027f;"/>
   </g>
   <g id="patch_95">
    <path clip-path="url(#p6749b2f7bb)" d="M 184.23936 270.119314 
L 192.672 270.119314 
L 192.672 270.119314 
L 184.23936 270.119314 
z
" style="fill:#f0027f;"/>
   </g>
   <g id="patch_96">
    <path clip-path="url(#p6749b2f7bb)" d="M 194.78016 48.171329 
L 203.2128 48.171329 
L 203.2128 48.171329 
L 194.78016 48.171329 
z
" style="fill:#f0027f;"/>
   </g>
   <g id="patch_97">
    <path clip-path="url(#p6749b2f7bb)" d="M 205.32096 274.23686 
L 213.7536 274.23686 
L 213.7536 274.23686 
L 205.32096 274.23686 
z
" style="fill:#f0027f;"/>
   </g>
   <g id="patch_98">
    <path clip-path="url(#p6749b2f7bb)" d="M 215.86176 276.449272 
L 224.2944 276.449272 
L 224.2944 276.449272 
L 215.86176 276.449272 
z
" style="fill:#f0027f;"/>
   </g>
   <g id="patch_99">
    <path clip-path="url(#p6749b2f7bb)" d="M 226.40256 276.48 
L 234.8352 276.48 
L 234.8352 276.48 
L 226.40256 276.48 
z
" style="fill:#f0027f;"/>
   </g>
   <g id="patch_100">
    <path clip-path="url(#p6749b2f7bb)" d="M 236.94336 276.48 
L 245.376 276.48 
L 245.376 276.48 
L 236.94336 276.48 
z
" style="fill:#f0027f;"/>
   </g>
   <g id="patch_101">
    <path clip-path="url(#p6749b2f7bb)" d="M 247.48416 276.48 
L 255.9168 276.48 
L 255.9168 276.449272 
L 247.48416 276.449272 
z
" style="fill:#f0027f;"/>
   </g>
   <g id="patch_102">
    <path clip-path="url(#p6749b2f7bb)" d="M 258.02496 276.48 
L 266.4576 276.48 
L 266.4576 276.48 
L 258.02496 276.48 
z
" style="fill:#f0027f;"/>
   </g>
   <g id="patch_103">
    <path clip-path="url(#p6749b2f7bb)" d="M 268.56576 276.48 
L 276.9984 276.48 
L 276.9984 276.48 
L 268.56576 276.48 
z
" style="fill:#f0027f;"/>
   </g>
   <g id="patch_104">
    <path clip-path="url(#p6749b2f7bb)" d="M 279.10656 276.48 
L 287.5392 276.48 
L 287.5392 276.48 
L 279.10656 276.48 
z
" style="fill:#f0027f;"/>
   </g>
   <g id="patch_105">
    <path clip-path="url(#p6749b2f7bb)" d="M 289.64736 218.926549 
L 298.08 218.926549 
L 298.08 218.926549 
L 289.64736 218.926549 
z
" style="fill:#f0027f;"/>
   </g>
   <g id="patch_106">
    <path clip-path="url(#p6749b2f7bb)" d="M 300.18816 9.3312 
L 308.6208 9.3312 
L 308.6208 9.3312 
L 300.18816 9.3312 
z
" style="fill:#f0027f;"/>
   </g>
   <g id="patch_107">
    <path clip-path="url(#p6749b2f7bb)" d="M 310.72896 276.48 
L 319.1616 276.48 
L 319.1616 276.48 
L 310.72896 276.48 
z
" style="fill:#f0027f;"/>
   </g>
   <g id="patch_108">
    <path clip-path="url(#p6749b2f7bb)" d="M 321.26976 244.24638 
L 329.7024 244.24638 
L 329.7024 244.24638 
L 321.26976 244.24638 
z
" style="fill:#f0027f;"/>
   </g>
   <g id="patch_109">
    <path clip-path="url(#p6749b2f7bb)" d="M 331.81056 274.359771 
L 340.2432 274.359771 
L 340.2432 274.359771 
L 331.81056 274.359771 
z
" style="fill:#f0027f;"/>
   </g>
   <g id="patch_110">
    <path clip-path="url(#p6749b2f7bb)" d="M 342.35136 276.48 
L 350.784 276.48 
L 350.784 276.48 
L 342.35136 276.48 
z
" style="fill:#f0027f;"/>
   </g>
   <g id="patch_111">
    <path clip-path="url(#p6749b2f7bb)" d="M 352.89216 276.48 
L 361.3248 276.48 
L 361.3248 276.48 
L 352.89216 276.48 
z
" style="fill:#f0027f;"/>
   </g>
   <g id="patch_112">
    <path clip-path="url(#p6749b2f7bb)" d="M 363.43296 263.14407 
L 371.8656 263.14407 
L 371.8656 263.14407 
L 363.43296 263.14407 
z
" style="fill:#f0027f;"/>
   </g>
   <g id="patch_113">
    <path clip-path="url(#p6749b2f7bb)" d="M 373.97376 276.48 
L 382.4064 276.48 
L 382.4064 276.48 
L 373.97376 276.48 
z
" style="fill:#f0027f;"/>
   </g>
   <g id="patch_114">
    <path clip-path="url(#p6749b2f7bb)" d="M 384.51456 256.168825 
L 392.9472 256.168825 
L 392.9472 256.168825 
L 384.51456 256.168825 
z
" style="fill:#f0027f;"/>
   </g>
   <g id="patch_115">
    <path clip-path="url(#p6749b2f7bb)" d="M 395.05536 276.48 
L 403.488 276.48 
L 403.488 276.48 
L 395.05536 276.48 
z
" style="fill:#f0027f;"/>
   </g>
   <g id="patch_116">
    <path clip-path="url(#p6749b2f7bb)" d="M 405.59616 275.803985 
L 414.0288 275.803985 
L 414.0288 275.803985 
L 405.59616 275.803985 
z
" style="fill:#f0027f;"/>
   </g>
   <g id="patch_117">
    <path clip-path="url(#p6749b2f7bb)" d="M 416.13696 275.988353 
L 424.5696 275.988353 
L 424.5696 275.988353 
L 416.13696 275.988353 
z
" style="fill:#f0027f;"/>
   </g>
   <g id="patch_118">
    <path clip-path="url(#p6749b2f7bb)" d="M 426.67776 276.48 
L 435.1104 276.48 
L 435.1104 276.48 
L 426.67776 276.48 
z
" style="fill:#f0027f;"/>
   </g>
   <g id="patch_119">
    <path clip-path="url(#p6749b2f7bb)" d="M 437.21856 276.111265 
L 445.6512 276.111265 
L 445.6512 276.111265 
L 437.21856 276.111265 
z
" style="fill:#f0027f;"/>
   </g>
   <g id="patch_120">
    <path clip-path="url(#p6749b2f7bb)" d="M 36.66816 243.04799 
L 45.1008 243.04799 
L 45.1008 223.627925 
L 36.66816 223.627925 
z
" style="fill:#386cb0;"/>
   </g>
   <g id="patch_121">
    <path clip-path="url(#p6749b2f7bb)" d="M 47.20896 276.48 
L 55.6416 276.48 
L 55.6416 276.387816 
L 47.20896 276.387816 
z
" style="fill:#386cb0;"/>
   </g>
   <g id="patch_122">
    <path clip-path="url(#p6749b2f7bb)" d="M 57.74976 222.828999 
L 66.1824 222.828999 
L 66.1824 182.083737 
L 57.74976 182.083737 
z
" style="fill:#386cb0;"/>
   </g>
   <g id="patch_123">
    <path clip-path="url(#p6749b2f7bb)" d="M 68.29056 276.48 
L 76.7232 276.48 
L 76.7232 276.32636 
L 68.29056 276.32636 
z
" style="fill:#386cb0;"/>
   </g>
   <g id="patch_124">
    <path clip-path="url(#p6749b2f7bb)" d="M 78.83136 256.752656 
L 87.264 256.752656 
L 87.264 256.752656 
L 78.83136 256.752656 
z
" style="fill:#386cb0;"/>
   </g>
   <g id="patch_125">
    <path clip-path="url(#p6749b2f7bb)" d="M 89.37216 244.277108 
L 97.8048 244.277108 
L 97.8048 213.825709 
L 89.37216 213.825709 
z
" style="fill:#386cb0;"/>
   </g>
   <g id="patch_126">
    <path clip-path="url(#p6749b2f7bb)" d="M 99.91296 269.689123 
L 108.3456 269.689123 
L 108.3456 269.689123 
L 99.91296 269.689123 
z
" style="fill:#386cb0;"/>
   </g>
   <g id="patch_127">
    <path clip-path="url(#p6749b2f7bb)" d="M 110.45376 146.101307 
L 118.8864 146.101307 
L 118.8864 133.717943 
L 110.45376 133.717943 
z
" style="fill:#386cb0;"/>
   </g>
   <g id="patch_128">
    <path clip-path="url(#p6749b2f7bb)" d="M 120.99456 276.48 
L 129.4272 276.48 
L 129.4272 275.896169 
L 120.99456 275.896169 
z
" style="fill:#386cb0;"/>
   </g>
   <g id="patch_129">
    <path clip-path="url(#p6749b2f7bb)" d="M 131.53536 216.437585 
L 139.968 216.437585 
L 139.968 216.437585 
L 131.53536 216.437585 
z
" style="fill:#386cb0;"/>
   </g>
   <g id="patch_130">
    <path clip-path="url(#p6749b2f7bb)" d="M 142.07616 276.295632 
L 150.5088 276.295632 
L 150.5088 276.295632 
L 142.07616 276.295632 
z
" style="fill:#386cb0;"/>
   </g>
   <g id="patch_131">
    <path clip-path="url(#p6749b2f7bb)" d="M 152.61696 250.269058 
L 161.0496 250.269058 
L 161.0496 250.269058 
L 152.61696 250.269058 
z
" style="fill:#386cb0;"/>
   </g>
   <g id="patch_132">
    <path clip-path="url(#p6749b2f7bb)" d="M 163.15776 272.085903 
L 171.5904 272.085903 
L 171.5904 272.085903 
L 163.15776 272.085903 
z
" style="fill:#386cb0;"/>
   </g>
   <g id="patch_133">
    <path clip-path="url(#p6749b2f7bb)" d="M 173.69856 232.877039 
L 182.1312 232.877039 
L 182.1312 232.877039 
L 173.69856 232.877039 
z
" style="fill:#386cb0;"/>
   </g>
   <g id="patch_134">
    <path clip-path="url(#p6749b2f7bb)" d="M 184.23936 270.119314 
L 192.672 270.119314 
L 192.672 270.119314 
L 184.23936 270.119314 
z
" style="fill:#386cb0;"/>
   </g>
   <g id="patch_135">
    <path clip-path="url(#p6749b2f7bb)" d="M 194.78016 48.171329 
L 203.2128 48.171329 
L 203.2128 41.595548 
L 194.78016 41.595548 
z
" style="fill:#386cb0;"/>
   </g>
   <g id="patch_136">
    <path clip-path="url(#p6749b2f7bb)" d="M 205.32096 274.23686 
L 213.7536 274.23686 
L 213.7536 256.53756 
L 205.32096 256.53756 
z
" style="fill:#386cb0;"/>
   </g>
   <g id="patch_137">
    <path clip-path="url(#p6749b2f7bb)" d="M 215.86176 276.449272 
L 224.2944 276.449272 
L 224.2944 276.449272 
L 215.86176 276.449272 
z
" style="fill:#386cb0;"/>
   </g>
   <g id="patch_138">
    <path clip-path="url(#p6749b2f7bb)" d="M 226.40256 276.48 
L 234.8352 276.48 
L 234.8352 260.685834 
L 226.40256 260.685834 
z
" style="fill:#386cb0;"/>
   </g>
   <g id="patch_139">
    <path clip-path="url(#p6749b2f7bb)" d="M 236.94336 276.48 
L 245.376 276.48 
L 245.376 276.449272 
L 236.94336 276.449272 
z
" style="fill:#386cb0;"/>
   </g>
   <g id="patch_140">
    <path clip-path="url(#p6749b2f7bb)" d="M 247.48416 276.449272 
L 255.9168 276.449272 
L 255.9168 276.387816 
L 247.48416 276.387816 
z
" style="fill:#386cb0;"/>
   </g>
   <g id="patch_141">
    <path clip-path="url(#p6749b2f7bb)" d="M 258.02496 276.48 
L 266.4576 276.48 
L 266.4576 276.387816 
L 258.02496 276.387816 
z
" style="fill:#386cb0;"/>
   </g>
   <g id="patch_142">
    <path clip-path="url(#p6749b2f7bb)" d="M 268.56576 276.48 
L 276.9984 276.48 
L 276.9984 270.057858 
L 268.56576 270.057858 
z
" style="fill:#386cb0;"/>
   </g>
   <g id="patch_143">
    <path clip-path="url(#p6749b2f7bb)" d="M 279.10656 276.48 
L 287.5392 276.48 
L 287.5392 275.097242 
L 279.10656 275.097242 
z
" style="fill:#386cb0;"/>
   </g>
   <g id="patch_144">
    <path clip-path="url(#p6749b2f7bb)" d="M 289.64736 218.926549 
L 298.08 218.926549 
L 298.08 218.926549 
L 289.64736 218.926549 
z
" style="fill:#386cb0;"/>
   </g>
   <g id="patch_145">
    <path clip-path="url(#p6749b2f7bb)" d="M 300.18816 9.3312 
L 308.6208 9.3312 
L 308.6208 9.3312 
L 300.18816 9.3312 
z
" style="fill:#386cb0;"/>
   </g>
   <g id="patch_146">
    <path clip-path="url(#p6749b2f7bb)" d="M 310.72896 276.48 
L 319.1616 276.48 
L 319.1616 254.601699 
L 310.72896 254.601699 
z
" style="fill:#386cb0;"/>
   </g>
   <g id="patch_147">
    <path clip-path="url(#p6749b2f7bb)" d="M 321.26976 244.24638 
L 329.7024 244.24638 
L 329.7024 244.24638 
L 321.26976 244.24638 
z
" style="fill:#386cb0;"/>
   </g>
   <g id="patch_148">
    <path clip-path="url(#p6749b2f7bb)" d="M 331.81056 274.359771 
L 340.2432 274.359771 
L 340.2432 274.359771 
L 331.81056 274.359771 
z
" style="fill:#386cb0;"/>
   </g>
   <g id="patch_149">
    <path clip-path="url(#p6749b2f7bb)" d="M 342.35136 276.48 
L 350.784 276.48 
L 350.784 272.546822 
L 342.35136 272.546822 
z
" style="fill:#386cb0;"/>
   </g>
   <g id="patch_150">
    <path clip-path="url(#p6749b2f7bb)" d="M 352.89216 276.48 
L 361.3248 276.48 
L 361.3248 276.418544 
L 352.89216 276.418544 
z
" style="fill:#386cb0;"/>
   </g>
   <g id="patch_151">
    <path clip-path="url(#p6749b2f7bb)" d="M 363.43296 263.14407 
L 371.8656 263.14407 
L 371.8656 262.560239 
L 363.43296 262.560239 
z
" style="fill:#386cb0;"/>
   </g>
   <g id="patch_152">
    <path clip-path="url(#p6749b2f7bb)" d="M 373.97376 276.48 
L 382.4064 276.48 
L 382.4064 276.418544 
L 373.97376 276.418544 
z
" style="fill:#386cb0;"/>
   </g>
   <g id="patch_153">
    <path clip-path="url(#p6749b2f7bb)" d="M 384.51456 256.168825 
L 392.9472 256.168825 
L 392.9472 256.045913 
L 384.51456 256.045913 
z
" style="fill:#386cb0;"/>
   </g>
   <g id="patch_154">
    <path clip-path="url(#p6749b2f7bb)" d="M 395.05536 276.48 
L 403.488 276.48 
L 403.488 232.477575 
L 395.05536 232.477575 
z
" style="fill:#386cb0;"/>
   </g>
   <g id="patch_155">
    <path clip-path="url(#p6749b2f7bb)" d="M 405.59616 275.803985 
L 414.0288 275.803985 
L 414.0288 274.513411 
L 405.59616 274.513411 
z
" style="fill:#386cb0;"/>
   </g>
   <g id="patch_156">
    <path clip-path="url(#p6749b2f7bb)" d="M 416.13696 275.988353 
L 424.5696 275.988353 
L 424.5696 275.312338 
L 416.13696 275.312338 
z
" style="fill:#386cb0;"/>
   </g>
   <g id="patch_157">
    <path clip-path="url(#p6749b2f7bb)" d="M 426.67776 276.48 
L 435.1104 276.48 
L 435.1104 276.141993 
L 426.67776 276.141993 
z
" style="fill:#386cb0;"/>
   </g>
   <g id="patch_158">
    <path clip-path="url(#p6749b2f7bb)" d="M 437.21856 276.111265 
L 445.6512 276.111265 
L 445.6512 272.178087 
L 437.21856 272.178087 
z
" style="fill:#386cb0;"/>
   </g>
   <g id="matplotlib.axis_1">
    <g id="xtick_1">
     <g id="line2d_1">
      <defs>
       <path d="M 0 0 
L 0 3.5 
" id="mf510e1c132" style="stroke:#000000;stroke-width:0.8;"/>
      </defs>
      <g>
       <use style="stroke:#000000;stroke-width:0.8;" x="40.88448" xlink:href="#mf510e1c132" y="276.48"/>
      </g>
     </g>
     <g id="text_1">
      <!-- LYS_529 -->
      <defs>
       <path d="M 9.8125 72.90625 
L 19.671875 72.90625 
L 19.671875 8.296875 
L 55.171875 8.296875 
L 55.171875 0 
L 9.8125 0 
z
" id="DejaVuSans-4c"/>
       <path d="M -0.203125 72.90625 
L 10.40625 72.90625 
L 30.609375 42.921875 
L 50.6875 72.90625 
L 61.28125 72.90625 
L 35.5 34.71875 
L 35.5 0 
L 25.59375 0 
L 25.59375 34.71875 
z
" id="DejaVuSans-59"/>
       <path d="M 53.515625 70.515625 
L 53.515625 60.890625 
Q 47.90625 63.578125 42.921875 64.890625 
Q 37.9375 66.21875 33.296875 66.21875 
Q 25.25 66.21875 20.875 63.09375 
Q 16.5 59.96875 16.5 54.203125 
Q 16.5 49.359375 19.40625 46.890625 
Q 22.3125 44.4375 30.421875 42.921875 
L 36.375 41.703125 
Q 47.40625 39.59375 52.65625 34.296875 
Q 57.90625 29 57.90625 20.125 
Q 57.90625 9.515625 50.796875 4.046875 
Q 43.703125 -1.421875 29.984375 -1.421875 
Q 24.8125 -1.421875 18.96875 -0.25 
Q 13.140625 0.921875 6.890625 3.21875 
L 6.890625 13.375 
Q 12.890625 10.015625 18.65625 8.296875 
Q 24.421875 6.59375 29.984375 6.59375 
Q 38.421875 6.59375 43.015625 9.90625 
Q 47.609375 13.234375 47.609375 19.390625 
Q 47.609375 24.75 44.3125 27.78125 
Q 41.015625 30.8125 33.5 32.328125 
L 27.484375 33.5 
Q 16.453125 35.6875 11.515625 40.375 
Q 6.59375 45.0625 6.59375 53.421875 
Q 6.59375 63.09375 13.40625 68.65625 
Q 20.21875 74.21875 32.171875 74.21875 
Q 37.3125 74.21875 42.625 73.28125 
Q 47.953125 72.359375 53.515625 70.515625 
z
" id="DejaVuSans-53"/>
       <path d="M 50.984375 -16.609375 
L 50.984375 -23.578125 
L -0.984375 -23.578125 
L -0.984375 -16.609375 
z
" id="DejaVuSans-5f"/>
       <path d="M 10.796875 72.90625 
L 49.515625 72.90625 
L 49.515625 64.59375 
L 19.828125 64.59375 
L 19.828125 46.734375 
Q 21.96875 47.46875 24.109375 47.828125 
Q 26.265625 48.1875 28.421875 48.1875 
Q 40.625 48.1875 47.75 41.5 
Q 54.890625 34.8125 54.890625 23.390625 
Q 54.890625 11.625 47.5625 5.09375 
Q 40.234375 -1.421875 26.90625 -1.421875 
Q 22.3125 -1.421875 17.546875 -0.640625 
Q 12.796875 0.140625 7.71875 1.703125 
L 7.71875 11.625 
Q 12.109375 9.234375 16.796875 8.0625 
Q 21.484375 6.890625 26.703125 6.890625 
Q 35.15625 6.890625 40.078125 11.328125 
Q 45.015625 15.765625 45.015625 23.390625 
Q 45.015625 31 40.078125 35.4375 
Q 35.15625 39.890625 26.703125 39.890625 
Q 22.75 39.890625 18.8125 39.015625 
Q 14.890625 38.140625 10.796875 36.28125 
z
" id="DejaVuSans-35"/>
       <path d="M 19.1875 8.296875 
L 53.609375 8.296875 
L 53.609375 0 
L 7.328125 0 
L 7.328125 8.296875 
Q 12.9375 14.109375 22.625 23.890625 
Q 32.328125 33.6875 34.8125 36.53125 
Q 39.546875 41.84375 41.421875 45.53125 
Q 43.3125 49.21875 43.3125 52.78125 
Q 43.3125 58.59375 39.234375 62.25 
Q 35.15625 65.921875 28.609375 65.921875 
Q 23.96875 65.921875 18.8125 64.3125 
Q 13.671875 62.703125 7.8125 59.421875 
L 7.8125 69.390625 
Q 13.765625 71.78125 18.9375 73 
Q 24.125 74.21875 28.421875 74.21875 
Q 39.75 74.21875 46.484375 68.546875 
Q 53.21875 62.890625 53.21875 53.421875 
Q 53.21875 48.921875 51.53125 44.890625 
Q 49.859375 40.875 45.40625 35.40625 
Q 44.1875 33.984375 37.640625 27.21875 
Q 31.109375 20.453125 19.1875 8.296875 
z
" id="DejaVuSans-32"/>
       <path d="M 10.984375 1.515625 
L 10.984375 10.5 
Q 14.703125 8.734375 18.5 7.8125 
Q 22.3125 6.890625 25.984375 6.890625 
Q 35.75 6.890625 40.890625 13.453125 
Q 46.046875 20.015625 46.78125 33.40625 
Q 43.953125 29.203125 39.59375 26.953125 
Q 35.25 24.703125 29.984375 24.703125 
Q 19.046875 24.703125 12.671875 31.3125 
Q 6.296875 37.9375 6.296875 49.421875 
Q 6.296875 60.640625 12.9375 67.421875 
Q 19.578125 74.21875 30.609375 74.21875 
Q 43.265625 74.21875 49.921875 64.515625 
Q 56.59375 54.828125 56.59375 36.375 
Q 56.59375 19.140625 48.40625 8.859375 
Q 40.234375 -1.421875 26.421875 -1.421875 
Q 22.703125 -1.421875 18.890625 -0.6875 
Q 15.09375 0.046875 10.984375 1.515625 
z
M 30.609375 32.421875 
Q 37.25 32.421875 41.125 36.953125 
Q 45.015625 41.5 45.015625 49.421875 
Q 45.015625 57.28125 41.125 61.84375 
Q 37.25 66.40625 30.609375 66.40625 
Q 23.96875 66.40625 20.09375 61.84375 
Q 16.21875 57.28125 16.21875 49.421875 
Q 16.21875 41.5 20.09375 36.953125 
Q 23.96875 32.421875 30.609375 32.421875 
z
" id="DejaVuSans-39"/>
      </defs>
      <g transform="translate(20.461134 312.646611)rotate(-45)scale(0.0833 -0.0833)">
       <use xlink:href="#DejaVuSans-4c"/>
       <use x="55.509766" xlink:href="#DejaVuSans-59"/>
       <use x="116.59375" xlink:href="#DejaVuSans-53"/>
       <use x="180.070312" xlink:href="#DejaVuSans-5f"/>
       <use x="230.070312" xlink:href="#DejaVuSans-35"/>
       <use x="293.693359" xlink:href="#DejaVuSans-32"/>
       <use x="357.316406" xlink:href="#DejaVuSans-39"/>
      </g>
     </g>
    </g>
    <g id="xtick_2">
     <g id="line2d_2">
      <g>
       <use style="stroke:#000000;stroke-width:0.8;" x="51.42528" xlink:href="#mf510e1c132" y="276.48"/>
      </g>
     </g>
     <g id="text_2">
      <!-- GLN_530 -->
      <defs>
       <path d="M 59.515625 10.40625 
L 59.515625 29.984375 
L 43.40625 29.984375 
L 43.40625 38.09375 
L 69.28125 38.09375 
L 69.28125 6.78125 
Q 63.578125 2.734375 56.6875 0.65625 
Q 49.8125 -1.421875 42 -1.421875 
Q 24.90625 -1.421875 15.25 8.5625 
Q 5.609375 18.5625 5.609375 36.375 
Q 5.609375 54.25 15.25 64.234375 
Q 24.90625 74.21875 42 74.21875 
Q 49.125 74.21875 55.546875 72.453125 
Q 61.96875 70.703125 67.390625 67.28125 
L 67.390625 56.78125 
Q 61.921875 61.421875 55.765625 63.765625 
Q 49.609375 66.109375 42.828125 66.109375 
Q 29.4375 66.109375 22.71875 58.640625 
Q 16.015625 51.171875 16.015625 36.375 
Q 16.015625 21.625 22.71875 14.15625 
Q 29.4375 6.6875 42.828125 6.6875 
Q 48.046875 6.6875 52.140625 7.59375 
Q 56.25 8.5 59.515625 10.40625 
z
" id="DejaVuSans-47"/>
       <path d="M 9.8125 72.90625 
L 23.09375 72.90625 
L 55.421875 11.921875 
L 55.421875 72.90625 
L 64.984375 72.90625 
L 64.984375 0 
L 51.703125 0 
L 19.390625 60.984375 
L 19.390625 0 
L 9.8125 0 
z
" id="DejaVuSans-4e"/>
       <path d="M 40.578125 39.3125 
Q 47.65625 37.796875 51.625 33 
Q 55.609375 28.21875 55.609375 21.1875 
Q 55.609375 10.40625 48.1875 4.484375 
Q 40.765625 -1.421875 27.09375 -1.421875 
Q 22.515625 -1.421875 17.65625 -0.515625 
Q 12.796875 0.390625 7.625 2.203125 
L 7.625 11.71875 
Q 11.71875 9.328125 16.59375 8.109375 
Q 21.484375 6.890625 26.8125 6.890625 
Q 36.078125 6.890625 40.9375 10.546875 
Q 45.796875 14.203125 45.796875 21.1875 
Q 45.796875 27.640625 41.28125 31.265625 
Q 36.765625 34.90625 28.71875 34.90625 
L 20.21875 34.90625 
L 20.21875 43.015625 
L 29.109375 43.015625 
Q 36.375 43.015625 40.234375 45.921875 
Q 44.09375 48.828125 44.09375 54.296875 
Q 44.09375 59.90625 40.109375 62.90625 
Q 36.140625 65.921875 28.71875 65.921875 
Q 24.65625 65.921875 20.015625 65.03125 
Q 15.375 64.15625 9.8125 62.3125 
L 9.8125 71.09375 
Q 15.4375 72.65625 20.34375 73.4375 
Q 25.25 74.21875 29.59375 74.21875 
Q 40.828125 74.21875 47.359375 69.109375 
Q 53.90625 64.015625 53.90625 55.328125 
Q 53.90625 49.265625 50.4375 45.09375 
Q 46.96875 40.921875 40.578125 39.3125 
z
" id="DejaVuSans-33"/>
       <path d="M 31.78125 66.40625 
Q 24.171875 66.40625 20.328125 58.90625 
Q 16.5 51.421875 16.5 36.375 
Q 16.5 21.390625 20.328125 13.890625 
Q 24.171875 6.390625 31.78125 6.390625 
Q 39.453125 6.390625 43.28125 13.890625 
Q 47.125 21.390625 47.125 36.375 
Q 47.125 51.421875 43.28125 58.90625 
Q 39.453125 66.40625 31.78125 66.40625 
z
M 31.78125 74.21875 
Q 44.046875 74.21875 50.515625 64.515625 
Q 56.984375 54.828125 56.984375 36.375 
Q 56.984375 17.96875 50.515625 8.265625 
Q 44.046875 -1.421875 31.78125 -1.421875 
Q 19.53125 -1.421875 13.0625 8.265625 
Q 6.59375 17.96875 6.59375 36.375 
Q 6.59375 54.828125 13.0625 64.515625 
Q 19.53125 74.21875 31.78125 74.21875 
z
" id="DejaVuSans-30"/>
      </defs>
      <g transform="translate(29.356359 314.292186)rotate(-45)scale(0.0833 -0.0833)">
       <use xlink:href="#DejaVuSans-47"/>
       <use x="77.490234" xlink:href="#DejaVuSans-4c"/>
       <use x="133.203125" xlink:href="#DejaVuSans-4e"/>
       <use x="208.007812" xlink:href="#DejaVuSans-5f"/>
       <use x="258.007812" xlink:href="#DejaVuSans-35"/>
       <use x="321.630859" xlink:href="#DejaVuSans-33"/>
       <use x="385.253906" xlink:href="#DejaVuSans-30"/>
      </g>
     </g>
    </g>
    <g id="xtick_3">
     <g id="line2d_3">
      <g>
       <use style="stroke:#000000;stroke-width:0.8;" x="61.96608" xlink:href="#mf510e1c132" y="276.48"/>
      </g>
     </g>
     <g id="text_3">
      <!-- ILE_531 -->
      <defs>
       <path d="M 9.8125 72.90625 
L 19.671875 72.90625 
L 19.671875 0 
L 9.8125 0 
z
" id="DejaVuSans-49"/>
       <path d="M 9.8125 72.90625 
L 55.90625 72.90625 
L 55.90625 64.59375 
L 19.671875 64.59375 
L 19.671875 43.015625 
L 54.390625 43.015625 
L 54.390625 34.71875 
L 19.671875 34.71875 
L 19.671875 8.296875 
L 56.78125 8.296875 
L 56.78125 0 
L 9.8125 0 
z
" id="DejaVuSans-45"/>
       <path d="M 12.40625 8.296875 
L 28.515625 8.296875 
L 28.515625 63.921875 
L 10.984375 60.40625 
L 10.984375 69.390625 
L 28.421875 72.90625 
L 38.28125 72.90625 
L 38.28125 8.296875 
L 54.390625 8.296875 
L 54.390625 0 
L 12.40625 0 
z
" id="DejaVuSans-31"/>
      </defs>
      <g transform="translate(43.40827 310.781075)rotate(-45)scale(0.0833 -0.0833)">
       <use xlink:href="#DejaVuSans-49"/>
       <use x="29.492188" xlink:href="#DejaVuSans-4c"/>
       <use x="85.205078" xlink:href="#DejaVuSans-45"/>
       <use x="148.388672" xlink:href="#DejaVuSans-5f"/>
       <use x="198.388672" xlink:href="#DejaVuSans-35"/>
       <use x="262.011719" xlink:href="#DejaVuSans-33"/>
       <use x="325.634766" xlink:href="#DejaVuSans-31"/>
      </g>
     </g>
    </g>
    <g id="xtick_4">
     <g id="line2d_4">
      <g>
       <use style="stroke:#000000;stroke-width:0.8;" x="72.50688" xlink:href="#mf510e1c132" y="276.48"/>
      </g>
     </g>
     <g id="text_4">
      <!-- SER_533 -->
      <defs>
       <path d="M 44.390625 34.1875 
Q 47.5625 33.109375 50.5625 29.59375 
Q 53.5625 26.078125 56.59375 19.921875 
L 66.609375 0 
L 56 0 
L 46.6875 18.703125 
Q 43.0625 26.03125 39.671875 28.421875 
Q 36.28125 30.8125 30.421875 30.8125 
L 19.671875 30.8125 
L 19.671875 0 
L 9.8125 0 
L 9.8125 72.90625 
L 32.078125 72.90625 
Q 44.578125 72.90625 50.734375 67.671875 
Q 56.890625 62.453125 56.890625 51.90625 
Q 56.890625 45.015625 53.6875 40.46875 
Q 50.484375 35.9375 44.390625 34.1875 
z
M 19.671875 64.796875 
L 19.671875 38.921875 
L 32.078125 38.921875 
Q 39.203125 38.921875 42.84375 42.21875 
Q 46.484375 45.515625 46.484375 51.90625 
Q 46.484375 58.296875 42.84375 61.546875 
Q 39.203125 64.796875 32.078125 64.796875 
z
" id="DejaVuSans-52"/>
      </defs>
      <g transform="translate(51.1365 313.593645)rotate(-45)scale(0.0833 -0.0833)">
       <use xlink:href="#DejaVuSans-53"/>
       <use x="63.476562" xlink:href="#DejaVuSans-45"/>
       <use x="126.660156" xlink:href="#DejaVuSans-52"/>
       <use x="196.142578" xlink:href="#DejaVuSans-5f"/>
       <use x="246.142578" xlink:href="#DejaVuSans-35"/>
       <use x="309.765625" xlink:href="#DejaVuSans-33"/>
       <use x="373.388672" xlink:href="#DejaVuSans-33"/>
      </g>
     </g>
    </g>
    <g id="xtick_5">
     <g id="line2d_5">
      <g>
       <use style="stroke:#000000;stroke-width:0.8;" x="83.04768" xlink:href="#mf510e1c132" y="276.48"/>
      </g>
     </g>
     <g id="text_5">
      <!-- VAL_539 -->
      <defs>
       <path d="M 28.609375 0 
L 0.78125 72.90625 
L 11.078125 72.90625 
L 34.1875 11.53125 
L 57.328125 72.90625 
L 67.578125 72.90625 
L 39.796875 0 
z
" id="DejaVuSans-56"/>
       <path d="M 34.1875 63.1875 
L 20.796875 26.90625 
L 47.609375 26.90625 
z
M 28.609375 72.90625 
L 39.796875 72.90625 
L 67.578125 0 
L 57.328125 0 
L 50.6875 18.703125 
L 17.828125 18.703125 
L 11.1875 0 
L 0.78125 0 
z
" id="DejaVuSans-41"/>
      </defs>
      <g transform="translate(61.896342 313.374603)rotate(-45)scale(0.0833 -0.0833)">
       <use xlink:href="#DejaVuSans-56"/>
       <use x="68.314453" xlink:href="#DejaVuSans-41"/>
       <use x="136.722656" xlink:href="#DejaVuSans-4c"/>
       <use x="192.435547" xlink:href="#DejaVuSans-5f"/>
       <use x="242.435547" xlink:href="#DejaVuSans-35"/>
       <use x="306.058594" xlink:href="#DejaVuSans-33"/>
       <use x="369.681641" xlink:href="#DejaVuSans-39"/>
      </g>
     </g>
    </g>
    <g id="xtick_6">
     <g id="line2d_6">
      <g>
       <use style="stroke:#000000;stroke-width:0.8;" x="93.58848" xlink:href="#mf510e1c132" y="276.48"/>
      </g>
     </g>
     <g id="text_6">
      <!-- GLN_541 -->
      <defs>
       <path d="M 37.796875 64.3125 
L 12.890625 25.390625 
L 37.796875 25.390625 
z
M 35.203125 72.90625 
L 47.609375 72.90625 
L 47.609375 25.390625 
L 58.015625 25.390625 
L 58.015625 17.1875 
L 47.609375 17.1875 
L 47.609375 0 
L 37.796875 0 
L 37.796875 17.1875 
L 4.890625 17.1875 
L 4.890625 26.703125 
z
" id="DejaVuSans-34"/>
      </defs>
      <g transform="translate(71.519559 314.292186)rotate(-45)scale(0.0833 -0.0833)">
       <use xlink:href="#DejaVuSans-47"/>
       <use x="77.490234" xlink:href="#DejaVuSans-4c"/>
       <use x="133.203125" xlink:href="#DejaVuSans-4e"/>
       <use x="208.007812" xlink:href="#DejaVuSans-5f"/>
       <use x="258.007812" xlink:href="#DejaVuSans-35"/>
       <use x="321.630859" xlink:href="#DejaVuSans-34"/>
       <use x="385.253906" xlink:href="#DejaVuSans-31"/>
      </g>
     </g>
    </g>
    <g id="xtick_7">
     <g id="line2d_7">
      <g>
       <use style="stroke:#000000;stroke-width:0.8;" x="104.12928" xlink:href="#mf510e1c132" y="276.48"/>
      </g>
     </g>
     <g id="text_7">
      <!-- ALA_551 -->
      <g transform="translate(82.910757 313.322143)rotate(-45)scale(0.0833 -0.0833)">
       <use xlink:href="#DejaVuSans-41"/>
       <use x="68.408203" xlink:href="#DejaVuSans-4c"/>
       <use x="124.152344" xlink:href="#DejaVuSans-41"/>
       <use x="192.560547" xlink:href="#DejaVuSans-5f"/>
       <use x="242.560547" xlink:href="#DejaVuSans-35"/>
       <use x="306.183594" xlink:href="#DejaVuSans-35"/>
       <use x="369.806641" xlink:href="#DejaVuSans-31"/>
      </g>
     </g>
    </g>
    <g id="xtick_8">
     <g id="line2d_8">
      <g>
       <use style="stroke:#000000;stroke-width:0.8;" x="114.67008" xlink:href="#mf510e1c132" y="276.48"/>
      </g>
     </g>
     <g id="text_8">
      <!-- LYS_553 -->
      <g transform="translate(94.246734 312.646611)rotate(-45)scale(0.0833 -0.0833)">
       <use xlink:href="#DejaVuSans-4c"/>
       <use x="55.509766" xlink:href="#DejaVuSans-59"/>
       <use x="116.59375" xlink:href="#DejaVuSans-53"/>
       <use x="180.070312" xlink:href="#DejaVuSans-5f"/>
       <use x="230.070312" xlink:href="#DejaVuSans-35"/>
       <use x="293.693359" xlink:href="#DejaVuSans-35"/>
       <use x="357.316406" xlink:href="#DejaVuSans-33"/>
      </g>
     </g>
    </g>
    <g id="xtick_9">
     <g id="line2d_9">
      <g>
       <use style="stroke:#000000;stroke-width:0.8;" x="125.21088" xlink:href="#mf510e1c132" y="276.48"/>
      </g>
     </g>
     <g id="text_9">
      <!-- GLU_571 -->
      <defs>
       <path d="M 8.6875 72.90625 
L 18.609375 72.90625 
L 18.609375 28.609375 
Q 18.609375 16.890625 22.84375 11.734375 
Q 27.09375 6.59375 36.625 6.59375 
Q 46.09375 6.59375 50.34375 11.734375 
Q 54.59375 16.890625 54.59375 28.609375 
L 54.59375 72.90625 
L 64.5 72.90625 
L 64.5 27.390625 
Q 64.5 13.140625 57.4375 5.859375 
Q 50.390625 -1.421875 36.625 -1.421875 
Q 22.796875 -1.421875 15.734375 5.859375 
Q 8.6875 13.140625 8.6875 27.390625 
z
" id="DejaVuSans-55"/>
       <path d="M 8.203125 72.90625 
L 55.078125 72.90625 
L 55.078125 68.703125 
L 28.609375 0 
L 18.3125 0 
L 43.21875 64.59375 
L 8.203125 64.59375 
z
" id="DejaVuSans-37"/>
      </defs>
      <g transform="translate(103.242277 314.191868)rotate(-45)scale(0.0833 -0.0833)">
       <use xlink:href="#DejaVuSans-47"/>
       <use x="77.490234" xlink:href="#DejaVuSans-4c"/>
       <use x="133.125" xlink:href="#DejaVuSans-55"/>
       <use x="206.318359" xlink:href="#DejaVuSans-5f"/>
       <use x="256.318359" xlink:href="#DejaVuSans-35"/>
       <use x="319.941406" xlink:href="#DejaVuSans-37"/>
       <use x="383.564453" xlink:href="#DejaVuSans-31"/>
      </g>
     </g>
    </g>
    <g id="xtick_10">
     <g id="line2d_10">
      <g>
       <use style="stroke:#000000;stroke-width:0.8;" x="135.75168" xlink:href="#mf510e1c132" y="276.48"/>
      </g>
     </g>
     <g id="text_10">
      <!-- LEU_575 -->
      <g transform="translate(114.560767 313.294533)rotate(-45)scale(0.0833 -0.0833)">
       <use xlink:href="#DejaVuSans-4c"/>
       <use x="55.712891" xlink:href="#DejaVuSans-45"/>
       <use x="118.896484" xlink:href="#DejaVuSans-55"/>
       <use x="192.089844" xlink:href="#DejaVuSans-5f"/>
       <use x="242.089844" xlink:href="#DejaVuSans-35"/>
       <use x="305.712891" xlink:href="#DejaVuSans-37"/>
       <use x="369.335938" xlink:href="#DejaVuSans-35"/>
      </g>
     </g>
    </g>
    <g id="xtick_11">
     <g id="line2d_11">
      <g>
       <use style="stroke:#000000;stroke-width:0.8;" x="146.29248" xlink:href="#mf510e1c132" y="276.48"/>
      </g>
     </g>
     <g id="text_11">
      <!-- ILE_585 -->
      <defs>
       <path d="M 31.78125 34.625 
Q 24.75 34.625 20.71875 30.859375 
Q 16.703125 27.09375 16.703125 20.515625 
Q 16.703125 13.921875 20.71875 10.15625 
Q 24.75 6.390625 31.78125 6.390625 
Q 38.8125 6.390625 42.859375 10.171875 
Q 46.921875 13.96875 46.921875 20.515625 
Q 46.921875 27.09375 42.890625 30.859375 
Q 38.875 34.625 31.78125 34.625 
z
M 21.921875 38.8125 
Q 15.578125 40.375 12.03125 44.71875 
Q 8.5 49.078125 8.5 55.328125 
Q 8.5 64.0625 14.71875 69.140625 
Q 20.953125 74.21875 31.78125 74.21875 
Q 42.671875 74.21875 48.875 69.140625 
Q 55.078125 64.0625 55.078125 55.328125 
Q 55.078125 49.078125 51.53125 44.71875 
Q 48 40.375 41.703125 38.8125 
Q 48.828125 37.15625 52.796875 32.3125 
Q 56.78125 27.484375 56.78125 20.515625 
Q 56.78125 9.90625 50.3125 4.234375 
Q 43.84375 -1.421875 31.78125 -1.421875 
Q 19.734375 -1.421875 13.25 4.234375 
Q 6.78125 9.90625 6.78125 20.515625 
Q 6.78125 27.484375 10.78125 32.3125 
Q 14.796875 37.15625 21.921875 38.8125 
z
M 18.3125 54.390625 
Q 18.3125 48.734375 21.84375 45.5625 
Q 25.390625 42.390625 31.78125 42.390625 
Q 38.140625 42.390625 41.71875 45.5625 
Q 45.3125 48.734375 45.3125 54.390625 
Q 45.3125 60.0625 41.71875 63.234375 
Q 38.140625 66.40625 31.78125 66.40625 
Q 25.390625 66.40625 21.84375 63.234375 
Q 18.3125 60.0625 18.3125 54.390625 
z
" id="DejaVuSans-38"/>
      </defs>
      <g transform="translate(127.73467 310.781075)rotate(-45)scale(0.0833 -0.0833)">
       <use xlink:href="#DejaVuSans-49"/>
       <use x="29.492188" xlink:href="#DejaVuSans-4c"/>
       <use x="85.205078" xlink:href="#DejaVuSans-45"/>
       <use x="148.388672" xlink:href="#DejaVuSans-5f"/>
       <use x="198.388672" xlink:href="#DejaVuSans-35"/>
       <use x="262.011719" xlink:href="#DejaVuSans-38"/>
       <use x="325.634766" xlink:href="#DejaVuSans-35"/>
      </g>
     </g>
    </g>
    <g id="xtick_12">
     <g id="line2d_12">
      <g>
       <use style="stroke:#000000;stroke-width:0.8;" x="156.83328" xlink:href="#mf510e1c132" y="276.48"/>
      </g>
     </g>
     <g id="text_12">
      <!-- ILE_586 -->
      <defs>
       <path d="M 33.015625 40.375 
Q 26.375 40.375 22.484375 35.828125 
Q 18.609375 31.296875 18.609375 23.390625 
Q 18.609375 15.53125 22.484375 10.953125 
Q 26.375 6.390625 33.015625 6.390625 
Q 39.65625 6.390625 43.53125 10.953125 
Q 47.40625 15.53125 47.40625 23.390625 
Q 47.40625 31.296875 43.53125 35.828125 
Q 39.65625 40.375 33.015625 40.375 
z
M 52.59375 71.296875 
L 52.59375 62.3125 
Q 48.875 64.0625 45.09375 64.984375 
Q 41.3125 65.921875 37.59375 65.921875 
Q 27.828125 65.921875 22.671875 59.328125 
Q 17.53125 52.734375 16.796875 39.40625 
Q 19.671875 43.65625 24.015625 45.921875 
Q 28.375 48.1875 33.59375 48.1875 
Q 44.578125 48.1875 50.953125 41.515625 
Q 57.328125 34.859375 57.328125 23.390625 
Q 57.328125 12.15625 50.6875 5.359375 
Q 44.046875 -1.421875 33.015625 -1.421875 
Q 20.359375 -1.421875 13.671875 8.265625 
Q 6.984375 17.96875 6.984375 36.375 
Q 6.984375 53.65625 15.1875 63.9375 
Q 23.390625 74.21875 37.203125 74.21875 
Q 40.921875 74.21875 44.703125 73.484375 
Q 48.484375 72.75 52.59375 71.296875 
z
" id="DejaVuSans-36"/>
      </defs>
      <g transform="translate(138.27547 310.781075)rotate(-45)scale(0.0833 -0.0833)">
       <use xlink:href="#DejaVuSans-49"/>
       <use x="29.492188" xlink:href="#DejaVuSans-4c"/>
       <use x="85.205078" xlink:href="#DejaVuSans-45"/>
       <use x="148.388672" xlink:href="#DejaVuSans-5f"/>
       <use x="198.388672" xlink:href="#DejaVuSans-35"/>
       <use x="262.011719" xlink:href="#DejaVuSans-38"/>
       <use x="325.634766" xlink:href="#DejaVuSans-36"/>
      </g>
     </g>
    </g>
    <g id="xtick_13">
     <g id="line2d_13">
      <g>
       <use style="stroke:#000000;stroke-width:0.8;" x="167.37408" xlink:href="#mf510e1c132" y="276.48"/>
      </g>
     </g>
     <g id="text_13">
      <!-- MET_600 -->
      <defs>
       <path d="M 9.8125 72.90625 
L 24.515625 72.90625 
L 43.109375 23.296875 
L 61.8125 72.90625 
L 76.515625 72.90625 
L 76.515625 0 
L 66.890625 0 
L 66.890625 64.015625 
L 48.09375 14.015625 
L 38.1875 14.015625 
L 19.390625 64.015625 
L 19.390625 0 
L 9.8125 0 
z
" id="DejaVuSans-4d"/>
       <path d="M -0.296875 72.90625 
L 61.375 72.90625 
L 61.375 64.59375 
L 35.5 64.59375 
L 35.5 0 
L 25.59375 0 
L 25.59375 64.59375 
L -0.296875 64.59375 
z
" id="DejaVuSans-54"/>
      </defs>
      <g transform="translate(145.156063 314.441281)rotate(-45)scale(0.0833 -0.0833)">
       <use xlink:href="#DejaVuSans-4d"/>
       <use x="86.279297" xlink:href="#DejaVuSans-45"/>
       <use x="149.462891" xlink:href="#DejaVuSans-54"/>
       <use x="210.546875" xlink:href="#DejaVuSans-5f"/>
       <use x="260.546875" xlink:href="#DejaVuSans-36"/>
       <use x="324.169922" xlink:href="#DejaVuSans-30"/>
       <use x="387.792969" xlink:href="#DejaVuSans-30"/>
      </g>
     </g>
    </g>
    <g id="xtick_14">
     <g id="line2d_14">
      <g>
       <use style="stroke:#000000;stroke-width:0.8;" x="177.91488" xlink:href="#mf510e1c132" y="276.48"/>
      </g>
     </g>
     <g id="text_14">
      <!-- MET_602 -->
      <g transform="translate(155.696863 314.441281)rotate(-45)scale(0.0833 -0.0833)">
       <use xlink:href="#DejaVuSans-4d"/>
       <use x="86.279297" xlink:href="#DejaVuSans-45"/>
       <use x="149.462891" xlink:href="#DejaVuSans-54"/>
       <use x="210.546875" xlink:href="#DejaVuSans-5f"/>
       <use x="260.546875" xlink:href="#DejaVuSans-36"/>
       <use x="324.169922" xlink:href="#DejaVuSans-30"/>
       <use x="387.792969" xlink:href="#DejaVuSans-32"/>
      </g>
     </g>
    </g>
    <g id="xtick_15">
     <g id="line2d_15">
      <g>
       <use style="stroke:#000000;stroke-width:0.8;" x="188.45568" xlink:href="#mf510e1c132" y="276.48"/>
      </g>
     </g>
     <g id="text_15">
      <!-- CYS_604 -->
      <defs>
       <path d="M 64.40625 67.28125 
L 64.40625 56.890625 
Q 59.421875 61.53125 53.78125 63.8125 
Q 48.140625 66.109375 41.796875 66.109375 
Q 29.296875 66.109375 22.65625 58.46875 
Q 16.015625 50.828125 16.015625 36.375 
Q 16.015625 21.96875 22.65625 14.328125 
Q 29.296875 6.6875 41.796875 6.6875 
Q 48.140625 6.6875 53.78125 8.984375 
Q 59.421875 11.28125 64.40625 15.921875 
L 64.40625 5.609375 
Q 59.234375 2.09375 53.4375 0.328125 
Q 47.65625 -1.421875 41.21875 -1.421875 
Q 24.65625 -1.421875 15.125 8.703125 
Q 5.609375 18.84375 5.609375 36.375 
Q 5.609375 53.953125 15.125 64.078125 
Q 24.65625 74.21875 41.21875 74.21875 
Q 47.75 74.21875 53.53125 72.484375 
Q 59.328125 70.75 64.40625 67.28125 
z
" id="DejaVuSans-43"/>
      </defs>
      <g transform="translate(167.190219 313.488726)rotate(-45)scale(0.0833 -0.0833)">
       <use xlink:href="#DejaVuSans-43"/>
       <use x="69.808594" xlink:href="#DejaVuSans-59"/>
       <use x="130.892578" xlink:href="#DejaVuSans-53"/>
       <use x="194.369141" xlink:href="#DejaVuSans-5f"/>
       <use x="244.369141" xlink:href="#DejaVuSans-36"/>
       <use x="307.992188" xlink:href="#DejaVuSans-30"/>
       <use x="371.615234" xlink:href="#DejaVuSans-34"/>
      </g>
     </g>
    </g>
    <g id="xtick_16">
     <g id="line2d_16">
      <g>
       <use style="stroke:#000000;stroke-width:0.8;" x="198.99648" xlink:href="#mf510e1c132" y="276.48"/>
      </g>
     </g>
     <g id="text_16">
      <!-- GLY_605 -->
      <g transform="translate(177.748506 313.471239)rotate(-45)scale(0.0833 -0.0833)">
       <use xlink:href="#DejaVuSans-47"/>
       <use x="77.490234" xlink:href="#DejaVuSans-4c"/>
       <use x="133" xlink:href="#DejaVuSans-59"/>
       <use x="194.083984" xlink:href="#DejaVuSans-5f"/>
       <use x="244.083984" xlink:href="#DejaVuSans-36"/>
       <use x="307.707031" xlink:href="#DejaVuSans-30"/>
       <use x="371.330078" xlink:href="#DejaVuSans-35"/>
      </g>
     </g>
    </g>
    <g id="xtick_17">
     <g id="line2d_17">
      <g>
       <use style="stroke:#000000;stroke-width:0.8;" x="209.53728" xlink:href="#mf510e1c132" y="276.48"/>
      </g>
     </g>
     <g id="text_17">
      <!-- ASN_606 -->
      <g transform="translate(187.545668 314.214877)rotate(-45)scale(0.0833 -0.0833)">
       <use xlink:href="#DejaVuSans-41"/>
       <use x="68.408203" xlink:href="#DejaVuSans-53"/>
       <use x="131.884766" xlink:href="#DejaVuSans-4e"/>
       <use x="206.689453" xlink:href="#DejaVuSans-5f"/>
       <use x="256.689453" xlink:href="#DejaVuSans-36"/>
       <use x="320.3125" xlink:href="#DejaVuSans-30"/>
       <use x="383.935547" xlink:href="#DejaVuSans-36"/>
      </g>
     </g>
    </g>
    <g id="xtick_18">
     <g id="line2d_18">
      <g>
       <use style="stroke:#000000;stroke-width:0.8;" x="220.07808" xlink:href="#mf510e1c132" y="276.48"/>
      </g>
     </g>
     <g id="text_18">
      <!-- ILE_607 -->
      <g transform="translate(201.52027 310.781075)rotate(-45)scale(0.0833 -0.0833)">
       <use xlink:href="#DejaVuSans-49"/>
       <use x="29.492188" xlink:href="#DejaVuSans-4c"/>
       <use x="85.205078" xlink:href="#DejaVuSans-45"/>
       <use x="148.388672" xlink:href="#DejaVuSans-5f"/>
       <use x="198.388672" xlink:href="#DejaVuSans-36"/>
       <use x="262.011719" xlink:href="#DejaVuSans-30"/>
       <use x="325.634766" xlink:href="#DejaVuSans-37"/>
      </g>
     </g>
    </g>
    <g id="xtick_19">
     <g id="line2d_19">
      <g>
       <use style="stroke:#000000;stroke-width:0.8;" x="230.61888" xlink:href="#mf510e1c132" y="276.48"/>
      </g>
     </g>
     <g id="text_19">
      <!-- ASP_608 -->
      <defs>
       <path d="M 19.671875 64.796875 
L 19.671875 37.40625 
L 32.078125 37.40625 
Q 38.96875 37.40625 42.71875 40.96875 
Q 46.484375 44.53125 46.484375 51.125 
Q 46.484375 57.671875 42.71875 61.234375 
Q 38.96875 64.796875 32.078125 64.796875 
z
M 9.8125 72.90625 
L 32.078125 72.90625 
Q 44.34375 72.90625 50.609375 67.359375 
Q 56.890625 61.8125 56.890625 51.125 
Q 56.890625 40.328125 50.609375 34.8125 
Q 44.34375 29.296875 32.078125 29.296875 
L 19.671875 29.296875 
L 19.671875 0 
L 9.8125 0 
z
" id="DejaVuSans-50"/>
      </defs>
      <g transform="translate(209.482267 313.359878)rotate(-45)scale(0.0833 -0.0833)">
       <use xlink:href="#DejaVuSans-41"/>
       <use x="68.408203" xlink:href="#DejaVuSans-53"/>
       <use x="131.884766" xlink:href="#DejaVuSans-50"/>
       <use x="192.1875" xlink:href="#DejaVuSans-5f"/>
       <use x="242.1875" xlink:href="#DejaVuSans-36"/>
       <use x="305.810547" xlink:href="#DejaVuSans-30"/>
       <use x="369.433594" xlink:href="#DejaVuSans-38"/>
      </g>
     </g>
    </g>
    <g id="xtick_20">
     <g id="line2d_20">
      <g>
       <use style="stroke:#000000;stroke-width:0.8;" x="241.15968" xlink:href="#mf510e1c132" y="276.48"/>
      </g>
     </g>
     <g id="text_20">
      <!-- ASN_610 -->
      <g transform="translate(219.168068 314.214877)rotate(-45)scale(0.0833 -0.0833)">
       <use xlink:href="#DejaVuSans-41"/>
       <use x="68.408203" xlink:href="#DejaVuSans-53"/>
       <use x="131.884766" xlink:href="#DejaVuSans-4e"/>
       <use x="206.689453" xlink:href="#DejaVuSans-5f"/>
       <use x="256.689453" xlink:href="#DejaVuSans-36"/>
       <use x="320.3125" xlink:href="#DejaVuSans-31"/>
       <use x="383.935547" xlink:href="#DejaVuSans-30"/>
      </g>
     </g>
    </g>
    <g id="xtick_21">
     <g id="line2d_21">
      <g>
       <use style="stroke:#000000;stroke-width:0.8;" x="251.70048" xlink:href="#mf510e1c132" y="276.48"/>
      </g>
     </g>
     <g id="text_21">
      <!-- SER_611 -->
      <g transform="translate(230.3301 313.593645)rotate(-45)scale(0.0833 -0.0833)">
       <use xlink:href="#DejaVuSans-53"/>
       <use x="63.476562" xlink:href="#DejaVuSans-45"/>
       <use x="126.660156" xlink:href="#DejaVuSans-52"/>
       <use x="196.142578" xlink:href="#DejaVuSans-5f"/>
       <use x="246.142578" xlink:href="#DejaVuSans-36"/>
       <use x="309.765625" xlink:href="#DejaVuSans-31"/>
       <use x="373.388672" xlink:href="#DejaVuSans-31"/>
      </g>
     </g>
    </g>
    <g id="xtick_22">
     <g id="line2d_22">
      <g>
       <use style="stroke:#000000;stroke-width:0.8;" x="262.24128" xlink:href="#mf510e1c132" y="276.48"/>
      </g>
     </g>
     <g id="text_22">
      <!-- LYS_649 -->
      <g transform="translate(241.817934 312.646611)rotate(-45)scale(0.0833 -0.0833)">
       <use xlink:href="#DejaVuSans-4c"/>
       <use x="55.509766" xlink:href="#DejaVuSans-59"/>
       <use x="116.59375" xlink:href="#DejaVuSans-53"/>
       <use x="180.070312" xlink:href="#DejaVuSans-5f"/>
       <use x="230.070312" xlink:href="#DejaVuSans-36"/>
       <use x="293.693359" xlink:href="#DejaVuSans-34"/>
       <use x="357.316406" xlink:href="#DejaVuSans-39"/>
      </g>
     </g>
    </g>
    <g id="xtick_23">
     <g id="line2d_23">
      <g>
       <use style="stroke:#000000;stroke-width:0.8;" x="272.78208" xlink:href="#mf510e1c132" y="276.48"/>
      </g>
     </g>
     <g id="text_23">
      <!-- ALA_651 -->
      <g transform="translate(251.623379 313.381966)rotate(-45)scale(0.0833 -0.0833)">
       <use xlink:href="#DejaVuSans-41"/>
       <use x="68.408203" xlink:href="#DejaVuSans-4c"/>
       <use x="124.152344" xlink:href="#DejaVuSans-41"/>
       <use x="192.560547" xlink:href="#DejaVuSans-5f"/>
       <use x="242.560547" xlink:href="#DejaVuSans-36"/>
       <use x="306.183594" xlink:href="#DejaVuSans-35"/>
       <use x="369.806641" xlink:href="#DejaVuSans-31"/>
      </g>
     </g>
    </g>
    <g id="xtick_24">
     <g id="line2d_24">
      <g>
       <use style="stroke:#000000;stroke-width:0.8;" x="283.32288" xlink:href="#mf510e1c132" y="276.48"/>
      </g>
     </g>
     <g id="text_24">
      <!-- ASN_652 -->
      <g transform="translate(261.331268 314.214877)rotate(-45)scale(0.0833 -0.0833)">
       <use xlink:href="#DejaVuSans-41"/>
       <use x="68.408203" xlink:href="#DejaVuSans-53"/>
       <use x="131.884766" xlink:href="#DejaVuSans-4e"/>
       <use x="206.689453" xlink:href="#DejaVuSans-5f"/>
       <use x="256.689453" xlink:href="#DejaVuSans-36"/>
       <use x="320.3125" xlink:href="#DejaVuSans-35"/>
       <use x="383.935547" xlink:href="#DejaVuSans-32"/>
      </g>
     </g>
    </g>
    <g id="xtick_25">
     <g id="line2d_25">
      <g>
       <use style="stroke:#000000;stroke-width:0.8;" x="293.86368" xlink:href="#mf510e1c132" y="276.48"/>
      </g>
     </g>
     <g id="text_25">
      <!-- LEU_654 -->
      <g transform="translate(272.732589 313.354356)rotate(-45)scale(0.0833 -0.0833)">
       <use xlink:href="#DejaVuSans-4c"/>
       <use x="55.712891" xlink:href="#DejaVuSans-45"/>
       <use x="118.896484" xlink:href="#DejaVuSans-55"/>
       <use x="192.089844" xlink:href="#DejaVuSans-5f"/>
       <use x="242.089844" xlink:href="#DejaVuSans-36"/>
       <use x="305.712891" xlink:href="#DejaVuSans-35"/>
       <use x="369.335938" xlink:href="#DejaVuSans-34"/>
      </g>
     </g>
    </g>
    <g id="xtick_26">
     <g id="line2d_26">
      <g>
       <use style="stroke:#000000;stroke-width:0.8;" x="304.40448" xlink:href="#mf510e1c132" y="276.48"/>
      </g>
     </g>
     <g id="text_26">
      <!-- ILE_663 -->
      <g transform="translate(285.84667 310.781075)rotate(-45)scale(0.0833 -0.0833)">
       <use xlink:href="#DejaVuSans-49"/>
       <use x="29.492188" xlink:href="#DejaVuSans-4c"/>
       <use x="85.205078" xlink:href="#DejaVuSans-45"/>
       <use x="148.388672" xlink:href="#DejaVuSans-5f"/>
       <use x="198.388672" xlink:href="#DejaVuSans-36"/>
       <use x="262.011719" xlink:href="#DejaVuSans-36"/>
       <use x="325.634766" xlink:href="#DejaVuSans-33"/>
      </g>
     </g>
    </g>
    <g id="xtick_27">
     <g id="line2d_27">
      <g>
       <use style="stroke:#000000;stroke-width:0.8;" x="314.94528" xlink:href="#mf510e1c132" y="276.48"/>
      </g>
     </g>
     <g id="text_27">
      <!-- ASP_664 -->
      <g transform="translate(293.808667 313.359878)rotate(-45)scale(0.0833 -0.0833)">
       <use xlink:href="#DejaVuSans-41"/>
       <use x="68.408203" xlink:href="#DejaVuSans-53"/>
       <use x="131.884766" xlink:href="#DejaVuSans-50"/>
       <use x="192.1875" xlink:href="#DejaVuSans-5f"/>
       <use x="242.1875" xlink:href="#DejaVuSans-36"/>
       <use x="305.810547" xlink:href="#DejaVuSans-36"/>
       <use x="369.433594" xlink:href="#DejaVuSans-34"/>
      </g>
     </g>
    </g>
    <g id="xtick_28">
     <g id="line2d_28">
      <g>
       <use style="stroke:#000000;stroke-width:0.8;" x="325.48608" xlink:href="#mf510e1c132" y="276.48"/>
      </g>
     </g>
     <g id="text_28">
      <!-- PHE_665 -->
      <defs>
       <path d="M 9.8125 72.90625 
L 19.671875 72.90625 
L 19.671875 43.015625 
L 55.515625 43.015625 
L 55.515625 72.90625 
L 65.375 72.90625 
L 65.375 0 
L 55.515625 0 
L 55.515625 34.71875 
L 19.671875 34.71875 
L 19.671875 0 
L 9.8125 0 
z
" id="DejaVuSans-48"/>
      </defs>
      <g transform="translate(303.966604 313.742741)rotate(-45)scale(0.0833 -0.0833)">
       <use xlink:href="#DejaVuSans-50"/>
       <use x="60.302734" xlink:href="#DejaVuSans-48"/>
       <use x="135.498047" xlink:href="#DejaVuSans-45"/>
       <use x="198.681641" xlink:href="#DejaVuSans-5f"/>
       <use x="248.681641" xlink:href="#DejaVuSans-36"/>
       <use x="312.304688" xlink:href="#DejaVuSans-36"/>
       <use x="375.927734" xlink:href="#DejaVuSans-35"/>
      </g>
     </g>
    </g>
    <g id="xtick_29">
     <g id="line2d_29">
      <g>
       <use style="stroke:#000000;stroke-width:0.8;" x="336.02688" xlink:href="#mf510e1c132" y="276.48"/>
      </g>
     </g>
     <g id="text_29">
      <!-- ALA_668 -->
      <g transform="translate(314.868179 313.381966)rotate(-45)scale(0.0833 -0.0833)">
       <use xlink:href="#DejaVuSans-41"/>
       <use x="68.408203" xlink:href="#DejaVuSans-4c"/>
       <use x="124.152344" xlink:href="#DejaVuSans-41"/>
       <use x="192.560547" xlink:href="#DejaVuSans-5f"/>
       <use x="242.560547" xlink:href="#DejaVuSans-36"/>
       <use x="306.183594" xlink:href="#DejaVuSans-36"/>
       <use x="369.806641" xlink:href="#DejaVuSans-38"/>
      </g>
     </g>
    </g>
    <g id="xtick_30">
     <g id="line2d_30">
      <g>
       <use style="stroke:#000000;stroke-width:0.8;" x="346.56768" xlink:href="#mf510e1c132" y="276.48"/>
      </g>
     </g>
     <g id="text_30">
      <!-- ASN_669 -->
      <g transform="translate(324.576068 314.214877)rotate(-45)scale(0.0833 -0.0833)">
       <use xlink:href="#DejaVuSans-41"/>
       <use x="68.408203" xlink:href="#DejaVuSans-53"/>
       <use x="131.884766" xlink:href="#DejaVuSans-4e"/>
       <use x="206.689453" xlink:href="#DejaVuSans-5f"/>
       <use x="256.689453" xlink:href="#DejaVuSans-36"/>
       <use x="320.3125" xlink:href="#DejaVuSans-36"/>
       <use x="383.935547" xlink:href="#DejaVuSans-39"/>
      </g>
     </g>
    </g>
    <g id="xtick_31">
     <g id="line2d_31">
      <g>
       <use style="stroke:#000000;stroke-width:0.8;" x="357.10848" xlink:href="#mf510e1c132" y="276.48"/>
      </g>
     </g>
     <g id="text_31">
      <!-- GLN_670 -->
      <g transform="translate(335.039559 314.292186)rotate(-45)scale(0.0833 -0.0833)">
       <use xlink:href="#DejaVuSans-47"/>
       <use x="77.490234" xlink:href="#DejaVuSans-4c"/>
       <use x="133.203125" xlink:href="#DejaVuSans-4e"/>
       <use x="208.007812" xlink:href="#DejaVuSans-5f"/>
       <use x="258.007812" xlink:href="#DejaVuSans-36"/>
       <use x="321.630859" xlink:href="#DejaVuSans-37"/>
       <use x="385.253906" xlink:href="#DejaVuSans-30"/>
      </g>
     </g>
    </g>
    <g id="xtick_32">
     <g id="line2d_32">
      <g>
       <use style="stroke:#000000;stroke-width:0.8;" x="367.64928" xlink:href="#mf510e1c132" y="276.48"/>
      </g>
     </g>
     <g id="text_32">
      <!-- MET_671 -->
      <g transform="translate(345.431263 314.441281)rotate(-45)scale(0.0833 -0.0833)">
       <use xlink:href="#DejaVuSans-4d"/>
       <use x="86.279297" xlink:href="#DejaVuSans-45"/>
       <use x="149.462891" xlink:href="#DejaVuSans-54"/>
       <use x="210.546875" xlink:href="#DejaVuSans-5f"/>
       <use x="260.546875" xlink:href="#DejaVuSans-36"/>
       <use x="324.169922" xlink:href="#DejaVuSans-37"/>
       <use x="387.792969" xlink:href="#DejaVuSans-31"/>
      </g>
     </g>
    </g>
    <g id="xtick_33">
     <g id="line2d_33">
      <g>
       <use style="stroke:#000000;stroke-width:0.8;" x="378.19008" xlink:href="#mf510e1c132" y="276.48"/>
      </g>
     </g>
     <g id="text_33">
      <!-- GLN_672 -->
      <g transform="translate(356.121159 314.292186)rotate(-45)scale(0.0833 -0.0833)">
       <use xlink:href="#DejaVuSans-47"/>
       <use x="77.490234" xlink:href="#DejaVuSans-4c"/>
       <use x="133.203125" xlink:href="#DejaVuSans-4e"/>
       <use x="208.007812" xlink:href="#DejaVuSans-5f"/>
       <use x="258.007812" xlink:href="#DejaVuSans-36"/>
       <use x="321.630859" xlink:href="#DejaVuSans-37"/>
       <use x="385.253906" xlink:href="#DejaVuSans-32"/>
      </g>
     </g>
    </g>
    <g id="xtick_34">
     <g id="line2d_34">
      <g>
       <use style="stroke:#000000;stroke-width:0.8;" x="388.73088" xlink:href="#mf510e1c132" y="276.48"/>
      </g>
     </g>
     <g id="text_34">
      <!-- PRO_673 -->
      <defs>
       <path d="M 39.40625 66.21875 
Q 28.65625 66.21875 22.328125 58.203125 
Q 16.015625 50.203125 16.015625 36.375 
Q 16.015625 22.609375 22.328125 14.59375 
Q 28.65625 6.59375 39.40625 6.59375 
Q 50.140625 6.59375 56.421875 14.59375 
Q 62.703125 22.609375 62.703125 36.375 
Q 62.703125 50.203125 56.421875 58.203125 
Q 50.140625 66.21875 39.40625 66.21875 
z
M 39.40625 74.21875 
Q 54.734375 74.21875 63.90625 63.9375 
Q 73.09375 53.65625 73.09375 36.375 
Q 73.09375 19.140625 63.90625 8.859375 
Q 54.734375 -1.421875 39.40625 -1.421875 
Q 24.03125 -1.421875 14.8125 8.828125 
Q 5.609375 19.09375 5.609375 36.375 
Q 5.609375 53.65625 14.8125 63.9375 
Q 24.03125 74.21875 39.40625 74.21875 
z
" id="DejaVuSans-4f"/>
      </defs>
      <g transform="translate(366.633428 314.320716)rotate(-45)scale(0.0833 -0.0833)">
       <use xlink:href="#DejaVuSans-50"/>
       <use x="60.302734" xlink:href="#DejaVuSans-52"/>
       <use x="129.785156" xlink:href="#DejaVuSans-4f"/>
       <use x="208.496094" xlink:href="#DejaVuSans-5f"/>
       <use x="258.496094" xlink:href="#DejaVuSans-36"/>
       <use x="322.119141" xlink:href="#DejaVuSans-37"/>
       <use x="385.742188" xlink:href="#DejaVuSans-33"/>
      </g>
     </g>
    </g>
    <g id="xtick_35">
     <g id="line2d_35">
      <g>
       <use style="stroke:#000000;stroke-width:0.8;" x="399.27168" xlink:href="#mf510e1c132" y="276.48"/>
      </g>
     </g>
     <g id="text_35">
      <!-- ASP_674 -->
      <g transform="translate(378.135067 313.359878)rotate(-45)scale(0.0833 -0.0833)">
       <use xlink:href="#DejaVuSans-41"/>
       <use x="68.408203" xlink:href="#DejaVuSans-53"/>
       <use x="131.884766" xlink:href="#DejaVuSans-50"/>
       <use x="192.1875" xlink:href="#DejaVuSans-5f"/>
       <use x="242.1875" xlink:href="#DejaVuSans-36"/>
       <use x="305.810547" xlink:href="#DejaVuSans-37"/>
       <use x="369.433594" xlink:href="#DejaVuSans-34"/>
      </g>
     </g>
    </g>
    <g id="xtick_36">
     <g id="line2d_36">
      <g>
       <use style="stroke:#000000;stroke-width:0.8;" x="409.81248" xlink:href="#mf510e1c132" y="276.48"/>
      </g>
     </g>
     <g id="text_36">
      <!-- THR_675 -->
      <g transform="translate(387.876089 314.159656)rotate(-45)scale(0.0833 -0.0833)">
       <use xlink:href="#DejaVuSans-54"/>
       <use x="61.083984" xlink:href="#DejaVuSans-48"/>
       <use x="136.279297" xlink:href="#DejaVuSans-52"/>
       <use x="205.761719" xlink:href="#DejaVuSans-5f"/>
       <use x="255.761719" xlink:href="#DejaVuSans-36"/>
       <use x="319.384766" xlink:href="#DejaVuSans-37"/>
       <use x="383.007812" xlink:href="#DejaVuSans-35"/>
      </g>
     </g>
    </g>
    <g id="xtick_37">
     <g id="line2d_37">
      <g>
       <use style="stroke:#000000;stroke-width:0.8;" x="420.35328" xlink:href="#mf510e1c132" y="276.48"/>
      </g>
     </g>
     <g id="text_37">
      <!-- THR_676 -->
      <g transform="translate(398.416889 314.159656)rotate(-45)scale(0.0833 -0.0833)">
       <use xlink:href="#DejaVuSans-54"/>
       <use x="61.083984" xlink:href="#DejaVuSans-48"/>
       <use x="136.279297" xlink:href="#DejaVuSans-52"/>
       <use x="205.761719" xlink:href="#DejaVuSans-5f"/>
       <use x="255.761719" xlink:href="#DejaVuSans-36"/>
       <use x="319.384766" xlink:href="#DejaVuSans-37"/>
       <use x="383.007812" xlink:href="#DejaVuSans-36"/>
      </g>
     </g>
    </g>
    <g id="xtick_38">
     <g id="line2d_38">
      <g>
       <use style="stroke:#000000;stroke-width:0.8;" x="430.89408" xlink:href="#mf510e1c132" y="276.48"/>
      </g>
     </g>
     <g id="text_38">
      <!-- SER_677 -->
      <g transform="translate(409.5237 313.593645)rotate(-45)scale(0.0833 -0.0833)">
       <use xlink:href="#DejaVuSans-53"/>
       <use x="63.476562" xlink:href="#DejaVuSans-45"/>
       <use x="126.660156" xlink:href="#DejaVuSans-52"/>
       <use x="196.142578" xlink:href="#DejaVuSans-5f"/>
       <use x="246.142578" xlink:href="#DejaVuSans-36"/>
       <use x="309.765625" xlink:href="#DejaVuSans-37"/>
       <use x="373.388672" xlink:href="#DejaVuSans-37"/>
      </g>
     </g>
    </g>
    <g id="xtick_39">
     <g id="line2d_39">
      <g>
       <use style="stroke:#000000;stroke-width:0.8;" x="441.43488" xlink:href="#mf510e1c132" y="276.48"/>
      </g>
     </g>
     <g id="text_39">
      <!-- LYS_680 -->
      <g transform="translate(421.011534 312.646611)rotate(-45)scale(0.0833 -0.0833)">
       <use xlink:href="#DejaVuSans-4c"/>
       <use x="55.509766" xlink:href="#DejaVuSans-59"/>
       <use x="116.59375" xlink:href="#DejaVuSans-53"/>
       <use x="180.070312" xlink:href="#DejaVuSans-5f"/>
       <use x="230.070312" xlink:href="#DejaVuSans-36"/>
       <use x="293.693359" xlink:href="#DejaVuSans-38"/>
       <use x="357.316406" xlink:href="#DejaVuSans-30"/>
      </g>
     </g>
    </g>
   </g>
   <g id="matplotlib.axis_2">
    <g id="ytick_1">
     <g id="line2d_40">
      <defs>
       <path d="M 0 0 
L -3.5 0 
" id="mfcc12aae10" style="stroke:#000000;stroke-width:0.8;"/>
      </defs>
      <g>
       <use style="stroke:#000000;stroke-width:0.8;" x="34.56" xlink:href="#mfcc12aae10" y="276.48"/>
      </g>
     </g>
     <g id="text_40">
      <!-- 0.0 -->
      <defs>
       <path d="M 10.6875 12.40625 
L 21 12.40625 
L 21 0 
L 10.6875 0 
z
" id="DejaVuSans-2e"/>
      </defs>
      <g transform="translate(11.656875 280.279219)scale(0.1 -0.1)">
       <use xlink:href="#DejaVuSans-30"/>
       <use x="63.623047" xlink:href="#DejaVuSans-2e"/>
       <use x="95.410156" xlink:href="#DejaVuSans-30"/>
      </g>
     </g>
    </g>
    <g id="ytick_2">
     <g id="line2d_41">
      <g>
       <use style="stroke:#000000;stroke-width:0.8;" x="34.56" xlink:href="#mfcc12aae10" y="245.745904"/>
      </g>
     </g>
     <g id="text_41">
      <!-- 0.2 -->
      <g transform="translate(11.656875 249.545123)scale(0.1 -0.1)">
       <use xlink:href="#DejaVuSans-30"/>
       <use x="63.623047" xlink:href="#DejaVuSans-2e"/>
       <use x="95.410156" xlink:href="#DejaVuSans-32"/>
      </g>
     </g>
    </g>
    <g id="ytick_3">
     <g id="line2d_42">
      <g>
       <use style="stroke:#000000;stroke-width:0.8;" x="34.56" xlink:href="#mfcc12aae10" y="215.011808"/>
      </g>
     </g>
     <g id="text_42">
      <!-- 0.4 -->
      <g transform="translate(11.656875 218.811027)scale(0.1 -0.1)">
       <use xlink:href="#DejaVuSans-30"/>
       <use x="63.623047" xlink:href="#DejaVuSans-2e"/>
       <use x="95.410156" xlink:href="#DejaVuSans-34"/>
      </g>
     </g>
    </g>
    <g id="ytick_4">
     <g id="line2d_43">
      <g>
       <use style="stroke:#000000;stroke-width:0.8;" x="34.56" xlink:href="#mfcc12aae10" y="184.277712"/>
      </g>
     </g>
     <g id="text_43">
      <!-- 0.6 -->
      <g transform="translate(11.656875 188.076931)scale(0.1 -0.1)">
       <use xlink:href="#DejaVuSans-30"/>
       <use x="63.623047" xlink:href="#DejaVuSans-2e"/>
       <use x="95.410156" xlink:href="#DejaVuSans-36"/>
      </g>
     </g>
    </g>
    <g id="ytick_5">
     <g id="line2d_44">
      <g>
       <use style="stroke:#000000;stroke-width:0.8;" x="34.56" xlink:href="#mfcc12aae10" y="153.543616"/>
      </g>
     </g>
     <g id="text_44">
      <!-- 0.8 -->
      <g transform="translate(11.656875 157.342835)scale(0.1 -0.1)">
       <use xlink:href="#DejaVuSans-30"/>
       <use x="63.623047" xlink:href="#DejaVuSans-2e"/>
       <use x="95.410156" xlink:href="#DejaVuSans-38"/>
      </g>
     </g>
    </g>
    <g id="ytick_6">
     <g id="line2d_45">
      <g>
       <use style="stroke:#000000;stroke-width:0.8;" x="34.56" xlink:href="#mfcc12aae10" y="122.80952"/>
      </g>
     </g>
     <g id="text_45">
      <!-- 1.0 -->
      <g transform="translate(11.656875 126.608739)scale(0.1 -0.1)">
       <use xlink:href="#DejaVuSans-31"/>
       <use x="63.623047" xlink:href="#DejaVuSans-2e"/>
       <use x="95.410156" xlink:href="#DejaVuSans-30"/>
      </g>
     </g>
    </g>
    <g id="ytick_7">
     <g id="line2d_46">
      <g>
       <use style="stroke:#000000;stroke-width:0.8;" x="34.56" xlink:href="#mfcc12aae10" y="92.075425"/>
      </g>
     </g>
     <g id="text_46">
      <!-- 1.2 -->
      <g transform="translate(11.656875 95.874643)scale(0.1 -0.1)">
       <use xlink:href="#DejaVuSans-31"/>
       <use x="63.623047" xlink:href="#DejaVuSans-2e"/>
       <use x="95.410156" xlink:href="#DejaVuSans-32"/>
      </g>
     </g>
    </g>
    <g id="ytick_8">
     <g id="line2d_47">
      <g>
       <use style="stroke:#000000;stroke-width:0.8;" x="34.56" xlink:href="#mfcc12aae10" y="61.341329"/>
      </g>
     </g>
     <g id="text_47">
      <!-- 1.4 -->
      <g transform="translate(11.656875 65.140547)scale(0.1 -0.1)">
       <use xlink:href="#DejaVuSans-31"/>
       <use x="63.623047" xlink:href="#DejaVuSans-2e"/>
       <use x="95.410156" xlink:href="#DejaVuSans-34"/>
      </g>
     </g>
    </g>
    <g id="ytick_9">
     <g id="line2d_48">
      <g>
       <use style="stroke:#000000;stroke-width:0.8;" x="34.56" xlink:href="#mfcc12aae10" y="30.607233"/>
      </g>
     </g>
     <g id="text_48">
      <!-- 1.6 -->
      <g transform="translate(11.656875 34.406452)scale(0.1 -0.1)">
       <use xlink:href="#DejaVuSans-31"/>
       <use x="63.623047" xlink:href="#DejaVuSans-2e"/>
       <use x="95.410156" xlink:href="#DejaVuSans-36"/>
      </g>
     </g>
    </g>
    <g id="text_49">
     <!-- Interactions Fraction -->
     <defs>
      <path d="M 54.890625 33.015625 
L 54.890625 0 
L 45.90625 0 
L 45.90625 32.71875 
Q 45.90625 40.484375 42.875 44.328125 
Q 39.84375 48.1875 33.796875 48.1875 
Q 26.515625 48.1875 22.3125 43.546875 
Q 18.109375 38.921875 18.109375 30.90625 
L 18.109375 0 
L 9.078125 0 
L 9.078125 54.6875 
L 18.109375 54.6875 
L 18.109375 46.1875 
Q 21.34375 51.125 25.703125 53.5625 
Q 30.078125 56 35.796875 56 
Q 45.21875 56 50.046875 50.171875 
Q 54.890625 44.34375 54.890625 33.015625 
z
" id="DejaVuSans-6e"/>
      <path d="M 18.3125 70.21875 
L 18.3125 54.6875 
L 36.8125 54.6875 
L 36.8125 47.703125 
L 18.3125 47.703125 
L 18.3125 18.015625 
Q 18.3125 11.328125 20.140625 9.421875 
Q 21.96875 7.515625 27.59375 7.515625 
L 36.8125 7.515625 
L 36.8125 0 
L 27.59375 0 
Q 17.1875 0 13.234375 3.875 
Q 9.28125 7.765625 9.28125 18.015625 
L 9.28125 47.703125 
L 2.6875 47.703125 
L 2.6875 54.6875 
L 9.28125 54.6875 
L 9.28125 70.21875 
z
" id="DejaVuSans-74"/>
      <path d="M 56.203125 29.59375 
L 56.203125 25.203125 
L 14.890625 25.203125 
Q 15.484375 15.921875 20.484375 11.0625 
Q 25.484375 6.203125 34.421875 6.203125 
Q 39.59375 6.203125 44.453125 7.46875 
Q 49.3125 8.734375 54.109375 11.28125 
L 54.109375 2.78125 
Q 49.265625 0.734375 44.1875 -0.34375 
Q 39.109375 -1.421875 33.890625 -1.421875 
Q 20.796875 -1.421875 13.15625 6.1875 
Q 5.515625 13.8125 5.515625 26.8125 
Q 5.515625 40.234375 12.765625 48.109375 
Q 20.015625 56 32.328125 56 
Q 43.359375 56 49.78125 48.890625 
Q 56.203125 41.796875 56.203125 29.59375 
z
M 47.21875 32.234375 
Q 47.125 39.59375 43.09375 43.984375 
Q 39.0625 48.390625 32.421875 48.390625 
Q 24.90625 48.390625 20.390625 44.140625 
Q 15.875 39.890625 15.1875 32.171875 
z
" id="DejaVuSans-65"/>
      <path d="M 41.109375 46.296875 
Q 39.59375 47.171875 37.8125 47.578125 
Q 36.03125 48 33.890625 48 
Q 26.265625 48 22.1875 43.046875 
Q 18.109375 38.09375 18.109375 28.8125 
L 18.109375 0 
L 9.078125 0 
L 9.078125 54.6875 
L 18.109375 54.6875 
L 18.109375 46.1875 
Q 20.953125 51.171875 25.484375 53.578125 
Q 30.03125 56 36.53125 56 
Q 37.453125 56 38.578125 55.875 
Q 39.703125 55.765625 41.0625 55.515625 
z
" id="DejaVuSans-72"/>
      <path d="M 34.28125 27.484375 
Q 23.390625 27.484375 19.1875 25 
Q 14.984375 22.515625 14.984375 16.5 
Q 14.984375 11.71875 18.140625 8.90625 
Q 21.296875 6.109375 26.703125 6.109375 
Q 34.1875 6.109375 38.703125 11.40625 
Q 43.21875 16.703125 43.21875 25.484375 
L 43.21875 27.484375 
z
M 52.203125 31.203125 
L 52.203125 0 
L 43.21875 0 
L 43.21875 8.296875 
Q 40.140625 3.328125 35.546875 0.953125 
Q 30.953125 -1.421875 24.3125 -1.421875 
Q 15.921875 -1.421875 10.953125 3.296875 
Q 6 8.015625 6 15.921875 
Q 6 25.140625 12.171875 29.828125 
Q 18.359375 34.515625 30.609375 34.515625 
L 43.21875 34.515625 
L 43.21875 35.40625 
Q 43.21875 41.609375 39.140625 45 
Q 35.0625 48.390625 27.6875 48.390625 
Q 23 48.390625 18.546875 47.265625 
Q 14.109375 46.140625 10.015625 43.890625 
L 10.015625 52.203125 
Q 14.9375 54.109375 19.578125 55.046875 
Q 24.21875 56 28.609375 56 
Q 40.484375 56 46.34375 49.84375 
Q 52.203125 43.703125 52.203125 31.203125 
z
" id="DejaVuSans-61"/>
      <path d="M 48.78125 52.59375 
L 48.78125 44.1875 
Q 44.96875 46.296875 41.140625 47.34375 
Q 37.3125 48.390625 33.40625 48.390625 
Q 24.65625 48.390625 19.8125 42.84375 
Q 14.984375 37.3125 14.984375 27.296875 
Q 14.984375 17.28125 19.8125 11.734375 
Q 24.65625 6.203125 33.40625 6.203125 
Q 37.3125 6.203125 41.140625 7.25 
Q 44.96875 8.296875 48.78125 10.40625 
L 48.78125 2.09375 
Q 45.015625 0.34375 40.984375 -0.53125 
Q 36.96875 -1.421875 32.421875 -1.421875 
Q 20.0625 -1.421875 12.78125 6.34375 
Q 5.515625 14.109375 5.515625 27.296875 
Q 5.515625 40.671875 12.859375 48.328125 
Q 20.21875 56 33.015625 56 
Q 37.15625 56 41.109375 55.140625 
Q 45.0625 54.296875 48.78125 52.59375 
z
" id="DejaVuSans-63"/>
      <path d="M 9.421875 54.6875 
L 18.40625 54.6875 
L 18.40625 0 
L 9.421875 0 
z
M 9.421875 75.984375 
L 18.40625 75.984375 
L 18.40625 64.59375 
L 9.421875 64.59375 
z
" id="DejaVuSans-69"/>
      <path d="M 30.609375 48.390625 
Q 23.390625 48.390625 19.1875 42.75 
Q 14.984375 37.109375 14.984375 27.296875 
Q 14.984375 17.484375 19.15625 11.84375 
Q 23.34375 6.203125 30.609375 6.203125 
Q 37.796875 6.203125 41.984375 11.859375 
Q 46.1875 17.53125 46.1875 27.296875 
Q 46.1875 37.015625 41.984375 42.703125 
Q 37.796875 48.390625 30.609375 48.390625 
z
M 30.609375 56 
Q 42.328125 56 49.015625 48.375 
Q 55.71875 40.765625 55.71875 27.296875 
Q 55.71875 13.875 49.015625 6.21875 
Q 42.328125 -1.421875 30.609375 -1.421875 
Q 18.84375 -1.421875 12.171875 6.21875 
Q 5.515625 13.875 5.515625 27.296875 
Q 5.515625 40.765625 12.171875 48.375 
Q 18.84375 56 30.609375 56 
z
" id="DejaVuSans-6f"/>
      <path d="M 44.28125 53.078125 
L 44.28125 44.578125 
Q 40.484375 46.53125 36.375 47.5 
Q 32.28125 48.484375 27.875 48.484375 
Q 21.1875 48.484375 17.84375 46.4375 
Q 14.5 44.390625 14.5 40.28125 
Q 14.5 37.15625 16.890625 35.375 
Q 19.28125 33.59375 26.515625 31.984375 
L 29.59375 31.296875 
Q 39.15625 29.25 43.1875 25.515625 
Q 47.21875 21.78125 47.21875 15.09375 
Q 47.21875 7.46875 41.1875 3.015625 
Q 35.15625 -1.421875 24.609375 -1.421875 
Q 20.21875 -1.421875 15.453125 -0.5625 
Q 10.6875 0.296875 5.421875 2 
L 5.421875 11.28125 
Q 10.40625 8.6875 15.234375 7.390625 
Q 20.0625 6.109375 24.8125 6.109375 
Q 31.15625 6.109375 34.5625 8.28125 
Q 37.984375 10.453125 37.984375 14.40625 
Q 37.984375 18.0625 35.515625 20.015625 
Q 33.0625 21.96875 24.703125 23.78125 
L 21.578125 24.515625 
Q 13.234375 26.265625 9.515625 29.90625 
Q 5.8125 33.546875 5.8125 39.890625 
Q 5.8125 47.609375 11.28125 51.796875 
Q 16.75 56 26.8125 56 
Q 31.78125 56 36.171875 55.265625 
Q 40.578125 54.546875 44.28125 53.078125 
z
" id="DejaVuSans-73"/>
      <path id="DejaVuSans-20"/>
      <path d="M 9.8125 72.90625 
L 51.703125 72.90625 
L 51.703125 64.59375 
L 19.671875 64.59375 
L 19.671875 43.109375 
L 48.578125 43.109375 
L 48.578125 34.8125 
L 19.671875 34.8125 
L 19.671875 0 
L 9.8125 0 
z
" id="DejaVuSans-46"/>
     </defs>
     <g transform="translate(5.577187 194.542319)rotate(-90)scale(0.1 -0.1)">
      <use xlink:href="#DejaVuSans-49"/>
      <use x="29.492188" xlink:href="#DejaVuSans-6e"/>
      <use x="92.871094" xlink:href="#DejaVuSans-74"/>
      <use x="132.080078" xlink:href="#DejaVuSans-65"/>
      <use x="193.603516" xlink:href="#DejaVuSans-72"/>
      <use x="234.716797" xlink:href="#DejaVuSans-61"/>
      <use x="295.996094" xlink:href="#DejaVuSans-63"/>
      <use x="350.976562" xlink:href="#DejaVuSans-74"/>
      <use x="390.185547" xlink:href="#DejaVuSans-69"/>
      <use x="417.96875" xlink:href="#DejaVuSans-6f"/>
      <use x="479.150391" xlink:href="#DejaVuSans-6e"/>
      <use x="542.529297" xlink:href="#DejaVuSans-73"/>
      <use x="594.628906" xlink:href="#DejaVuSans-20"/>
      <use x="626.416016" xlink:href="#DejaVuSans-46"/>
      <use x="683.826172" xlink:href="#DejaVuSans-72"/>
      <use x="724.939453" xlink:href="#DejaVuSans-61"/>
      <use x="786.21875" xlink:href="#DejaVuSans-63"/>
      <use x="841.199219" xlink:href="#DejaVuSans-74"/>
      <use x="880.408203" xlink:href="#DejaVuSans-69"/>
      <use x="908.191406" xlink:href="#DejaVuSans-6f"/>
      <use x="969.373047" xlink:href="#DejaVuSans-6e"/>
     </g>
    </g>
   </g>
   <g id="patch_159">
    <path d="M 34.56 276.48 
L 34.56 9.3312 
" style="fill:none;stroke:#000000;stroke-linecap:square;stroke-linejoin:miter;stroke-width:0.8;"/>
   </g>
   <g id="patch_160">
    <path d="M 456.192 276.48 
L 456.192 9.3312 
" style="fill:none;stroke:#000000;stroke-linecap:square;stroke-linejoin:miter;stroke-width:0.8;"/>
   </g>
   <g id="patch_161">
    <path d="M 34.56 276.48 
L 456.192 276.48 
" style="fill:none;stroke:#000000;stroke-linecap:square;stroke-linejoin:miter;stroke-width:0.8;"/>
   </g>
   <g id="patch_162">
    <path d="M 34.56 9.3312 
L 456.192 9.3312 
" style="fill:none;stroke:#000000;stroke-linecap:square;stroke-linejoin:miter;stroke-width:0.8;"/>
   </g>
  </g>
 </g>
 <defs>
  <clipPath id="p6749b2f7bb">
   <rect height="267.1488" width="421.632" x="34.56" y="9.3312"/>
  </clipPath>
 </defs>
</svg>
