<?xml version="1.0" encoding="utf-8" standalone="no"?>
<!DOCTYPE svg PUBLIC "-//W3C//DTD SVG 1.1//EN"
  "http://www.w3.org/Graphics/SVG/1.1/DTD/svg11.dtd">
<!-- Created with matplotlib (http://matplotlib.org/) -->
<svg height="190.08pt" version="1.1" viewBox="0 0 815.76 190.08" width="815.76pt" xmlns="http://www.w3.org/2000/svg" xmlns:xlink="http://www.w3.org/1999/xlink">
 <defs>
  <style type="text/css">
*{stroke-linecap:butt;stroke-linejoin:round;}
  </style>
 </defs>
 <g id="figure_1">
  <g id="patch_1">
   <path d="M 0 190.08 
L 815.76 190.08 
L 815.76 0 
L 0 0 
z
" style="fill:#ffffff;"/>
  </g>
  <g id="axes_1">
   <g id="patch_2">
    <path d="M 61.182 152.064 
L 807.6024 152.064 
L 807.6024 5.13216 
L 61.182 5.13216 
z
" style="fill:#ffffff;"/>
   </g>
   <g id="patch_3">
    <path clip-path="url(#p2ccffd8fad)" d="M 64.736383 152.064 
L 78.953914 152.064 
L 78.953914 139.266147 
L 64.736383 139.266147 
z
" style="fill:#7fc97f;"/>
   </g>
   <g id="patch_4">
    <path clip-path="url(#p2ccffd8fad)" d="M 82.508297 152.064 
L 96.725829 152.064 
L 96.725829 152.064 
L 82.508297 152.064 
z
" style="fill:#7fc97f;"/>
   </g>
   <g id="patch_5">
    <path clip-path="url(#p2ccffd8fad)" d="M 100.280211 152.064 
L 114.497743 152.064 
L 114.497743 152.064 
L 100.280211 152.064 
z
" style="fill:#7fc97f;"/>
   </g>
   <g id="patch_6">
    <path clip-path="url(#p2ccffd8fad)" d="M 118.052126 152.064 
L 132.269657 152.064 
L 132.269657 152.064 
L 118.052126 152.064 
z
" style="fill:#7fc97f;"/>
   </g>
   <g id="patch_7">
    <path clip-path="url(#p2ccffd8fad)" d="M 135.82404 152.064 
L 150.041571 152.064 
L 150.041571 146.353404 
L 135.82404 146.353404 
z
" style="fill:#7fc97f;"/>
   </g>
   <g id="patch_8">
    <path clip-path="url(#p2ccffd8fad)" d="M 153.595954 152.064 
L 167.813486 152.064 
L 167.813486 152.064 
L 153.595954 152.064 
z
" style="fill:#7fc97f;"/>
   </g>
   <g id="patch_9">
    <path clip-path="url(#p2ccffd8fad)" d="M 171.367869 152.064 
L 185.5854 152.064 
L 185.5854 123.56201 
L 171.367869 123.56201 
z
" style="fill:#7fc97f;"/>
   </g>
   <g id="patch_10">
    <path clip-path="url(#p2ccffd8fad)" d="M 189.139783 152.064 
L 203.357314 152.064 
L 203.357314 152.064 
L 189.139783 152.064 
z
" style="fill:#7fc97f;"/>
   </g>
   <g id="patch_11">
    <path clip-path="url(#p2ccffd8fad)" d="M 206.911697 152.064 
L 221.129229 152.064 
L 221.129229 152.064 
L 206.911697 152.064 
z
" style="fill:#7fc97f;"/>
   </g>
   <g id="patch_12">
    <path clip-path="url(#p2ccffd8fad)" d="M 224.683611 152.064 
L 238.901143 152.064 
L 238.901143 152.064 
L 224.683611 152.064 
z
" style="fill:#7fc97f;"/>
   </g>
   <g id="patch_13">
    <path clip-path="url(#p2ccffd8fad)" d="M 242.455526 152.064 
L 256.673057 152.064 
L 256.673057 152.064 
L 242.455526 152.064 
z
" style="fill:#7fc97f;"/>
   </g>
   <g id="patch_14">
    <path clip-path="url(#p2ccffd8fad)" d="M 260.22744 152.064 
L 274.444971 152.064 
L 274.444971 152.064 
L 260.22744 152.064 
z
" style="fill:#7fc97f;"/>
   </g>
   <g id="patch_15">
    <path clip-path="url(#p2ccffd8fad)" d="M 277.999354 152.064 
L 292.216886 152.064 
L 292.216886 152.064 
L 277.999354 152.064 
z
" style="fill:#7fc97f;"/>
   </g>
   <g id="patch_16">
    <path clip-path="url(#p2ccffd8fad)" d="M 295.771269 152.064 
L 309.9888 152.064 
L 309.9888 152.064 
L 295.771269 152.064 
z
" style="fill:#7fc97f;"/>
   </g>
   <g id="patch_17">
    <path clip-path="url(#p2ccffd8fad)" d="M 313.543183 152.064 
L 327.760714 152.064 
L 327.760714 45.627676 
L 313.543183 45.627676 
z
" style="fill:#7fc97f;"/>
   </g>
   <g id="patch_18">
    <path clip-path="url(#p2ccffd8fad)" d="M 331.315097 152.064 
L 345.532629 152.064 
L 345.532629 142.63132 
L 331.315097 142.63132 
z
" style="fill:#7fc97f;"/>
   </g>
   <g id="patch_19">
    <path clip-path="url(#p2ccffd8fad)" d="M 349.087011 152.064 
L 363.304543 152.064 
L 363.304543 21.000732 
L 349.087011 21.000732 
z
" style="fill:#7fc97f;"/>
   </g>
   <g id="patch_20">
    <path clip-path="url(#p2ccffd8fad)" d="M 366.858926 152.064 
L 381.076457 152.064 
L 381.076457 152.064 
L 366.858926 152.064 
z
" style="fill:#7fc97f;"/>
   </g>
   <g id="patch_21">
    <path clip-path="url(#p2ccffd8fad)" d="M 384.63084 152.064 
L 398.848371 152.064 
L 398.848371 152.064 
L 384.63084 152.064 
z
" style="fill:#7fc97f;"/>
   </g>
   <g id="patch_22">
    <path clip-path="url(#p2ccffd8fad)" d="M 402.402754 152.064 
L 416.620286 152.064 
L 416.620286 143.600082 
L 402.402754 143.600082 
z
" style="fill:#7fc97f;"/>
   </g>
   <g id="patch_23">
    <path clip-path="url(#p2ccffd8fad)" d="M 420.174669 152.064 
L 434.3922 152.064 
L 434.3922 151.707088 
L 420.174669 151.707088 
z
" style="fill:#7fc97f;"/>
   </g>
   <g id="patch_24">
    <path clip-path="url(#p2ccffd8fad)" d="M 437.946583 152.064 
L 452.164114 152.064 
L 452.164114 152.064 
L 437.946583 152.064 
z
" style="fill:#7fc97f;"/>
   </g>
   <g id="patch_25">
    <path clip-path="url(#p2ccffd8fad)" d="M 455.718497 152.064 
L 469.936029 152.064 
L 469.936029 152.064 
L 455.718497 152.064 
z
" style="fill:#7fc97f;"/>
   </g>
   <g id="patch_26">
    <path clip-path="url(#p2ccffd8fad)" d="M 473.490411 152.064 
L 487.707943 152.064 
L 487.707943 151.375669 
L 473.490411 151.375669 
z
" style="fill:#7fc97f;"/>
   </g>
   <g id="patch_27">
    <path clip-path="url(#p2ccffd8fad)" d="M 491.262326 152.064 
L 505.479857 152.064 
L 505.479857 152.064 
L 491.262326 152.064 
z
" style="fill:#7fc97f;"/>
   </g>
   <g id="patch_28">
    <path clip-path="url(#p2ccffd8fad)" d="M 509.03424 152.064 
L 523.251771 152.064 
L 523.251771 152.064 
L 509.03424 152.064 
z
" style="fill:#7fc97f;"/>
   </g>
   <g id="patch_29">
    <path clip-path="url(#p2ccffd8fad)" d="M 526.806154 152.064 
L 541.023686 152.064 
L 541.023686 152.064 
L 526.806154 152.064 
z
" style="fill:#7fc97f;"/>
   </g>
   <g id="patch_30">
    <path clip-path="url(#p2ccffd8fad)" d="M 544.578069 152.064 
L 558.7956 152.064 
L 558.7956 152.064 
L 544.578069 152.064 
z
" style="fill:#7fc97f;"/>
   </g>
   <g id="patch_31">
    <path clip-path="url(#p2ccffd8fad)" d="M 562.349983 152.064 
L 576.567514 152.064 
L 576.567514 152.064 
L 562.349983 152.064 
z
" style="fill:#7fc97f;"/>
   </g>
   <g id="patch_32">
    <path clip-path="url(#p2ccffd8fad)" d="M 580.121897 152.064 
L 594.339429 152.064 
L 594.339429 152.064 
L 580.121897 152.064 
z
" style="fill:#7fc97f;"/>
   </g>
   <g id="patch_33">
    <path clip-path="url(#p2ccffd8fad)" d="M 597.893811 152.064 
L 612.111343 152.064 
L 612.111343 152.064 
L 597.893811 152.064 
z
" style="fill:#7fc97f;"/>
   </g>
   <g id="patch_34">
    <path clip-path="url(#p2ccffd8fad)" d="M 615.665726 152.064 
L 629.883257 152.064 
L 629.883257 152.064 
L 615.665726 152.064 
z
" style="fill:#7fc97f;"/>
   </g>
   <g id="patch_35">
    <path clip-path="url(#p2ccffd8fad)" d="M 633.43764 152.064 
L 647.655171 152.064 
L 647.655171 151.86005 
L 633.43764 151.86005 
z
" style="fill:#7fc97f;"/>
   </g>
   <g id="patch_36">
    <path clip-path="url(#p2ccffd8fad)" d="M 651.209554 152.064 
L 665.427086 152.064 
L 665.427086 143.5236 
L 651.209554 143.5236 
z
" style="fill:#7fc97f;"/>
   </g>
   <g id="patch_37">
    <path clip-path="url(#p2ccffd8fad)" d="M 668.981469 152.064 
L 683.199 152.064 
L 683.199 140.744784 
L 668.981469 140.744784 
z
" style="fill:#7fc97f;"/>
   </g>
   <g id="patch_38">
    <path clip-path="url(#p2ccffd8fad)" d="M 686.753383 152.064 
L 700.970914 152.064 
L 700.970914 145.43563 
L 686.753383 145.43563 
z
" style="fill:#7fc97f;"/>
   </g>
   <g id="patch_39">
    <path clip-path="url(#p2ccffd8fad)" d="M 704.525297 152.064 
L 718.742829 152.064 
L 718.742829 151.987519 
L 704.525297 151.987519 
z
" style="fill:#7fc97f;"/>
   </g>
   <g id="patch_40">
    <path clip-path="url(#p2ccffd8fad)" d="M 722.297211 152.064 
L 736.514743 152.064 
L 736.514743 152.064 
L 722.297211 152.064 
z
" style="fill:#7fc97f;"/>
   </g>
   <g id="patch_41">
    <path clip-path="url(#p2ccffd8fad)" d="M 740.069126 152.064 
L 754.286657 152.064 
L 754.286657 152.064 
L 740.069126 152.064 
z
" style="fill:#7fc97f;"/>
   </g>
   <g id="patch_42">
    <path clip-path="url(#p2ccffd8fad)" d="M 757.84104 152.064 
L 772.058571 152.064 
L 772.058571 152.064 
L 757.84104 152.064 
z
" style="fill:#7fc97f;"/>
   </g>
   <g id="patch_43">
    <path clip-path="url(#p2ccffd8fad)" d="M 775.612954 152.064 
L 789.830486 152.064 
L 789.830486 152.064 
L 775.612954 152.064 
z
" style="fill:#7fc97f;"/>
   </g>
   <g id="patch_44">
    <path clip-path="url(#p2ccffd8fad)" d="M 64.736383 139.266147 
L 78.953914 139.266147 
L 78.953914 139.01121 
L 64.736383 139.01121 
z
" style="fill:#beaed4;"/>
   </g>
   <g id="patch_45">
    <path clip-path="url(#p2ccffd8fad)" d="M 82.508297 152.064 
L 96.725829 152.064 
L 96.725829 152.064 
L 82.508297 152.064 
z
" style="fill:#beaed4;"/>
   </g>
   <g id="patch_46">
    <path clip-path="url(#p2ccffd8fad)" d="M 100.280211 152.064 
L 114.497743 152.064 
L 114.497743 107.398984 
L 100.280211 107.398984 
z
" style="fill:#beaed4;"/>
   </g>
   <g id="patch_47">
    <path clip-path="url(#p2ccffd8fad)" d="M 118.052126 152.064 
L 132.269657 152.064 
L 132.269657 148.137966 
L 118.052126 148.137966 
z
" style="fill:#beaed4;"/>
   </g>
   <g id="patch_48">
    <path clip-path="url(#p2ccffd8fad)" d="M 135.82404 146.353404 
L 150.041571 146.353404 
L 150.041571 146.353404 
L 135.82404 146.353404 
z
" style="fill:#beaed4;"/>
   </g>
   <g id="patch_49">
    <path clip-path="url(#p2ccffd8fad)" d="M 153.595954 152.064 
L 167.813486 152.064 
L 167.813486 151.554125 
L 153.595954 151.554125 
z
" style="fill:#beaed4;"/>
   </g>
   <g id="patch_50">
    <path clip-path="url(#p2ccffd8fad)" d="M 171.367869 123.56201 
L 185.5854 123.56201 
L 185.5854 123.56201 
L 171.367869 123.56201 
z
" style="fill:#beaed4;"/>
   </g>
   <g id="patch_51">
    <path clip-path="url(#p2ccffd8fad)" d="M 189.139783 152.064 
L 203.357314 152.064 
L 203.357314 152.064 
L 189.139783 152.064 
z
" style="fill:#beaed4;"/>
   </g>
   <g id="patch_52">
    <path clip-path="url(#p2ccffd8fad)" d="M 206.911697 152.064 
L 221.129229 152.064 
L 221.129229 139.546578 
L 206.911697 139.546578 
z
" style="fill:#beaed4;"/>
   </g>
   <g id="patch_53">
    <path clip-path="url(#p2ccffd8fad)" d="M 224.683611 152.064 
L 238.901143 152.064 
L 238.901143 151.809063 
L 224.683611 151.809063 
z
" style="fill:#beaed4;"/>
   </g>
   <g id="patch_54">
    <path clip-path="url(#p2ccffd8fad)" d="M 242.455526 152.064 
L 256.673057 152.064 
L 256.673057 113.31353 
L 242.455526 113.31353 
z
" style="fill:#beaed4;"/>
   </g>
   <g id="patch_55">
    <path clip-path="url(#p2ccffd8fad)" d="M 260.22744 152.064 
L 274.444971 152.064 
L 274.444971 144.160944 
L 260.22744 144.160944 
z
" style="fill:#beaed4;"/>
   </g>
   <g id="patch_56">
    <path clip-path="url(#p2ccffd8fad)" d="M 277.999354 152.064 
L 292.216886 152.064 
L 292.216886 147.296672 
L 277.999354 147.296672 
z
" style="fill:#beaed4;"/>
   </g>
   <g id="patch_57">
    <path clip-path="url(#p2ccffd8fad)" d="M 295.771269 152.064 
L 309.9888 152.064 
L 309.9888 99.393953 
L 295.771269 99.393953 
z
" style="fill:#beaed4;"/>
   </g>
   <g id="patch_58">
    <path clip-path="url(#p2ccffd8fad)" d="M 313.543183 45.627676 
L 327.760714 45.627676 
L 327.760714 45.627676 
L 313.543183 45.627676 
z
" style="fill:#beaed4;"/>
   </g>
   <g id="patch_59">
    <path clip-path="url(#p2ccffd8fad)" d="M 331.315097 142.63132 
L 345.532629 142.63132 
L 345.532629 142.63132 
L 331.315097 142.63132 
z
" style="fill:#beaed4;"/>
   </g>
   <g id="patch_60">
    <path clip-path="url(#p2ccffd8fad)" d="M 349.087011 21.000732 
L 363.304543 21.000732 
L 363.304543 21.000732 
L 349.087011 21.000732 
z
" style="fill:#beaed4;"/>
   </g>
   <g id="patch_61">
    <path clip-path="url(#p2ccffd8fad)" d="M 366.858926 152.064 
L 381.076457 152.064 
L 381.076457 152.064 
L 366.858926 152.064 
z
" style="fill:#beaed4;"/>
   </g>
   <g id="patch_62">
    <path clip-path="url(#p2ccffd8fad)" d="M 384.63084 152.064 
L 398.848371 152.064 
L 398.848371 149.310677 
L 384.63084 149.310677 
z
" style="fill:#beaed4;"/>
   </g>
   <g id="patch_63">
    <path clip-path="url(#p2ccffd8fad)" d="M 402.402754 143.600082 
L 416.620286 143.600082 
L 416.620286 143.600082 
L 402.402754 143.600082 
z
" style="fill:#beaed4;"/>
   </g>
   <g id="patch_64">
    <path clip-path="url(#p2ccffd8fad)" d="M 420.174669 151.707088 
L 434.3922 151.707088 
L 434.3922 151.707088 
L 420.174669 151.707088 
z
" style="fill:#beaed4;"/>
   </g>
   <g id="patch_65">
    <path clip-path="url(#p2ccffd8fad)" d="M 437.946583 152.064 
L 452.164114 152.064 
L 452.164114 152.064 
L 437.946583 152.064 
z
" style="fill:#beaed4;"/>
   </g>
   <g id="patch_66">
    <path clip-path="url(#p2ccffd8fad)" d="M 455.718497 152.064 
L 469.936029 152.064 
L 469.936029 109.769901 
L 455.718497 109.769901 
z
" style="fill:#beaed4;"/>
   </g>
   <g id="patch_67">
    <path clip-path="url(#p2ccffd8fad)" d="M 473.490411 151.375669 
L 487.707943 151.375669 
L 487.707943 86.366657 
L 473.490411 86.366657 
z
" style="fill:#beaed4;"/>
   </g>
   <g id="patch_68">
    <path clip-path="url(#p2ccffd8fad)" d="M 491.262326 152.064 
L 505.479857 152.064 
L 505.479857 152.064 
L 491.262326 152.064 
z
" style="fill:#beaed4;"/>
   </g>
   <g id="patch_69">
    <path clip-path="url(#p2ccffd8fad)" d="M 509.03424 152.064 
L 523.251771 152.064 
L 523.251771 135.671531 
L 509.03424 135.671531 
z
" style="fill:#beaed4;"/>
   </g>
   <g id="patch_70">
    <path clip-path="url(#p2ccffd8fad)" d="M 526.806154 152.064 
L 541.023686 152.064 
L 541.023686 152.038506 
L 526.806154 152.038506 
z
" style="fill:#beaed4;"/>
   </g>
   <g id="patch_71">
    <path clip-path="url(#p2ccffd8fad)" d="M 544.578069 152.064 
L 558.7956 152.064 
L 558.7956 146.455379 
L 544.578069 146.455379 
z
" style="fill:#beaed4;"/>
   </g>
   <g id="patch_72">
    <path clip-path="url(#p2ccffd8fad)" d="M 562.349983 152.064 
L 576.567514 152.064 
L 576.567514 152.064 
L 562.349983 152.064 
z
" style="fill:#beaed4;"/>
   </g>
   <g id="patch_73">
    <path clip-path="url(#p2ccffd8fad)" d="M 580.121897 152.064 
L 594.339429 152.064 
L 594.339429 152.064 
L 580.121897 152.064 
z
" style="fill:#beaed4;"/>
   </g>
   <g id="patch_74">
    <path clip-path="url(#p2ccffd8fad)" d="M 597.893811 152.064 
L 612.111343 152.064 
L 612.111343 114.435254 
L 597.893811 114.435254 
z
" style="fill:#beaed4;"/>
   </g>
   <g id="patch_75">
    <path clip-path="url(#p2ccffd8fad)" d="M 615.665726 152.064 
L 629.883257 152.064 
L 629.883257 140.081947 
L 615.665726 140.081947 
z
" style="fill:#beaed4;"/>
   </g>
   <g id="patch_76">
    <path clip-path="url(#p2ccffd8fad)" d="M 633.43764 151.86005 
L 647.655171 151.86005 
L 647.655171 151.86005 
L 633.43764 151.86005 
z
" style="fill:#beaed4;"/>
   </g>
   <g id="patch_77">
    <path clip-path="url(#p2ccffd8fad)" d="M 651.209554 143.5236 
L 665.427086 143.5236 
L 665.427086 143.5236 
L 651.209554 143.5236 
z
" style="fill:#beaed4;"/>
   </g>
   <g id="patch_78">
    <path clip-path="url(#p2ccffd8fad)" d="M 668.981469 140.744784 
L 683.199 140.744784 
L 683.199 140.744784 
L 668.981469 140.744784 
z
" style="fill:#beaed4;"/>
   </g>
   <g id="patch_79">
    <path clip-path="url(#p2ccffd8fad)" d="M 686.753383 145.43563 
L 700.970914 145.43563 
L 700.970914 145.43563 
L 686.753383 145.43563 
z
" style="fill:#beaed4;"/>
   </g>
   <g id="patch_80">
    <path clip-path="url(#p2ccffd8fad)" d="M 704.525297 151.987519 
L 718.742829 151.987519 
L 718.742829 150.661845 
L 704.525297 150.661845 
z
" style="fill:#beaed4;"/>
   </g>
   <g id="patch_81">
    <path clip-path="url(#p2ccffd8fad)" d="M 722.297211 152.064 
L 736.514743 152.064 
L 736.514743 152.013013 
L 722.297211 152.013013 
z
" style="fill:#beaed4;"/>
   </g>
   <g id="patch_82">
    <path clip-path="url(#p2ccffd8fad)" d="M 740.069126 152.064 
L 754.286657 152.064 
L 754.286657 152.064 
L 740.069126 152.064 
z
" style="fill:#beaed4;"/>
   </g>
   <g id="patch_83">
    <path clip-path="url(#p2ccffd8fad)" d="M 757.84104 152.064 
L 772.058571 152.064 
L 772.058571 152.064 
L 757.84104 152.064 
z
" style="fill:#beaed4;"/>
   </g>
   <g id="patch_84">
    <path clip-path="url(#p2ccffd8fad)" d="M 775.612954 152.064 
L 789.830486 152.064 
L 789.830486 152.064 
L 775.612954 152.064 
z
" style="fill:#beaed4;"/>
   </g>
   <g id="patch_85">
    <path clip-path="url(#p2ccffd8fad)" d="M 64.736383 139.01121 
L 78.953914 139.01121 
L 78.953914 139.01121 
L 64.736383 139.01121 
z
" style="fill:#f0027f;"/>
   </g>
   <g id="patch_86">
    <path clip-path="url(#p2ccffd8fad)" d="M 82.508297 152.064 
L 96.725829 152.064 
L 96.725829 152.038506 
L 82.508297 152.038506 
z
" style="fill:#f0027f;"/>
   </g>
   <g id="patch_87">
    <path clip-path="url(#p2ccffd8fad)" d="M 100.280211 107.398984 
L 114.497743 107.398984 
L 114.497743 107.398984 
L 100.280211 107.398984 
z
" style="fill:#f0027f;"/>
   </g>
   <g id="patch_88">
    <path clip-path="url(#p2ccffd8fad)" d="M 118.052126 148.137966 
L 132.269657 148.137966 
L 132.269657 148.137966 
L 118.052126 148.137966 
z
" style="fill:#f0027f;"/>
   </g>
   <g id="patch_89">
    <path clip-path="url(#p2ccffd8fad)" d="M 135.82404 146.353404 
L 150.041571 146.353404 
L 150.041571 146.353404 
L 135.82404 146.353404 
z
" style="fill:#f0027f;"/>
   </g>
   <g id="patch_90">
    <path clip-path="url(#p2ccffd8fad)" d="M 153.595954 151.554125 
L 167.813486 151.554125 
L 167.813486 151.554125 
L 153.595954 151.554125 
z
" style="fill:#f0027f;"/>
   </g>
   <g id="patch_91">
    <path clip-path="url(#p2ccffd8fad)" d="M 171.367869 123.56201 
L 185.5854 123.56201 
L 185.5854 123.56201 
L 171.367869 123.56201 
z
" style="fill:#f0027f;"/>
   </g>
   <g id="patch_92">
    <path clip-path="url(#p2ccffd8fad)" d="M 189.139783 152.064 
L 203.357314 152.064 
L 203.357314 152.064 
L 189.139783 152.064 
z
" style="fill:#f0027f;"/>
   </g>
   <g id="patch_93">
    <path clip-path="url(#p2ccffd8fad)" d="M 206.911697 139.546578 
L 221.129229 139.546578 
L 221.129229 139.546578 
L 206.911697 139.546578 
z
" style="fill:#f0027f;"/>
   </g>
   <g id="patch_94">
    <path clip-path="url(#p2ccffd8fad)" d="M 224.683611 151.809063 
L 238.901143 151.809063 
L 238.901143 151.809063 
L 224.683611 151.809063 
z
" style="fill:#f0027f;"/>
   </g>
   <g id="patch_95">
    <path clip-path="url(#p2ccffd8fad)" d="M 242.455526 113.31353 
L 256.673057 113.31353 
L 256.673057 113.31353 
L 242.455526 113.31353 
z
" style="fill:#f0027f;"/>
   </g>
   <g id="patch_96">
    <path clip-path="url(#p2ccffd8fad)" d="M 260.22744 144.160944 
L 274.444971 144.160944 
L 274.444971 144.160944 
L 260.22744 144.160944 
z
" style="fill:#f0027f;"/>
   </g>
   <g id="patch_97">
    <path clip-path="url(#p2ccffd8fad)" d="M 277.999354 147.296672 
L 292.216886 147.296672 
L 292.216886 147.296672 
L 277.999354 147.296672 
z
" style="fill:#f0027f;"/>
   </g>
   <g id="patch_98">
    <path clip-path="url(#p2ccffd8fad)" d="M 295.771269 99.393953 
L 309.9888 99.393953 
L 309.9888 99.393953 
L 295.771269 99.393953 
z
" style="fill:#f0027f;"/>
   </g>
   <g id="patch_99">
    <path clip-path="url(#p2ccffd8fad)" d="M 313.543183 45.627676 
L 327.760714 45.627676 
L 327.760714 45.627676 
L 313.543183 45.627676 
z
" style="fill:#f0027f;"/>
   </g>
   <g id="patch_100">
    <path clip-path="url(#p2ccffd8fad)" d="M 331.315097 142.63132 
L 345.532629 142.63132 
L 345.532629 142.63132 
L 331.315097 142.63132 
z
" style="fill:#f0027f;"/>
   </g>
   <g id="patch_101">
    <path clip-path="url(#p2ccffd8fad)" d="M 349.087011 21.000732 
L 363.304543 21.000732 
L 363.304543 21.000732 
L 349.087011 21.000732 
z
" style="fill:#f0027f;"/>
   </g>
   <g id="patch_102">
    <path clip-path="url(#p2ccffd8fad)" d="M 366.858926 152.064 
L 381.076457 152.064 
L 381.076457 151.911038 
L 366.858926 151.911038 
z
" style="fill:#f0027f;"/>
   </g>
   <g id="patch_103">
    <path clip-path="url(#p2ccffd8fad)" d="M 384.63084 149.310677 
L 398.848371 149.310677 
L 398.848371 149.310677 
L 384.63084 149.310677 
z
" style="fill:#f0027f;"/>
   </g>
   <g id="patch_104">
    <path clip-path="url(#p2ccffd8fad)" d="M 402.402754 143.600082 
L 416.620286 143.600082 
L 416.620286 143.115701 
L 402.402754 143.115701 
z
" style="fill:#f0027f;"/>
   </g>
   <g id="patch_105">
    <path clip-path="url(#p2ccffd8fad)" d="M 420.174669 151.707088 
L 434.3922 151.707088 
L 434.3922 151.324682 
L 420.174669 151.324682 
z
" style="fill:#f0027f;"/>
   </g>
   <g id="patch_106">
    <path clip-path="url(#p2ccffd8fad)" d="M 437.946583 152.064 
L 452.164114 152.064 
L 452.164114 152.064 
L 437.946583 152.064 
z
" style="fill:#f0027f;"/>
   </g>
   <g id="patch_107">
    <path clip-path="url(#p2ccffd8fad)" d="M 455.718497 109.769901 
L 469.936029 109.769901 
L 469.936029 109.769901 
L 455.718497 109.769901 
z
" style="fill:#f0027f;"/>
   </g>
   <g id="patch_108">
    <path clip-path="url(#p2ccffd8fad)" d="M 473.490411 86.366657 
L 487.707943 86.366657 
L 487.707943 86.366657 
L 473.490411 86.366657 
z
" style="fill:#f0027f;"/>
   </g>
   <g id="patch_109">
    <path clip-path="url(#p2ccffd8fad)" d="M 491.262326 152.064 
L 505.479857 152.064 
L 505.479857 152.064 
L 491.262326 152.064 
z
" style="fill:#f0027f;"/>
   </g>
   <g id="patch_110">
    <path clip-path="url(#p2ccffd8fad)" d="M 509.03424 135.671531 
L 523.251771 135.671531 
L 523.251771 135.671531 
L 509.03424 135.671531 
z
" style="fill:#f0027f;"/>
   </g>
   <g id="patch_111">
    <path clip-path="url(#p2ccffd8fad)" d="M 526.806154 152.038506 
L 541.023686 152.038506 
L 541.023686 152.038506 
L 526.806154 152.038506 
z
" style="fill:#f0027f;"/>
   </g>
   <g id="patch_112">
    <path clip-path="url(#p2ccffd8fad)" d="M 544.578069 146.455379 
L 558.7956 146.455379 
L 558.7956 146.455379 
L 544.578069 146.455379 
z
" style="fill:#f0027f;"/>
   </g>
   <g id="patch_113">
    <path clip-path="url(#p2ccffd8fad)" d="M 562.349983 152.064 
L 576.567514 152.064 
L 576.567514 152.064 
L 562.349983 152.064 
z
" style="fill:#f0027f;"/>
   </g>
   <g id="patch_114">
    <path clip-path="url(#p2ccffd8fad)" d="M 580.121897 152.064 
L 594.339429 152.064 
L 594.339429 152.064 
L 580.121897 152.064 
z
" style="fill:#f0027f;"/>
   </g>
   <g id="patch_115">
    <path clip-path="url(#p2ccffd8fad)" d="M 597.893811 114.435254 
L 612.111343 114.435254 
L 612.111343 114.435254 
L 597.893811 114.435254 
z
" style="fill:#f0027f;"/>
   </g>
   <g id="patch_116">
    <path clip-path="url(#p2ccffd8fad)" d="M 615.665726 140.081947 
L 629.883257 140.081947 
L 629.883257 140.081947 
L 615.665726 140.081947 
z
" style="fill:#f0027f;"/>
   </g>
   <g id="patch_117">
    <path clip-path="url(#p2ccffd8fad)" d="M 633.43764 151.86005 
L 647.655171 151.86005 
L 647.655171 151.783569 
L 633.43764 151.783569 
z
" style="fill:#f0027f;"/>
   </g>
   <g id="patch_118">
    <path clip-path="url(#p2ccffd8fad)" d="M 651.209554 143.5236 
L 665.427086 143.5236 
L 665.427086 143.5236 
L 651.209554 143.5236 
z
" style="fill:#f0027f;"/>
   </g>
   <g id="patch_119">
    <path clip-path="url(#p2ccffd8fad)" d="M 668.981469 140.744784 
L 683.199 140.744784 
L 683.199 140.693796 
L 668.981469 140.693796 
z
" style="fill:#f0027f;"/>
   </g>
   <g id="patch_120">
    <path clip-path="url(#p2ccffd8fad)" d="M 686.753383 145.43563 
L 700.970914 145.43563 
L 700.970914 145.43563 
L 686.753383 145.43563 
z
" style="fill:#f0027f;"/>
   </g>
   <g id="patch_121">
    <path clip-path="url(#p2ccffd8fad)" d="M 704.525297 150.661845 
L 718.742829 150.661845 
L 718.742829 150.661845 
L 704.525297 150.661845 
z
" style="fill:#f0027f;"/>
   </g>
   <g id="patch_122">
    <path clip-path="url(#p2ccffd8fad)" d="M 722.297211 152.013013 
L 736.514743 152.013013 
L 736.514743 152.013013 
L 722.297211 152.013013 
z
" style="fill:#f0027f;"/>
   </g>
   <g id="patch_123">
    <path clip-path="url(#p2ccffd8fad)" d="M 740.069126 152.064 
L 754.286657 152.064 
L 754.286657 152.064 
L 740.069126 152.064 
z
" style="fill:#f0027f;"/>
   </g>
   <g id="patch_124">
    <path clip-path="url(#p2ccffd8fad)" d="M 757.84104 152.064 
L 772.058571 152.064 
L 772.058571 152.064 
L 757.84104 152.064 
z
" style="fill:#f0027f;"/>
   </g>
   <g id="patch_125">
    <path clip-path="url(#p2ccffd8fad)" d="M 775.612954 152.064 
L 789.830486 152.064 
L 789.830486 152.064 
L 775.612954 152.064 
z
" style="fill:#f0027f;"/>
   </g>
   <g id="patch_126">
    <path clip-path="url(#p2ccffd8fad)" d="M 64.736383 139.01121 
L 78.953914 139.01121 
L 78.953914 85.346908 
L 64.736383 85.346908 
z
" style="fill:#386cb0;"/>
   </g>
   <g id="patch_127">
    <path clip-path="url(#p2ccffd8fad)" d="M 82.508297 152.038506 
L 96.725829 152.038506 
L 96.725829 151.222707 
L 82.508297 151.222707 
z
" style="fill:#386cb0;"/>
   </g>
   <g id="patch_128">
    <path clip-path="url(#p2ccffd8fad)" d="M 100.280211 107.398984 
L 114.497743 107.398984 
L 114.497743 106.88911 
L 100.280211 106.88911 
z
" style="fill:#386cb0;"/>
   </g>
   <g id="patch_129">
    <path clip-path="url(#p2ccffd8fad)" d="M 118.052126 148.137966 
L 132.269657 148.137966 
L 132.269657 148.137966 
L 118.052126 148.137966 
z
" style="fill:#386cb0;"/>
   </g>
   <g id="patch_130">
    <path clip-path="url(#p2ccffd8fad)" d="M 135.82404 146.353404 
L 150.041571 146.353404 
L 150.041571 134.855732 
L 135.82404 134.855732 
z
" style="fill:#386cb0;"/>
   </g>
   <g id="patch_131">
    <path clip-path="url(#p2ccffd8fad)" d="M 153.595954 151.554125 
L 167.813486 151.554125 
L 167.813486 151.554125 
L 153.595954 151.554125 
z
" style="fill:#386cb0;"/>
   </g>
   <g id="patch_132">
    <path clip-path="url(#p2ccffd8fad)" d="M 171.367869 123.56201 
L 185.5854 123.56201 
L 185.5854 77.851751 
L 171.367869 77.851751 
z
" style="fill:#386cb0;"/>
   </g>
   <g id="patch_133">
    <path clip-path="url(#p2ccffd8fad)" d="M 189.139783 152.064 
L 203.357314 152.064 
L 203.357314 151.758075 
L 189.139783 151.758075 
z
" style="fill:#386cb0;"/>
   </g>
   <g id="patch_134">
    <path clip-path="url(#p2ccffd8fad)" d="M 206.911697 139.546578 
L 221.129229 139.546578 
L 221.129229 139.546578 
L 206.911697 139.546578 
z
" style="fill:#386cb0;"/>
   </g>
   <g id="patch_135">
    <path clip-path="url(#p2ccffd8fad)" d="M 224.683611 151.809063 
L 238.901143 151.809063 
L 238.901143 151.809063 
L 224.683611 151.809063 
z
" style="fill:#386cb0;"/>
   </g>
   <g id="patch_136">
    <path clip-path="url(#p2ccffd8fad)" d="M 242.455526 113.31353 
L 256.673057 113.31353 
L 256.673057 113.31353 
L 242.455526 113.31353 
z
" style="fill:#386cb0;"/>
   </g>
   <g id="patch_137">
    <path clip-path="url(#p2ccffd8fad)" d="M 260.22744 144.160944 
L 274.444971 144.160944 
L 274.444971 144.160944 
L 260.22744 144.160944 
z
" style="fill:#386cb0;"/>
   </g>
   <g id="patch_138">
    <path clip-path="url(#p2ccffd8fad)" d="M 277.999354 147.296672 
L 292.216886 147.296672 
L 292.216886 147.296672 
L 277.999354 147.296672 
z
" style="fill:#386cb0;"/>
   </g>
   <g id="patch_139">
    <path clip-path="url(#p2ccffd8fad)" d="M 295.771269 99.393953 
L 309.9888 99.393953 
L 309.9888 99.393953 
L 295.771269 99.393953 
z
" style="fill:#386cb0;"/>
   </g>
   <g id="patch_140">
    <path clip-path="url(#p2ccffd8fad)" d="M 313.543183 45.627676 
L 327.760714 45.627676 
L 327.760714 45.627676 
L 313.543183 45.627676 
z
" style="fill:#386cb0;"/>
   </g>
   <g id="patch_141">
    <path clip-path="url(#p2ccffd8fad)" d="M 331.315097 142.63132 
L 345.532629 142.63132 
L 345.532629 142.452864 
L 331.315097 142.452864 
z
" style="fill:#386cb0;"/>
   </g>
   <g id="patch_142">
    <path clip-path="url(#p2ccffd8fad)" d="M 349.087011 21.000732 
L 363.304543 21.000732 
L 363.304543 12.128914 
L 349.087011 12.128914 
z
" style="fill:#386cb0;"/>
   </g>
   <g id="patch_143">
    <path clip-path="url(#p2ccffd8fad)" d="M 366.858926 151.911038 
L 381.076457 151.911038 
L 381.076457 112.70168 
L 366.858926 112.70168 
z
" style="fill:#386cb0;"/>
   </g>
   <g id="patch_144">
    <path clip-path="url(#p2ccffd8fad)" d="M 384.63084 149.310677 
L 398.848371 149.310677 
L 398.848371 149.310677 
L 384.63084 149.310677 
z
" style="fill:#386cb0;"/>
   </g>
   <g id="patch_145">
    <path clip-path="url(#p2ccffd8fad)" d="M 402.402754 143.115701 
L 416.620286 143.115701 
L 416.620286 108.367746 
L 402.402754 108.367746 
z
" style="fill:#386cb0;"/>
   </g>
   <g id="patch_146">
    <path clip-path="url(#p2ccffd8fad)" d="M 420.174669 151.324682 
L 434.3922 151.324682 
L 434.3922 140.591821 
L 420.174669 140.591821 
z
" style="fill:#386cb0;"/>
   </g>
   <g id="patch_147">
    <path clip-path="url(#p2ccffd8fad)" d="M 437.946583 152.064 
L 452.164114 152.064 
L 452.164114 148.494878 
L 437.946583 148.494878 
z
" style="fill:#386cb0;"/>
   </g>
   <g id="patch_148">
    <path clip-path="url(#p2ccffd8fad)" d="M 455.718497 109.769901 
L 469.936029 109.769901 
L 469.936029 109.769901 
L 455.718497 109.769901 
z
" style="fill:#386cb0;"/>
   </g>
   <g id="patch_149">
    <path clip-path="url(#p2ccffd8fad)" d="M 473.490411 86.366657 
L 487.707943 86.366657 
L 487.707943 74.945466 
L 473.490411 74.945466 
z
" style="fill:#386cb0;"/>
   </g>
   <g id="patch_150">
    <path clip-path="url(#p2ccffd8fad)" d="M 491.262326 152.064 
L 505.479857 152.064 
L 505.479857 126.544776 
L 491.262326 126.544776 
z
" style="fill:#386cb0;"/>
   </g>
   <g id="patch_151">
    <path clip-path="url(#p2ccffd8fad)" d="M 509.03424 135.671531 
L 523.251771 135.671531 
L 523.251771 135.671531 
L 509.03424 135.671531 
z
" style="fill:#386cb0;"/>
   </g>
   <g id="patch_152">
    <path clip-path="url(#p2ccffd8fad)" d="M 526.806154 152.038506 
L 541.023686 152.038506 
L 541.023686 152.038506 
L 526.806154 152.038506 
z
" style="fill:#386cb0;"/>
   </g>
   <g id="patch_153">
    <path clip-path="url(#p2ccffd8fad)" d="M 544.578069 146.455379 
L 558.7956 146.455379 
L 558.7956 142.911751 
L 544.578069 142.911751 
z
" style="fill:#386cb0;"/>
   </g>
   <g id="patch_154">
    <path clip-path="url(#p2ccffd8fad)" d="M 562.349983 152.064 
L 576.567514 152.064 
L 576.567514 108.495215 
L 562.349983 108.495215 
z
" style="fill:#386cb0;"/>
   </g>
   <g id="patch_155">
    <path clip-path="url(#p2ccffd8fad)" d="M 580.121897 152.064 
L 594.339429 152.064 
L 594.339429 152.013013 
L 580.121897 152.013013 
z
" style="fill:#386cb0;"/>
   </g>
   <g id="patch_156">
    <path clip-path="url(#p2ccffd8fad)" d="M 597.893811 114.435254 
L 612.111343 114.435254 
L 612.111343 114.20581 
L 597.893811 114.20581 
z
" style="fill:#386cb0;"/>
   </g>
   <g id="patch_157">
    <path clip-path="url(#p2ccffd8fad)" d="M 615.665726 140.081947 
L 629.883257 140.081947 
L 629.883257 140.081947 
L 615.665726 140.081947 
z
" style="fill:#386cb0;"/>
   </g>
   <g id="patch_158">
    <path clip-path="url(#p2ccffd8fad)" d="M 633.43764 151.783569 
L 647.655171 151.783569 
L 647.655171 126.799713 
L 633.43764 126.799713 
z
" style="fill:#386cb0;"/>
   </g>
   <g id="patch_159">
    <path clip-path="url(#p2ccffd8fad)" d="M 651.209554 143.5236 
L 665.427086 143.5236 
L 665.427086 117.774933 
L 651.209554 117.774933 
z
" style="fill:#386cb0;"/>
   </g>
   <g id="patch_160">
    <path clip-path="url(#p2ccffd8fad)" d="M 668.981469 140.693796 
L 683.199 140.693796 
L 683.199 114.690191 
L 668.981469 114.690191 
z
" style="fill:#386cb0;"/>
   </g>
   <g id="patch_161">
    <path clip-path="url(#p2ccffd8fad)" d="M 686.753383 145.43563 
L 700.970914 145.43563 
L 700.970914 132.663271 
L 686.753383 132.663271 
z
" style="fill:#386cb0;"/>
   </g>
   <g id="patch_162">
    <path clip-path="url(#p2ccffd8fad)" d="M 704.525297 150.661845 
L 718.742829 150.661845 
L 718.742829 133.453577 
L 704.525297 133.453577 
z
" style="fill:#386cb0;"/>
   </g>
   <g id="patch_163">
    <path clip-path="url(#p2ccffd8fad)" d="M 722.297211 152.013013 
L 736.514743 152.013013 
L 736.514743 151.324682 
L 722.297211 151.324682 
z
" style="fill:#386cb0;"/>
   </g>
   <g id="patch_164">
    <path clip-path="url(#p2ccffd8fad)" d="M 740.069126 152.064 
L 754.286657 152.064 
L 754.286657 152.038506 
L 740.069126 152.038506 
z
" style="fill:#386cb0;"/>
   </g>
   <g id="patch_165">
    <path clip-path="url(#p2ccffd8fad)" d="M 757.84104 152.064 
L 772.058571 152.064 
L 772.058571 152.013013 
L 757.84104 152.013013 
z
" style="fill:#386cb0;"/>
   </g>
   <g id="patch_166">
    <path clip-path="url(#p2ccffd8fad)" d="M 775.612954 152.064 
L 789.830486 152.064 
L 789.830486 151.248201 
L 775.612954 151.248201 
z
" style="fill:#386cb0;"/>
   </g>
   <g id="matplotlib.axis_1">
    <g id="xtick_1">
     <g id="line2d_1">
      <defs>
       <path d="M 0 0 
L 0 3.5 
" id="m319d0ba3e4" style="stroke:#000000;stroke-width:0.8;"/>
      </defs>
      <g>
       <use style="stroke:#000000;stroke-width:0.8;" x="71.845149" xlink:href="#m319d0ba3e4" y="152.064"/>
      </g>
     </g>
     <g id="text_1">
      <!-- LYS_529 -->
      <defs>
       <path d="M 9.8125 72.90625 
L 19.671875 72.90625 
L 19.671875 8.296875 
L 55.171875 8.296875 
L 55.171875 0 
L 9.8125 0 
z
" id="DejaVuSans-4c"/>
       <path d="M -0.203125 72.90625 
L 10.40625 72.90625 
L 30.609375 42.921875 
L 50.6875 72.90625 
L 61.28125 72.90625 
L 35.5 34.71875 
L 35.5 0 
L 25.59375 0 
L 25.59375 34.71875 
z
" id="DejaVuSans-59"/>
       <path d="M 53.515625 70.515625 
L 53.515625 60.890625 
Q 47.90625 63.578125 42.921875 64.890625 
Q 37.9375 66.21875 33.296875 66.21875 
Q 25.25 66.21875 20.875 63.09375 
Q 16.5 59.96875 16.5 54.203125 
Q 16.5 49.359375 19.40625 46.890625 
Q 22.3125 44.4375 30.421875 42.921875 
L 36.375 41.703125 
Q 47.40625 39.59375 52.65625 34.296875 
Q 57.90625 29 57.90625 20.125 
Q 57.90625 9.515625 50.796875 4.046875 
Q 43.703125 -1.421875 29.984375 -1.421875 
Q 24.8125 -1.421875 18.96875 -0.25 
Q 13.140625 0.921875 6.890625 3.21875 
L 6.890625 13.375 
Q 12.890625 10.015625 18.65625 8.296875 
Q 24.421875 6.59375 29.984375 6.59375 
Q 38.421875 6.59375 43.015625 9.90625 
Q 47.609375 13.234375 47.609375 19.390625 
Q 47.609375 24.75 44.3125 27.78125 
Q 41.015625 30.8125 33.5 32.328125 
L 27.484375 33.5 
Q 16.453125 35.6875 11.515625 40.375 
Q 6.59375 45.0625 6.59375 53.421875 
Q 6.59375 63.09375 13.40625 68.65625 
Q 20.21875 74.21875 32.171875 74.21875 
Q 37.3125 74.21875 42.625 73.28125 
Q 47.953125 72.359375 53.515625 70.515625 
z
" id="DejaVuSans-53"/>
       <path d="M 50.984375 -16.609375 
L 50.984375 -23.578125 
L -0.984375 -23.578125 
L -0.984375 -16.609375 
z
" id="DejaVuSans-5f"/>
       <path d="M 10.796875 72.90625 
L 49.515625 72.90625 
L 49.515625 64.59375 
L 19.828125 64.59375 
L 19.828125 46.734375 
Q 21.96875 47.46875 24.109375 47.828125 
Q 26.265625 48.1875 28.421875 48.1875 
Q 40.625 48.1875 47.75 41.5 
Q 54.890625 34.8125 54.890625 23.390625 
Q 54.890625 11.625 47.5625 5.09375 
Q 40.234375 -1.421875 26.90625 -1.421875 
Q 22.3125 -1.421875 17.546875 -0.640625 
Q 12.796875 0.140625 7.71875 1.703125 
L 7.71875 11.625 
Q 12.109375 9.234375 16.796875 8.0625 
Q 21.484375 6.890625 26.703125 6.890625 
Q 35.15625 6.890625 40.078125 11.328125 
Q 45.015625 15.765625 45.015625 23.390625 
Q 45.015625 31 40.078125 35.4375 
Q 35.15625 39.890625 26.703125 39.890625 
Q 22.75 39.890625 18.8125 39.015625 
Q 14.890625 38.140625 10.796875 36.28125 
z
" id="DejaVuSans-35"/>
       <path d="M 19.1875 8.296875 
L 53.609375 8.296875 
L 53.609375 0 
L 7.328125 0 
L 7.328125 8.296875 
Q 12.9375 14.109375 22.625 23.890625 
Q 32.328125 33.6875 34.8125 36.53125 
Q 39.546875 41.84375 41.421875 45.53125 
Q 43.3125 49.21875 43.3125 52.78125 
Q 43.3125 58.59375 39.234375 62.25 
Q 35.15625 65.921875 28.609375 65.921875 
Q 23.96875 65.921875 18.8125 64.3125 
Q 13.671875 62.703125 7.8125 59.421875 
L 7.8125 69.390625 
Q 13.765625 71.78125 18.9375 73 
Q 24.125 74.21875 28.421875 74.21875 
Q 39.75 74.21875 46.484375 68.546875 
Q 53.21875 62.890625 53.21875 53.421875 
Q 53.21875 48.921875 51.53125 44.890625 
Q 49.859375 40.875 45.40625 35.40625 
Q 44.1875 33.984375 37.640625 27.21875 
Q 31.109375 20.453125 19.1875 8.296875 
z
" id="DejaVuSans-32"/>
       <path d="M 10.984375 1.515625 
L 10.984375 10.5 
Q 14.703125 8.734375 18.5 7.8125 
Q 22.3125 6.890625 25.984375 6.890625 
Q 35.75 6.890625 40.890625 13.453125 
Q 46.046875 20.015625 46.78125 33.40625 
Q 43.953125 29.203125 39.59375 26.953125 
Q 35.25 24.703125 29.984375 24.703125 
Q 19.046875 24.703125 12.671875 31.3125 
Q 6.296875 37.9375 6.296875 49.421875 
Q 6.296875 60.640625 12.9375 67.421875 
Q 19.578125 74.21875 30.609375 74.21875 
Q 43.265625 74.21875 49.921875 64.515625 
Q 56.59375 54.828125 56.59375 36.375 
Q 56.59375 19.140625 48.40625 8.859375 
Q 40.234375 -1.421875 26.421875 -1.421875 
Q 22.703125 -1.421875 18.890625 -0.6875 
Q 15.09375 0.046875 10.984375 1.515625 
z
M 30.609375 32.421875 
Q 37.25 32.421875 41.125 36.953125 
Q 45.015625 41.5 45.015625 49.421875 
Q 45.015625 57.28125 41.125 61.84375 
Q 37.25 66.40625 30.609375 66.40625 
Q 23.96875 66.40625 20.09375 61.84375 
Q 16.21875 57.28125 16.21875 49.421875 
Q 16.21875 41.5 20.09375 36.953125 
Q 23.96875 32.421875 30.609375 32.421875 
z
" id="DejaVuSans-39"/>
      </defs>
      <g transform="translate(51.421802 188.230611)rotate(-45)scale(0.0833 -0.0833)">
       <use xlink:href="#DejaVuSans-4c"/>
       <use x="55.509766" xlink:href="#DejaVuSans-59"/>
       <use x="116.59375" xlink:href="#DejaVuSans-53"/>
       <use x="180.070312" xlink:href="#DejaVuSans-5f"/>
       <use x="230.070312" xlink:href="#DejaVuSans-35"/>
       <use x="293.693359" xlink:href="#DejaVuSans-32"/>
       <use x="357.316406" xlink:href="#DejaVuSans-39"/>
      </g>
     </g>
    </g>
    <g id="xtick_2">
     <g id="line2d_2">
      <g>
       <use style="stroke:#000000;stroke-width:0.8;" x="89.617063" xlink:href="#m319d0ba3e4" y="152.064"/>
      </g>
     </g>
     <g id="text_2">
      <!-- GLN_530 -->
      <defs>
       <path d="M 59.515625 10.40625 
L 59.515625 29.984375 
L 43.40625 29.984375 
L 43.40625 38.09375 
L 69.28125 38.09375 
L 69.28125 6.78125 
Q 63.578125 2.734375 56.6875 0.65625 
Q 49.8125 -1.421875 42 -1.421875 
Q 24.90625 -1.421875 15.25 8.5625 
Q 5.609375 18.5625 5.609375 36.375 
Q 5.609375 54.25 15.25 64.234375 
Q 24.90625 74.21875 42 74.21875 
Q 49.125 74.21875 55.546875 72.453125 
Q 61.96875 70.703125 67.390625 67.28125 
L 67.390625 56.78125 
Q 61.921875 61.421875 55.765625 63.765625 
Q 49.609375 66.109375 42.828125 66.109375 
Q 29.4375 66.109375 22.71875 58.640625 
Q 16.015625 51.171875 16.015625 36.375 
Q 16.015625 21.625 22.71875 14.15625 
Q 29.4375 6.6875 42.828125 6.6875 
Q 48.046875 6.6875 52.140625 7.59375 
Q 56.25 8.5 59.515625 10.40625 
z
" id="DejaVuSans-47"/>
       <path d="M 9.8125 72.90625 
L 23.09375 72.90625 
L 55.421875 11.921875 
L 55.421875 72.90625 
L 64.984375 72.90625 
L 64.984375 0 
L 51.703125 0 
L 19.390625 60.984375 
L 19.390625 0 
L 9.8125 0 
z
" id="DejaVuSans-4e"/>
       <path d="M 40.578125 39.3125 
Q 47.65625 37.796875 51.625 33 
Q 55.609375 28.21875 55.609375 21.1875 
Q 55.609375 10.40625 48.1875 4.484375 
Q 40.765625 -1.421875 27.09375 -1.421875 
Q 22.515625 -1.421875 17.65625 -0.515625 
Q 12.796875 0.390625 7.625 2.203125 
L 7.625 11.71875 
Q 11.71875 9.328125 16.59375 8.109375 
Q 21.484375 6.890625 26.8125 6.890625 
Q 36.078125 6.890625 40.9375 10.546875 
Q 45.796875 14.203125 45.796875 21.1875 
Q 45.796875 27.640625 41.28125 31.265625 
Q 36.765625 34.90625 28.71875 34.90625 
L 20.21875 34.90625 
L 20.21875 43.015625 
L 29.109375 43.015625 
Q 36.375 43.015625 40.234375 45.921875 
Q 44.09375 48.828125 44.09375 54.296875 
Q 44.09375 59.90625 40.109375 62.90625 
Q 36.140625 65.921875 28.71875 65.921875 
Q 24.65625 65.921875 20.015625 65.03125 
Q 15.375 64.15625 9.8125 62.3125 
L 9.8125 71.09375 
Q 15.4375 72.65625 20.34375 73.4375 
Q 25.25 74.21875 29.59375 74.21875 
Q 40.828125 74.21875 47.359375 69.109375 
Q 53.90625 64.015625 53.90625 55.328125 
Q 53.90625 49.265625 50.4375 45.09375 
Q 46.96875 40.921875 40.578125 39.3125 
z
" id="DejaVuSans-33"/>
       <path d="M 31.78125 66.40625 
Q 24.171875 66.40625 20.328125 58.90625 
Q 16.5 51.421875 16.5 36.375 
Q 16.5 21.390625 20.328125 13.890625 
Q 24.171875 6.390625 31.78125 6.390625 
Q 39.453125 6.390625 43.28125 13.890625 
Q 47.125 21.390625 47.125 36.375 
Q 47.125 51.421875 43.28125 58.90625 
Q 39.453125 66.40625 31.78125 66.40625 
z
M 31.78125 74.21875 
Q 44.046875 74.21875 50.515625 64.515625 
Q 56.984375 54.828125 56.984375 36.375 
Q 56.984375 17.96875 50.515625 8.265625 
Q 44.046875 -1.421875 31.78125 -1.421875 
Q 19.53125 -1.421875 13.0625 8.265625 
Q 6.59375 17.96875 6.59375 36.375 
Q 6.59375 54.828125 13.0625 64.515625 
Q 19.53125 74.21875 31.78125 74.21875 
z
" id="DejaVuSans-30"/>
      </defs>
      <g transform="translate(67.548142 189.876186)rotate(-45)scale(0.0833 -0.0833)">
       <use xlink:href="#DejaVuSans-47"/>
       <use x="77.490234" xlink:href="#DejaVuSans-4c"/>
       <use x="133.203125" xlink:href="#DejaVuSans-4e"/>
       <use x="208.007812" xlink:href="#DejaVuSans-5f"/>
       <use x="258.007812" xlink:href="#DejaVuSans-35"/>
       <use x="321.630859" xlink:href="#DejaVuSans-33"/>
       <use x="385.253906" xlink:href="#DejaVuSans-30"/>
      </g>
     </g>
    </g>
    <g id="xtick_3">
     <g id="line2d_3">
      <g>
       <use style="stroke:#000000;stroke-width:0.8;" x="107.388977" xlink:href="#m319d0ba3e4" y="152.064"/>
      </g>
     </g>
     <g id="text_3">
      <!-- ILE_531 -->
      <defs>
       <path d="M 9.8125 72.90625 
L 19.671875 72.90625 
L 19.671875 0 
L 9.8125 0 
z
" id="DejaVuSans-49"/>
       <path d="M 9.8125 72.90625 
L 55.90625 72.90625 
L 55.90625 64.59375 
L 19.671875 64.59375 
L 19.671875 43.015625 
L 54.390625 43.015625 
L 54.390625 34.71875 
L 19.671875 34.71875 
L 19.671875 8.296875 
L 56.78125 8.296875 
L 56.78125 0 
L 9.8125 0 
z
" id="DejaVuSans-45"/>
       <path d="M 12.40625 8.296875 
L 28.515625 8.296875 
L 28.515625 63.921875 
L 10.984375 60.40625 
L 10.984375 69.390625 
L 28.421875 72.90625 
L 38.28125 72.90625 
L 38.28125 8.296875 
L 54.390625 8.296875 
L 54.390625 0 
L 12.40625 0 
z
" id="DejaVuSans-31"/>
      </defs>
      <g transform="translate(88.831167 186.365075)rotate(-45)scale(0.0833 -0.0833)">
       <use xlink:href="#DejaVuSans-49"/>
       <use x="29.492188" xlink:href="#DejaVuSans-4c"/>
       <use x="85.205078" xlink:href="#DejaVuSans-45"/>
       <use x="148.388672" xlink:href="#DejaVuSans-5f"/>
       <use x="198.388672" xlink:href="#DejaVuSans-35"/>
       <use x="262.011719" xlink:href="#DejaVuSans-33"/>
       <use x="325.634766" xlink:href="#DejaVuSans-31"/>
      </g>
     </g>
    </g>
    <g id="xtick_4">
     <g id="line2d_4">
      <g>
       <use style="stroke:#000000;stroke-width:0.8;" x="125.160891" xlink:href="#m319d0ba3e4" y="152.064"/>
      </g>
     </g>
     <g id="text_4">
      <!-- VAL_539 -->
      <defs>
       <path d="M 28.609375 0 
L 0.78125 72.90625 
L 11.078125 72.90625 
L 34.1875 11.53125 
L 57.328125 72.90625 
L 67.578125 72.90625 
L 39.796875 0 
z
" id="DejaVuSans-56"/>
       <path d="M 34.1875 63.1875 
L 20.796875 26.90625 
L 47.609375 26.90625 
z
M 28.609375 72.90625 
L 39.796875 72.90625 
L 67.578125 0 
L 57.328125 0 
L 50.6875 18.703125 
L 17.828125 18.703125 
L 11.1875 0 
L 0.78125 0 
z
" id="DejaVuSans-41"/>
      </defs>
      <g transform="translate(104.009553 188.958603)rotate(-45)scale(0.0833 -0.0833)">
       <use xlink:href="#DejaVuSans-56"/>
       <use x="68.314453" xlink:href="#DejaVuSans-41"/>
       <use x="136.722656" xlink:href="#DejaVuSans-4c"/>
       <use x="192.435547" xlink:href="#DejaVuSans-5f"/>
       <use x="242.435547" xlink:href="#DejaVuSans-35"/>
       <use x="306.058594" xlink:href="#DejaVuSans-33"/>
       <use x="369.681641" xlink:href="#DejaVuSans-39"/>
      </g>
     </g>
    </g>
    <g id="xtick_5">
     <g id="line2d_5">
      <g>
       <use style="stroke:#000000;stroke-width:0.8;" x="142.932806" xlink:href="#m319d0ba3e4" y="152.064"/>
      </g>
     </g>
     <g id="text_5">
      <!-- GLN_541 -->
      <defs>
       <path d="M 37.796875 64.3125 
L 12.890625 25.390625 
L 37.796875 25.390625 
z
M 35.203125 72.90625 
L 47.609375 72.90625 
L 47.609375 25.390625 
L 58.015625 25.390625 
L 58.015625 17.1875 
L 47.609375 17.1875 
L 47.609375 0 
L 37.796875 0 
L 37.796875 17.1875 
L 4.890625 17.1875 
L 4.890625 26.703125 
z
" id="DejaVuSans-34"/>
      </defs>
      <g transform="translate(120.863885 189.876186)rotate(-45)scale(0.0833 -0.0833)">
       <use xlink:href="#DejaVuSans-47"/>
       <use x="77.490234" xlink:href="#DejaVuSans-4c"/>
       <use x="133.203125" xlink:href="#DejaVuSans-4e"/>
       <use x="208.007812" xlink:href="#DejaVuSans-5f"/>
       <use x="258.007812" xlink:href="#DejaVuSans-35"/>
       <use x="321.630859" xlink:href="#DejaVuSans-34"/>
       <use x="385.253906" xlink:href="#DejaVuSans-31"/>
      </g>
     </g>
    </g>
    <g id="xtick_6">
     <g id="line2d_6">
      <g>
       <use style="stroke:#000000;stroke-width:0.8;" x="160.70472" xlink:href="#m319d0ba3e4" y="152.064"/>
      </g>
     </g>
     <g id="text_6">
      <!-- ALA_551 -->
      <g transform="translate(139.486197 188.906143)rotate(-45)scale(0.0833 -0.0833)">
       <use xlink:href="#DejaVuSans-41"/>
       <use x="68.408203" xlink:href="#DejaVuSans-4c"/>
       <use x="124.152344" xlink:href="#DejaVuSans-41"/>
       <use x="192.560547" xlink:href="#DejaVuSans-5f"/>
       <use x="242.560547" xlink:href="#DejaVuSans-35"/>
       <use x="306.183594" xlink:href="#DejaVuSans-35"/>
       <use x="369.806641" xlink:href="#DejaVuSans-31"/>
      </g>
     </g>
    </g>
    <g id="xtick_7">
     <g id="line2d_7">
      <g>
       <use style="stroke:#000000;stroke-width:0.8;" x="178.476634" xlink:href="#m319d0ba3e4" y="152.064"/>
      </g>
     </g>
     <g id="text_7">
      <!-- LYS_553 -->
      <g transform="translate(158.053288 188.230611)rotate(-45)scale(0.0833 -0.0833)">
       <use xlink:href="#DejaVuSans-4c"/>
       <use x="55.509766" xlink:href="#DejaVuSans-59"/>
       <use x="116.59375" xlink:href="#DejaVuSans-53"/>
       <use x="180.070312" xlink:href="#DejaVuSans-5f"/>
       <use x="230.070312" xlink:href="#DejaVuSans-35"/>
       <use x="293.693359" xlink:href="#DejaVuSans-35"/>
       <use x="357.316406" xlink:href="#DejaVuSans-33"/>
      </g>
     </g>
    </g>
    <g id="xtick_8">
     <g id="line2d_8">
      <g>
       <use style="stroke:#000000;stroke-width:0.8;" x="196.248549" xlink:href="#m319d0ba3e4" y="152.064"/>
      </g>
     </g>
     <g id="text_8">
      <!-- GLU_571 -->
      <defs>
       <path d="M 8.6875 72.90625 
L 18.609375 72.90625 
L 18.609375 28.609375 
Q 18.609375 16.890625 22.84375 11.734375 
Q 27.09375 6.59375 36.625 6.59375 
Q 46.09375 6.59375 50.34375 11.734375 
Q 54.59375 16.890625 54.59375 28.609375 
L 54.59375 72.90625 
L 64.5 72.90625 
L 64.5 27.390625 
Q 64.5 13.140625 57.4375 5.859375 
Q 50.390625 -1.421875 36.625 -1.421875 
Q 22.796875 -1.421875 15.734375 5.859375 
Q 8.6875 13.140625 8.6875 27.390625 
z
" id="DejaVuSans-55"/>
       <path d="M 8.203125 72.90625 
L 55.078125 72.90625 
L 55.078125 68.703125 
L 28.609375 0 
L 18.3125 0 
L 43.21875 64.59375 
L 8.203125 64.59375 
z
" id="DejaVuSans-37"/>
      </defs>
      <g transform="translate(174.279945 189.775868)rotate(-45)scale(0.0833 -0.0833)">
       <use xlink:href="#DejaVuSans-47"/>
       <use x="77.490234" xlink:href="#DejaVuSans-4c"/>
       <use x="133.125" xlink:href="#DejaVuSans-55"/>
       <use x="206.318359" xlink:href="#DejaVuSans-5f"/>
       <use x="256.318359" xlink:href="#DejaVuSans-35"/>
       <use x="319.941406" xlink:href="#DejaVuSans-37"/>
       <use x="383.564453" xlink:href="#DejaVuSans-31"/>
      </g>
     </g>
    </g>
    <g id="xtick_9">
     <g id="line2d_9">
      <g>
       <use style="stroke:#000000;stroke-width:0.8;" x="214.020463" xlink:href="#m319d0ba3e4" y="152.064"/>
      </g>
     </g>
     <g id="text_9">
      <!-- LEU_575 -->
      <g transform="translate(192.82955 188.878533)rotate(-45)scale(0.0833 -0.0833)">
       <use xlink:href="#DejaVuSans-4c"/>
       <use x="55.712891" xlink:href="#DejaVuSans-45"/>
       <use x="118.896484" xlink:href="#DejaVuSans-55"/>
       <use x="192.089844" xlink:href="#DejaVuSans-5f"/>
       <use x="242.089844" xlink:href="#DejaVuSans-35"/>
       <use x="305.712891" xlink:href="#DejaVuSans-37"/>
       <use x="369.335938" xlink:href="#DejaVuSans-35"/>
      </g>
     </g>
    </g>
    <g id="xtick_10">
     <g id="line2d_10">
      <g>
       <use style="stroke:#000000;stroke-width:0.8;" x="231.792377" xlink:href="#m319d0ba3e4" y="152.064"/>
      </g>
     </g>
     <g id="text_10">
      <!-- ILE_585 -->
      <defs>
       <path d="M 31.78125 34.625 
Q 24.75 34.625 20.71875 30.859375 
Q 16.703125 27.09375 16.703125 20.515625 
Q 16.703125 13.921875 20.71875 10.15625 
Q 24.75 6.390625 31.78125 6.390625 
Q 38.8125 6.390625 42.859375 10.171875 
Q 46.921875 13.96875 46.921875 20.515625 
Q 46.921875 27.09375 42.890625 30.859375 
Q 38.875 34.625 31.78125 34.625 
z
M 21.921875 38.8125 
Q 15.578125 40.375 12.03125 44.71875 
Q 8.5 49.078125 8.5 55.328125 
Q 8.5 64.0625 14.71875 69.140625 
Q 20.953125 74.21875 31.78125 74.21875 
Q 42.671875 74.21875 48.875 69.140625 
Q 55.078125 64.0625 55.078125 55.328125 
Q 55.078125 49.078125 51.53125 44.71875 
Q 48 40.375 41.703125 38.8125 
Q 48.828125 37.15625 52.796875 32.3125 
Q 56.78125 27.484375 56.78125 20.515625 
Q 56.78125 9.90625 50.3125 4.234375 
Q 43.84375 -1.421875 31.78125 -1.421875 
Q 19.734375 -1.421875 13.25 4.234375 
Q 6.78125 9.90625 6.78125 20.515625 
Q 6.78125 27.484375 10.78125 32.3125 
Q 14.796875 37.15625 21.921875 38.8125 
z
M 18.3125 54.390625 
Q 18.3125 48.734375 21.84375 45.5625 
Q 25.390625 42.390625 31.78125 42.390625 
Q 38.140625 42.390625 41.71875 45.5625 
Q 45.3125 48.734375 45.3125 54.390625 
Q 45.3125 60.0625 41.71875 63.234375 
Q 38.140625 66.40625 31.78125 66.40625 
Q 25.390625 66.40625 21.84375 63.234375 
Q 18.3125 60.0625 18.3125 54.390625 
z
" id="DejaVuSans-38"/>
      </defs>
      <g transform="translate(213.234567 186.365075)rotate(-45)scale(0.0833 -0.0833)">
       <use xlink:href="#DejaVuSans-49"/>
       <use x="29.492188" xlink:href="#DejaVuSans-4c"/>
       <use x="85.205078" xlink:href="#DejaVuSans-45"/>
       <use x="148.388672" xlink:href="#DejaVuSans-5f"/>
       <use x="198.388672" xlink:href="#DejaVuSans-35"/>
       <use x="262.011719" xlink:href="#DejaVuSans-38"/>
       <use x="325.634766" xlink:href="#DejaVuSans-35"/>
      </g>
     </g>
    </g>
    <g id="xtick_11">
     <g id="line2d_11">
      <g>
       <use style="stroke:#000000;stroke-width:0.8;" x="249.564291" xlink:href="#m319d0ba3e4" y="152.064"/>
      </g>
     </g>
     <g id="text_11">
      <!-- ILE_586 -->
      <defs>
       <path d="M 33.015625 40.375 
Q 26.375 40.375 22.484375 35.828125 
Q 18.609375 31.296875 18.609375 23.390625 
Q 18.609375 15.53125 22.484375 10.953125 
Q 26.375 6.390625 33.015625 6.390625 
Q 39.65625 6.390625 43.53125 10.953125 
Q 47.40625 15.53125 47.40625 23.390625 
Q 47.40625 31.296875 43.53125 35.828125 
Q 39.65625 40.375 33.015625 40.375 
z
M 52.59375 71.296875 
L 52.59375 62.3125 
Q 48.875 64.0625 45.09375 64.984375 
Q 41.3125 65.921875 37.59375 65.921875 
Q 27.828125 65.921875 22.671875 59.328125 
Q 17.53125 52.734375 16.796875 39.40625 
Q 19.671875 43.65625 24.015625 45.921875 
Q 28.375 48.1875 33.59375 48.1875 
Q 44.578125 48.1875 50.953125 41.515625 
Q 57.328125 34.859375 57.328125 23.390625 
Q 57.328125 12.15625 50.6875 5.359375 
Q 44.046875 -1.421875 33.015625 -1.421875 
Q 20.359375 -1.421875 13.671875 8.265625 
Q 6.984375 17.96875 6.984375 36.375 
Q 6.984375 53.65625 15.1875 63.9375 
Q 23.390625 74.21875 37.203125 74.21875 
Q 40.921875 74.21875 44.703125 73.484375 
Q 48.484375 72.75 52.59375 71.296875 
z
" id="DejaVuSans-36"/>
      </defs>
      <g transform="translate(231.006482 186.365075)rotate(-45)scale(0.0833 -0.0833)">
       <use xlink:href="#DejaVuSans-49"/>
       <use x="29.492188" xlink:href="#DejaVuSans-4c"/>
       <use x="85.205078" xlink:href="#DejaVuSans-45"/>
       <use x="148.388672" xlink:href="#DejaVuSans-5f"/>
       <use x="198.388672" xlink:href="#DejaVuSans-35"/>
       <use x="262.011719" xlink:href="#DejaVuSans-38"/>
       <use x="325.634766" xlink:href="#DejaVuSans-36"/>
      </g>
     </g>
    </g>
    <g id="xtick_12">
     <g id="line2d_12">
      <g>
       <use style="stroke:#000000;stroke-width:0.8;" x="267.336206" xlink:href="#m319d0ba3e4" y="152.064"/>
      </g>
     </g>
     <g id="text_12">
      <!-- LEU_588 -->
      <g transform="translate(246.205115 188.938356)rotate(-45)scale(0.0833 -0.0833)">
       <use xlink:href="#DejaVuSans-4c"/>
       <use x="55.712891" xlink:href="#DejaVuSans-45"/>
       <use x="118.896484" xlink:href="#DejaVuSans-55"/>
       <use x="192.089844" xlink:href="#DejaVuSans-5f"/>
       <use x="242.089844" xlink:href="#DejaVuSans-35"/>
       <use x="305.712891" xlink:href="#DejaVuSans-38"/>
       <use x="369.335938" xlink:href="#DejaVuSans-38"/>
      </g>
     </g>
    </g>
    <g id="xtick_13">
     <g id="line2d_13">
      <g>
       <use style="stroke:#000000;stroke-width:0.8;" x="285.10812" xlink:href="#m319d0ba3e4" y="152.064"/>
      </g>
     </g>
     <g id="text_13">
      <!-- MET_600 -->
      <defs>
       <path d="M 9.8125 72.90625 
L 24.515625 72.90625 
L 43.109375 23.296875 
L 61.8125 72.90625 
L 76.515625 72.90625 
L 76.515625 0 
L 66.890625 0 
L 66.890625 64.015625 
L 48.09375 14.015625 
L 38.1875 14.015625 
L 19.390625 64.015625 
L 19.390625 0 
L 9.8125 0 
z
" id="DejaVuSans-4d"/>
       <path d="M -0.296875 72.90625 
L 61.375 72.90625 
L 61.375 64.59375 
L 35.5 64.59375 
L 35.5 0 
L 25.59375 0 
L 25.59375 64.59375 
L -0.296875 64.59375 
z
" id="DejaVuSans-54"/>
      </defs>
      <g transform="translate(262.890103 190.025281)rotate(-45)scale(0.0833 -0.0833)">
       <use xlink:href="#DejaVuSans-4d"/>
       <use x="86.279297" xlink:href="#DejaVuSans-45"/>
       <use x="149.462891" xlink:href="#DejaVuSans-54"/>
       <use x="210.546875" xlink:href="#DejaVuSans-5f"/>
       <use x="260.546875" xlink:href="#DejaVuSans-36"/>
       <use x="324.169922" xlink:href="#DejaVuSans-30"/>
       <use x="387.792969" xlink:href="#DejaVuSans-30"/>
      </g>
     </g>
    </g>
    <g id="xtick_14">
     <g id="line2d_14">
      <g>
       <use style="stroke:#000000;stroke-width:0.8;" x="302.880034" xlink:href="#m319d0ba3e4" y="152.064"/>
      </g>
     </g>
     <g id="text_14">
      <!-- MET_602 -->
      <g transform="translate(280.662018 190.025281)rotate(-45)scale(0.0833 -0.0833)">
       <use xlink:href="#DejaVuSans-4d"/>
       <use x="86.279297" xlink:href="#DejaVuSans-45"/>
       <use x="149.462891" xlink:href="#DejaVuSans-54"/>
       <use x="210.546875" xlink:href="#DejaVuSans-5f"/>
       <use x="260.546875" xlink:href="#DejaVuSans-36"/>
       <use x="324.169922" xlink:href="#DejaVuSans-30"/>
       <use x="387.792969" xlink:href="#DejaVuSans-32"/>
      </g>
     </g>
    </g>
    <g id="xtick_15">
     <g id="line2d_15">
      <g>
       <use style="stroke:#000000;stroke-width:0.8;" x="320.651949" xlink:href="#m319d0ba3e4" y="152.064"/>
      </g>
     </g>
     <g id="text_15">
      <!-- GLU_603 -->
      <g transform="translate(298.683345 189.775868)rotate(-45)scale(0.0833 -0.0833)">
       <use xlink:href="#DejaVuSans-47"/>
       <use x="77.490234" xlink:href="#DejaVuSans-4c"/>
       <use x="133.125" xlink:href="#DejaVuSans-55"/>
       <use x="206.318359" xlink:href="#DejaVuSans-5f"/>
       <use x="256.318359" xlink:href="#DejaVuSans-36"/>
       <use x="319.941406" xlink:href="#DejaVuSans-30"/>
       <use x="383.564453" xlink:href="#DejaVuSans-33"/>
      </g>
     </g>
    </g>
    <g id="xtick_16">
     <g id="line2d_16">
      <g>
       <use style="stroke:#000000;stroke-width:0.8;" x="338.423863" xlink:href="#m319d0ba3e4" y="152.064"/>
      </g>
     </g>
     <g id="text_16">
      <!-- CYS_604 -->
      <defs>
       <path d="M 64.40625 67.28125 
L 64.40625 56.890625 
Q 59.421875 61.53125 53.78125 63.8125 
Q 48.140625 66.109375 41.796875 66.109375 
Q 29.296875 66.109375 22.65625 58.46875 
Q 16.015625 50.828125 16.015625 36.375 
Q 16.015625 21.96875 22.65625 14.328125 
Q 29.296875 6.6875 41.796875 6.6875 
Q 48.140625 6.6875 53.78125 8.984375 
Q 59.421875 11.28125 64.40625 15.921875 
L 64.40625 5.609375 
Q 59.234375 2.09375 53.4375 0.328125 
Q 47.65625 -1.421875 41.21875 -1.421875 
Q 24.65625 -1.421875 15.125 8.703125 
Q 5.609375 18.84375 5.609375 36.375 
Q 5.609375 53.953125 15.125 64.078125 
Q 24.65625 74.21875 41.21875 74.21875 
Q 47.75 74.21875 53.53125 72.484375 
Q 59.328125 70.75 64.40625 67.28125 
z
" id="DejaVuSans-43"/>
      </defs>
      <g transform="translate(317.158402 189.072726)rotate(-45)scale(0.0833 -0.0833)">
       <use xlink:href="#DejaVuSans-43"/>
       <use x="69.808594" xlink:href="#DejaVuSans-59"/>
       <use x="130.892578" xlink:href="#DejaVuSans-53"/>
       <use x="194.369141" xlink:href="#DejaVuSans-5f"/>
       <use x="244.369141" xlink:href="#DejaVuSans-36"/>
       <use x="307.992188" xlink:href="#DejaVuSans-30"/>
       <use x="371.615234" xlink:href="#DejaVuSans-34"/>
      </g>
     </g>
    </g>
    <g id="xtick_17">
     <g id="line2d_17">
      <g>
       <use style="stroke:#000000;stroke-width:0.8;" x="356.195777" xlink:href="#m319d0ba3e4" y="152.064"/>
      </g>
     </g>
     <g id="text_17">
      <!-- GLY_605 -->
      <g transform="translate(334.947803 189.055239)rotate(-45)scale(0.0833 -0.0833)">
       <use xlink:href="#DejaVuSans-47"/>
       <use x="77.490234" xlink:href="#DejaVuSans-4c"/>
       <use x="133" xlink:href="#DejaVuSans-59"/>
       <use x="194.083984" xlink:href="#DejaVuSans-5f"/>
       <use x="244.083984" xlink:href="#DejaVuSans-36"/>
       <use x="307.707031" xlink:href="#DejaVuSans-30"/>
       <use x="371.330078" xlink:href="#DejaVuSans-35"/>
      </g>
     </g>
    </g>
    <g id="xtick_18">
     <g id="line2d_18">
      <g>
       <use style="stroke:#000000;stroke-width:0.8;" x="373.967691" xlink:href="#m319d0ba3e4" y="152.064"/>
      </g>
     </g>
     <g id="text_18">
      <!-- ASN_606 -->
      <g transform="translate(351.976079 189.798877)rotate(-45)scale(0.0833 -0.0833)">
       <use xlink:href="#DejaVuSans-41"/>
       <use x="68.408203" xlink:href="#DejaVuSans-53"/>
       <use x="131.884766" xlink:href="#DejaVuSans-4e"/>
       <use x="206.689453" xlink:href="#DejaVuSans-5f"/>
       <use x="256.689453" xlink:href="#DejaVuSans-36"/>
       <use x="320.3125" xlink:href="#DejaVuSans-30"/>
       <use x="383.935547" xlink:href="#DejaVuSans-36"/>
      </g>
     </g>
    </g>
    <g id="xtick_19">
     <g id="line2d_19">
      <g>
       <use style="stroke:#000000;stroke-width:0.8;" x="391.739606" xlink:href="#m319d0ba3e4" y="152.064"/>
      </g>
     </g>
     <g id="text_19">
      <!-- ILE_607 -->
      <g transform="translate(373.181796 186.365075)rotate(-45)scale(0.0833 -0.0833)">
       <use xlink:href="#DejaVuSans-49"/>
       <use x="29.492188" xlink:href="#DejaVuSans-4c"/>
       <use x="85.205078" xlink:href="#DejaVuSans-45"/>
       <use x="148.388672" xlink:href="#DejaVuSans-5f"/>
       <use x="198.388672" xlink:href="#DejaVuSans-36"/>
       <use x="262.011719" xlink:href="#DejaVuSans-30"/>
       <use x="325.634766" xlink:href="#DejaVuSans-37"/>
      </g>
     </g>
    </g>
    <g id="xtick_20">
     <g id="line2d_20">
      <g>
       <use style="stroke:#000000;stroke-width:0.8;" x="409.51152" xlink:href="#m319d0ba3e4" y="152.064"/>
      </g>
     </g>
     <g id="text_20">
      <!-- ASP_608 -->
      <defs>
       <path d="M 19.671875 64.796875 
L 19.671875 37.40625 
L 32.078125 37.40625 
Q 38.96875 37.40625 42.71875 40.96875 
Q 46.484375 44.53125 46.484375 51.125 
Q 46.484375 57.671875 42.71875 61.234375 
Q 38.96875 64.796875 32.078125 64.796875 
z
M 9.8125 72.90625 
L 32.078125 72.90625 
Q 44.34375 72.90625 50.609375 67.359375 
Q 56.890625 61.8125 56.890625 51.125 
Q 56.890625 40.328125 50.609375 34.8125 
Q 44.34375 29.296875 32.078125 29.296875 
L 19.671875 29.296875 
L 19.671875 0 
L 9.8125 0 
z
" id="DejaVuSans-50"/>
      </defs>
      <g transform="translate(388.374907 188.943878)rotate(-45)scale(0.0833 -0.0833)">
       <use xlink:href="#DejaVuSans-41"/>
       <use x="68.408203" xlink:href="#DejaVuSans-53"/>
       <use x="131.884766" xlink:href="#DejaVuSans-50"/>
       <use x="192.1875" xlink:href="#DejaVuSans-5f"/>
       <use x="242.1875" xlink:href="#DejaVuSans-36"/>
       <use x="305.810547" xlink:href="#DejaVuSans-30"/>
       <use x="369.433594" xlink:href="#DejaVuSans-38"/>
      </g>
     </g>
    </g>
    <g id="xtick_21">
     <g id="line2d_21">
      <g>
       <use style="stroke:#000000;stroke-width:0.8;" x="427.283434" xlink:href="#m319d0ba3e4" y="152.064"/>
      </g>
     </g>
     <g id="text_21">
      <!-- SER_611 -->
      <defs>
       <path d="M 44.390625 34.1875 
Q 47.5625 33.109375 50.5625 29.59375 
Q 53.5625 26.078125 56.59375 19.921875 
L 66.609375 0 
L 56 0 
L 46.6875 18.703125 
Q 43.0625 26.03125 39.671875 28.421875 
Q 36.28125 30.8125 30.421875 30.8125 
L 19.671875 30.8125 
L 19.671875 0 
L 9.8125 0 
L 9.8125 72.90625 
L 32.078125 72.90625 
Q 44.578125 72.90625 50.734375 67.671875 
Q 56.890625 62.453125 56.890625 51.90625 
Q 56.890625 45.015625 53.6875 40.46875 
Q 50.484375 35.9375 44.390625 34.1875 
z
M 19.671875 64.796875 
L 19.671875 38.921875 
L 32.078125 38.921875 
Q 39.203125 38.921875 42.84375 42.21875 
Q 46.484375 45.515625 46.484375 51.90625 
Q 46.484375 58.296875 42.84375 61.546875 
Q 39.203125 64.796875 32.078125 64.796875 
z
" id="DejaVuSans-52"/>
      </defs>
      <g transform="translate(405.913054 189.177645)rotate(-45)scale(0.0833 -0.0833)">
       <use xlink:href="#DejaVuSans-53"/>
       <use x="63.476562" xlink:href="#DejaVuSans-45"/>
       <use x="126.660156" xlink:href="#DejaVuSans-52"/>
       <use x="196.142578" xlink:href="#DejaVuSans-5f"/>
       <use x="246.142578" xlink:href="#DejaVuSans-36"/>
       <use x="309.765625" xlink:href="#DejaVuSans-31"/>
       <use x="373.388672" xlink:href="#DejaVuSans-31"/>
      </g>
     </g>
    </g>
    <g id="xtick_22">
     <g id="line2d_22">
      <g>
       <use style="stroke:#000000;stroke-width:0.8;" x="445.055349" xlink:href="#m319d0ba3e4" y="152.064"/>
      </g>
     </g>
     <g id="text_22">
      <!-- LYS_615 -->
      <g transform="translate(424.632002 188.230611)rotate(-45)scale(0.0833 -0.0833)">
       <use xlink:href="#DejaVuSans-4c"/>
       <use x="55.509766" xlink:href="#DejaVuSans-59"/>
       <use x="116.59375" xlink:href="#DejaVuSans-53"/>
       <use x="180.070312" xlink:href="#DejaVuSans-5f"/>
       <use x="230.070312" xlink:href="#DejaVuSans-36"/>
       <use x="293.693359" xlink:href="#DejaVuSans-31"/>
       <use x="357.316406" xlink:href="#DejaVuSans-35"/>
      </g>
     </g>
    </g>
    <g id="xtick_23">
     <g id="line2d_23">
      <g>
       <use style="stroke:#000000;stroke-width:0.8;" x="462.827263" xlink:href="#m319d0ba3e4" y="152.064"/>
      </g>
     </g>
     <g id="text_23">
      <!-- LEU_654 -->
      <g transform="translate(441.696172 188.938356)rotate(-45)scale(0.0833 -0.0833)">
       <use xlink:href="#DejaVuSans-4c"/>
       <use x="55.712891" xlink:href="#DejaVuSans-45"/>
       <use x="118.896484" xlink:href="#DejaVuSans-55"/>
       <use x="192.089844" xlink:href="#DejaVuSans-5f"/>
       <use x="242.089844" xlink:href="#DejaVuSans-36"/>
       <use x="305.712891" xlink:href="#DejaVuSans-35"/>
       <use x="369.335938" xlink:href="#DejaVuSans-34"/>
      </g>
     </g>
    </g>
    <g id="xtick_24">
     <g id="line2d_24">
      <g>
       <use style="stroke:#000000;stroke-width:0.8;" x="480.599177" xlink:href="#m319d0ba3e4" y="152.064"/>
      </g>
     </g>
     <g id="text_24">
      <!-- ILE_663 -->
      <g transform="translate(462.041367 186.365075)rotate(-45)scale(0.0833 -0.0833)">
       <use xlink:href="#DejaVuSans-49"/>
       <use x="29.492188" xlink:href="#DejaVuSans-4c"/>
       <use x="85.205078" xlink:href="#DejaVuSans-45"/>
       <use x="148.388672" xlink:href="#DejaVuSans-5f"/>
       <use x="198.388672" xlink:href="#DejaVuSans-36"/>
       <use x="262.011719" xlink:href="#DejaVuSans-36"/>
       <use x="325.634766" xlink:href="#DejaVuSans-33"/>
      </g>
     </g>
    </g>
    <g id="xtick_25">
     <g id="line2d_25">
      <g>
       <use style="stroke:#000000;stroke-width:0.8;" x="498.371091" xlink:href="#m319d0ba3e4" y="152.064"/>
      </g>
     </g>
     <g id="text_25">
      <!-- ASP_664 -->
      <g transform="translate(477.234479 188.943878)rotate(-45)scale(0.0833 -0.0833)">
       <use xlink:href="#DejaVuSans-41"/>
       <use x="68.408203" xlink:href="#DejaVuSans-53"/>
       <use x="131.884766" xlink:href="#DejaVuSans-50"/>
       <use x="192.1875" xlink:href="#DejaVuSans-5f"/>
       <use x="242.1875" xlink:href="#DejaVuSans-36"/>
       <use x="305.810547" xlink:href="#DejaVuSans-36"/>
       <use x="369.433594" xlink:href="#DejaVuSans-34"/>
      </g>
     </g>
    </g>
    <g id="xtick_26">
     <g id="line2d_26">
      <g>
       <use style="stroke:#000000;stroke-width:0.8;" x="516.143006" xlink:href="#m319d0ba3e4" y="152.064"/>
      </g>
     </g>
     <g id="text_26">
      <!-- PHE_665 -->
      <defs>
       <path d="M 9.8125 72.90625 
L 19.671875 72.90625 
L 19.671875 43.015625 
L 55.515625 43.015625 
L 55.515625 72.90625 
L 65.375 72.90625 
L 65.375 0 
L 55.515625 0 
L 55.515625 34.71875 
L 19.671875 34.71875 
L 19.671875 0 
L 9.8125 0 
z
" id="DejaVuSans-48"/>
      </defs>
      <g transform="translate(494.62353 189.326741)rotate(-45)scale(0.0833 -0.0833)">
       <use xlink:href="#DejaVuSans-50"/>
       <use x="60.302734" xlink:href="#DejaVuSans-48"/>
       <use x="135.498047" xlink:href="#DejaVuSans-45"/>
       <use x="198.681641" xlink:href="#DejaVuSans-5f"/>
       <use x="248.681641" xlink:href="#DejaVuSans-36"/>
       <use x="312.304688" xlink:href="#DejaVuSans-36"/>
       <use x="375.927734" xlink:href="#DejaVuSans-35"/>
      </g>
     </g>
    </g>
    <g id="xtick_27">
     <g id="line2d_27">
      <g>
       <use style="stroke:#000000;stroke-width:0.8;" x="533.91492" xlink:href="#m319d0ba3e4" y="152.064"/>
      </g>
     </g>
     <g id="text_27">
      <!-- ILE_667 -->
      <g transform="translate(515.35711 186.365075)rotate(-45)scale(0.0833 -0.0833)">
       <use xlink:href="#DejaVuSans-49"/>
       <use x="29.492188" xlink:href="#DejaVuSans-4c"/>
       <use x="85.205078" xlink:href="#DejaVuSans-45"/>
       <use x="148.388672" xlink:href="#DejaVuSans-5f"/>
       <use x="198.388672" xlink:href="#DejaVuSans-36"/>
       <use x="262.011719" xlink:href="#DejaVuSans-36"/>
       <use x="325.634766" xlink:href="#DejaVuSans-37"/>
      </g>
     </g>
    </g>
    <g id="xtick_28">
     <g id="line2d_28">
      <g>
       <use style="stroke:#000000;stroke-width:0.8;" x="551.686834" xlink:href="#m319d0ba3e4" y="152.064"/>
      </g>
     </g>
     <g id="text_28">
      <!-- ALA_668 -->
      <g transform="translate(530.528133 188.965966)rotate(-45)scale(0.0833 -0.0833)">
       <use xlink:href="#DejaVuSans-41"/>
       <use x="68.408203" xlink:href="#DejaVuSans-4c"/>
       <use x="124.152344" xlink:href="#DejaVuSans-41"/>
       <use x="192.560547" xlink:href="#DejaVuSans-5f"/>
       <use x="242.560547" xlink:href="#DejaVuSans-36"/>
       <use x="306.183594" xlink:href="#DejaVuSans-36"/>
       <use x="369.806641" xlink:href="#DejaVuSans-38"/>
      </g>
     </g>
    </g>
    <g id="xtick_29">
     <g id="line2d_29">
      <g>
       <use style="stroke:#000000;stroke-width:0.8;" x="569.458749" xlink:href="#m319d0ba3e4" y="152.064"/>
      </g>
     </g>
     <g id="text_29">
      <!-- ASN_669 -->
      <g transform="translate(547.467137 189.798877)rotate(-45)scale(0.0833 -0.0833)">
       <use xlink:href="#DejaVuSans-41"/>
       <use x="68.408203" xlink:href="#DejaVuSans-53"/>
       <use x="131.884766" xlink:href="#DejaVuSans-4e"/>
       <use x="206.689453" xlink:href="#DejaVuSans-5f"/>
       <use x="256.689453" xlink:href="#DejaVuSans-36"/>
       <use x="320.3125" xlink:href="#DejaVuSans-36"/>
       <use x="383.935547" xlink:href="#DejaVuSans-39"/>
      </g>
     </g>
    </g>
    <g id="xtick_30">
     <g id="line2d_30">
      <g>
       <use style="stroke:#000000;stroke-width:0.8;" x="587.230663" xlink:href="#m319d0ba3e4" y="152.064"/>
      </g>
     </g>
     <g id="text_30">
      <!-- GLN_670 -->
      <g transform="translate(565.161742 189.876186)rotate(-45)scale(0.0833 -0.0833)">
       <use xlink:href="#DejaVuSans-47"/>
       <use x="77.490234" xlink:href="#DejaVuSans-4c"/>
       <use x="133.203125" xlink:href="#DejaVuSans-4e"/>
       <use x="208.007812" xlink:href="#DejaVuSans-5f"/>
       <use x="258.007812" xlink:href="#DejaVuSans-36"/>
       <use x="321.630859" xlink:href="#DejaVuSans-37"/>
       <use x="385.253906" xlink:href="#DejaVuSans-30"/>
      </g>
     </g>
    </g>
    <g id="xtick_31">
     <g id="line2d_31">
      <g>
       <use style="stroke:#000000;stroke-width:0.8;" x="605.002577" xlink:href="#m319d0ba3e4" y="152.064"/>
      </g>
     </g>
     <g id="text_31">
      <!-- MET_671 -->
      <g transform="translate(582.784561 190.025281)rotate(-45)scale(0.0833 -0.0833)">
       <use xlink:href="#DejaVuSans-4d"/>
       <use x="86.279297" xlink:href="#DejaVuSans-45"/>
       <use x="149.462891" xlink:href="#DejaVuSans-54"/>
       <use x="210.546875" xlink:href="#DejaVuSans-5f"/>
       <use x="260.546875" xlink:href="#DejaVuSans-36"/>
       <use x="324.169922" xlink:href="#DejaVuSans-37"/>
       <use x="387.792969" xlink:href="#DejaVuSans-31"/>
      </g>
     </g>
    </g>
    <g id="xtick_32">
     <g id="line2d_32">
      <g>
       <use style="stroke:#000000;stroke-width:0.8;" x="622.774491" xlink:href="#m319d0ba3e4" y="152.064"/>
      </g>
     </g>
     <g id="text_32">
      <!-- PRO_673 -->
      <defs>
       <path d="M 39.40625 66.21875 
Q 28.65625 66.21875 22.328125 58.203125 
Q 16.015625 50.203125 16.015625 36.375 
Q 16.015625 22.609375 22.328125 14.59375 
Q 28.65625 6.59375 39.40625 6.59375 
Q 50.140625 6.59375 56.421875 14.59375 
Q 62.703125 22.609375 62.703125 36.375 
Q 62.703125 50.203125 56.421875 58.203125 
Q 50.140625 66.21875 39.40625 66.21875 
z
M 39.40625 74.21875 
Q 54.734375 74.21875 63.90625 63.9375 
Q 73.09375 53.65625 73.09375 36.375 
Q 73.09375 19.140625 63.90625 8.859375 
Q 54.734375 -1.421875 39.40625 -1.421875 
Q 24.03125 -1.421875 14.8125 8.828125 
Q 5.609375 19.09375 5.609375 36.375 
Q 5.609375 53.65625 14.8125 63.9375 
Q 24.03125 74.21875 39.40625 74.21875 
z
" id="DejaVuSans-4f"/>
      </defs>
      <g transform="translate(600.67704 189.904716)rotate(-45)scale(0.0833 -0.0833)">
       <use xlink:href="#DejaVuSans-50"/>
       <use x="60.302734" xlink:href="#DejaVuSans-52"/>
       <use x="129.785156" xlink:href="#DejaVuSans-4f"/>
       <use x="208.496094" xlink:href="#DejaVuSans-5f"/>
       <use x="258.496094" xlink:href="#DejaVuSans-36"/>
       <use x="322.119141" xlink:href="#DejaVuSans-37"/>
       <use x="385.742188" xlink:href="#DejaVuSans-33"/>
      </g>
     </g>
    </g>
    <g id="xtick_33">
     <g id="line2d_33">
      <g>
       <use style="stroke:#000000;stroke-width:0.8;" x="640.546406" xlink:href="#m319d0ba3e4" y="152.064"/>
      </g>
     </g>
     <g id="text_33">
      <!-- ASP_674 -->
      <g transform="translate(619.409793 188.943878)rotate(-45)scale(0.0833 -0.0833)">
       <use xlink:href="#DejaVuSans-41"/>
       <use x="68.408203" xlink:href="#DejaVuSans-53"/>
       <use x="131.884766" xlink:href="#DejaVuSans-50"/>
       <use x="192.1875" xlink:href="#DejaVuSans-5f"/>
       <use x="242.1875" xlink:href="#DejaVuSans-36"/>
       <use x="305.810547" xlink:href="#DejaVuSans-37"/>
       <use x="369.433594" xlink:href="#DejaVuSans-34"/>
      </g>
     </g>
    </g>
    <g id="xtick_34">
     <g id="line2d_34">
      <g>
       <use style="stroke:#000000;stroke-width:0.8;" x="658.31832" xlink:href="#m319d0ba3e4" y="152.064"/>
      </g>
     </g>
     <g id="text_34">
      <!-- THR_675 -->
      <g transform="translate(636.381929 189.743656)rotate(-45)scale(0.0833 -0.0833)">
       <use xlink:href="#DejaVuSans-54"/>
       <use x="61.083984" xlink:href="#DejaVuSans-48"/>
       <use x="136.279297" xlink:href="#DejaVuSans-52"/>
       <use x="205.761719" xlink:href="#DejaVuSans-5f"/>
       <use x="255.761719" xlink:href="#DejaVuSans-36"/>
       <use x="319.384766" xlink:href="#DejaVuSans-37"/>
       <use x="383.007812" xlink:href="#DejaVuSans-35"/>
      </g>
     </g>
    </g>
    <g id="xtick_35">
     <g id="line2d_35">
      <g>
       <use style="stroke:#000000;stroke-width:0.8;" x="676.090234" xlink:href="#m319d0ba3e4" y="152.064"/>
      </g>
     </g>
     <g id="text_35">
      <!-- THR_676 -->
      <g transform="translate(654.153843 189.743656)rotate(-45)scale(0.0833 -0.0833)">
       <use xlink:href="#DejaVuSans-54"/>
       <use x="61.083984" xlink:href="#DejaVuSans-48"/>
       <use x="136.279297" xlink:href="#DejaVuSans-52"/>
       <use x="205.761719" xlink:href="#DejaVuSans-5f"/>
       <use x="255.761719" xlink:href="#DejaVuSans-36"/>
       <use x="319.384766" xlink:href="#DejaVuSans-37"/>
       <use x="383.007812" xlink:href="#DejaVuSans-36"/>
      </g>
     </g>
    </g>
    <g id="xtick_36">
     <g id="line2d_36">
      <g>
       <use style="stroke:#000000;stroke-width:0.8;" x="693.862149" xlink:href="#m319d0ba3e4" y="152.064"/>
      </g>
     </g>
     <g id="text_36">
      <!-- SER_677 -->
      <g transform="translate(672.491769 189.177645)rotate(-45)scale(0.0833 -0.0833)">
       <use xlink:href="#DejaVuSans-53"/>
       <use x="63.476562" xlink:href="#DejaVuSans-45"/>
       <use x="126.660156" xlink:href="#DejaVuSans-52"/>
       <use x="196.142578" xlink:href="#DejaVuSans-5f"/>
       <use x="246.142578" xlink:href="#DejaVuSans-36"/>
       <use x="309.765625" xlink:href="#DejaVuSans-37"/>
       <use x="373.388672" xlink:href="#DejaVuSans-37"/>
      </g>
     </g>
    </g>
    <g id="xtick_37">
     <g id="line2d_37">
      <g>
       <use style="stroke:#000000;stroke-width:0.8;" x="711.634063" xlink:href="#m319d0ba3e4" y="152.064"/>
      </g>
     </g>
     <g id="text_37">
      <!-- VAL_678 -->
      <g transform="translate(690.482725 188.958603)rotate(-45)scale(0.0833 -0.0833)">
       <use xlink:href="#DejaVuSans-56"/>
       <use x="68.314453" xlink:href="#DejaVuSans-41"/>
       <use x="136.722656" xlink:href="#DejaVuSans-4c"/>
       <use x="192.435547" xlink:href="#DejaVuSans-5f"/>
       <use x="242.435547" xlink:href="#DejaVuSans-36"/>
       <use x="306.058594" xlink:href="#DejaVuSans-37"/>
       <use x="369.681641" xlink:href="#DejaVuSans-38"/>
      </g>
     </g>
    </g>
    <g id="xtick_38">
     <g id="line2d_38">
      <g>
       <use style="stroke:#000000;stroke-width:0.8;" x="729.405977" xlink:href="#m319d0ba3e4" y="152.064"/>
      </g>
     </g>
     <g id="text_38">
      <!-- VAL_679 -->
      <g transform="translate(708.254639 188.958603)rotate(-45)scale(0.0833 -0.0833)">
       <use xlink:href="#DejaVuSans-56"/>
       <use x="68.314453" xlink:href="#DejaVuSans-41"/>
       <use x="136.722656" xlink:href="#DejaVuSans-4c"/>
       <use x="192.435547" xlink:href="#DejaVuSans-5f"/>
       <use x="242.435547" xlink:href="#DejaVuSans-36"/>
       <use x="306.058594" xlink:href="#DejaVuSans-37"/>
       <use x="369.681641" xlink:href="#DejaVuSans-39"/>
      </g>
     </g>
    </g>
    <g id="xtick_39">
     <g id="line2d_39">
      <g>
       <use style="stroke:#000000;stroke-width:0.8;" x="747.177891" xlink:href="#m319d0ba3e4" y="152.064"/>
      </g>
     </g>
     <g id="text_39">
      <!-- LYS_680 -->
      <g transform="translate(726.754545 188.230611)rotate(-45)scale(0.0833 -0.0833)">
       <use xlink:href="#DejaVuSans-4c"/>
       <use x="55.509766" xlink:href="#DejaVuSans-59"/>
       <use x="116.59375" xlink:href="#DejaVuSans-53"/>
       <use x="180.070312" xlink:href="#DejaVuSans-5f"/>
       <use x="230.070312" xlink:href="#DejaVuSans-36"/>
       <use x="293.693359" xlink:href="#DejaVuSans-38"/>
       <use x="357.316406" xlink:href="#DejaVuSans-30"/>
      </g>
     </g>
    </g>
    <g id="xtick_40">
     <g id="line2d_40">
      <g>
       <use style="stroke:#000000;stroke-width:0.8;" x="764.949806" xlink:href="#m319d0ba3e4" y="152.064"/>
      </g>
     </g>
     <g id="text_40">
      <!-- ASP_681 -->
      <g transform="translate(743.813193 188.943878)rotate(-45)scale(0.0833 -0.0833)">
       <use xlink:href="#DejaVuSans-41"/>
       <use x="68.408203" xlink:href="#DejaVuSans-53"/>
       <use x="131.884766" xlink:href="#DejaVuSans-50"/>
       <use x="192.1875" xlink:href="#DejaVuSans-5f"/>
       <use x="242.1875" xlink:href="#DejaVuSans-36"/>
       <use x="305.810547" xlink:href="#DejaVuSans-38"/>
       <use x="369.433594" xlink:href="#DejaVuSans-31"/>
      </g>
     </g>
    </g>
    <g id="xtick_41">
     <g id="line2d_41">
      <g>
       <use style="stroke:#000000;stroke-width:0.8;" x="782.72172" xlink:href="#m319d0ba3e4" y="152.064"/>
      </g>
     </g>
     <g id="text_41">
      <!-- GLN_683 -->
      <g transform="translate(760.652799 189.876186)rotate(-45)scale(0.0833 -0.0833)">
       <use xlink:href="#DejaVuSans-47"/>
       <use x="77.490234" xlink:href="#DejaVuSans-4c"/>
       <use x="133.203125" xlink:href="#DejaVuSans-4e"/>
       <use x="208.007812" xlink:href="#DejaVuSans-5f"/>
       <use x="258.007812" xlink:href="#DejaVuSans-36"/>
       <use x="321.630859" xlink:href="#DejaVuSans-38"/>
       <use x="385.253906" xlink:href="#DejaVuSans-33"/>
      </g>
     </g>
    </g>
   </g>
   <g id="matplotlib.axis_2">
    <g id="ytick_1">
     <g id="line2d_42">
      <defs>
       <path d="M 0 0 
L -3.5 0 
" id="m4c7867db74" style="stroke:#000000;stroke-width:0.8;"/>
      </defs>
      <g>
       <use style="stroke:#000000;stroke-width:0.8;" x="61.182" xlink:href="#m4c7867db74" y="152.064"/>
      </g>
     </g>
     <g id="text_42">
      <!-- 0.0 -->
      <defs>
       <path d="M 10.6875 12.40625 
L 21 12.40625 
L 21 0 
L 10.6875 0 
z
" id="DejaVuSans-2e"/>
      </defs>
      <g transform="translate(38.278875 155.863219)scale(0.1 -0.1)">
       <use xlink:href="#DejaVuSans-30"/>
       <use x="63.623047" xlink:href="#DejaVuSans-2e"/>
       <use x="95.410156" xlink:href="#DejaVuSans-30"/>
      </g>
     </g>
    </g>
    <g id="ytick_2">
     <g id="line2d_43">
      <g>
       <use style="stroke:#000000;stroke-width:0.8;" x="61.182" xlink:href="#m4c7867db74" y="126.565171"/>
      </g>
     </g>
     <g id="text_43">
      <!-- 0.2 -->
      <g transform="translate(38.278875 130.36439)scale(0.1 -0.1)">
       <use xlink:href="#DejaVuSans-30"/>
       <use x="63.623047" xlink:href="#DejaVuSans-2e"/>
       <use x="95.410156" xlink:href="#DejaVuSans-32"/>
      </g>
     </g>
    </g>
    <g id="ytick_3">
     <g id="line2d_44">
      <g>
       <use style="stroke:#000000;stroke-width:0.8;" x="61.182" xlink:href="#m4c7867db74" y="101.066342"/>
      </g>
     </g>
     <g id="text_44">
      <!-- 0.4 -->
      <g transform="translate(38.278875 104.865561)scale(0.1 -0.1)">
       <use xlink:href="#DejaVuSans-30"/>
       <use x="63.623047" xlink:href="#DejaVuSans-2e"/>
       <use x="95.410156" xlink:href="#DejaVuSans-34"/>
      </g>
     </g>
    </g>
    <g id="ytick_4">
     <g id="line2d_45">
      <g>
       <use style="stroke:#000000;stroke-width:0.8;" x="61.182" xlink:href="#m4c7867db74" y="75.567513"/>
      </g>
     </g>
     <g id="text_45">
      <!-- 0.6 -->
      <g transform="translate(38.278875 79.366732)scale(0.1 -0.1)">
       <use xlink:href="#DejaVuSans-30"/>
       <use x="63.623047" xlink:href="#DejaVuSans-2e"/>
       <use x="95.410156" xlink:href="#DejaVuSans-36"/>
      </g>
     </g>
    </g>
    <g id="ytick_5">
     <g id="line2d_46">
      <g>
       <use style="stroke:#000000;stroke-width:0.8;" x="61.182" xlink:href="#m4c7867db74" y="50.068684"/>
      </g>
     </g>
     <g id="text_46">
      <!-- 0.8 -->
      <g transform="translate(38.278875 53.867902)scale(0.1 -0.1)">
       <use xlink:href="#DejaVuSans-30"/>
       <use x="63.623047" xlink:href="#DejaVuSans-2e"/>
       <use x="95.410156" xlink:href="#DejaVuSans-38"/>
      </g>
     </g>
    </g>
    <g id="ytick_6">
     <g id="line2d_47">
      <g>
       <use style="stroke:#000000;stroke-width:0.8;" x="61.182" xlink:href="#m4c7867db74" y="24.569855"/>
      </g>
     </g>
     <g id="text_47">
      <!-- 1.0 -->
      <g transform="translate(38.278875 28.369073)scale(0.1 -0.1)">
       <use xlink:href="#DejaVuSans-31"/>
       <use x="63.623047" xlink:href="#DejaVuSans-2e"/>
       <use x="95.410156" xlink:href="#DejaVuSans-30"/>
      </g>
     </g>
    </g>
    <g id="text_48">
     <!-- Interactions Fraction -->
     <defs>
      <path d="M 54.890625 33.015625 
L 54.890625 0 
L 45.90625 0 
L 45.90625 32.71875 
Q 45.90625 40.484375 42.875 44.328125 
Q 39.84375 48.1875 33.796875 48.1875 
Q 26.515625 48.1875 22.3125 43.546875 
Q 18.109375 38.921875 18.109375 30.90625 
L 18.109375 0 
L 9.078125 0 
L 9.078125 54.6875 
L 18.109375 54.6875 
L 18.109375 46.1875 
Q 21.34375 51.125 25.703125 53.5625 
Q 30.078125 56 35.796875 56 
Q 45.21875 56 50.046875 50.171875 
Q 54.890625 44.34375 54.890625 33.015625 
z
" id="DejaVuSans-6e"/>
      <path d="M 18.3125 70.21875 
L 18.3125 54.6875 
L 36.8125 54.6875 
L 36.8125 47.703125 
L 18.3125 47.703125 
L 18.3125 18.015625 
Q 18.3125 11.328125 20.140625 9.421875 
Q 21.96875 7.515625 27.59375 7.515625 
L 36.8125 7.515625 
L 36.8125 0 
L 27.59375 0 
Q 17.1875 0 13.234375 3.875 
Q 9.28125 7.765625 9.28125 18.015625 
L 9.28125 47.703125 
L 2.6875 47.703125 
L 2.6875 54.6875 
L 9.28125 54.6875 
L 9.28125 70.21875 
z
" id="DejaVuSans-74"/>
      <path d="M 56.203125 29.59375 
L 56.203125 25.203125 
L 14.890625 25.203125 
Q 15.484375 15.921875 20.484375 11.0625 
Q 25.484375 6.203125 34.421875 6.203125 
Q 39.59375 6.203125 44.453125 7.46875 
Q 49.3125 8.734375 54.109375 11.28125 
L 54.109375 2.78125 
Q 49.265625 0.734375 44.1875 -0.34375 
Q 39.109375 -1.421875 33.890625 -1.421875 
Q 20.796875 -1.421875 13.15625 6.1875 
Q 5.515625 13.8125 5.515625 26.8125 
Q 5.515625 40.234375 12.765625 48.109375 
Q 20.015625 56 32.328125 56 
Q 43.359375 56 49.78125 48.890625 
Q 56.203125 41.796875 56.203125 29.59375 
z
M 47.21875 32.234375 
Q 47.125 39.59375 43.09375 43.984375 
Q 39.0625 48.390625 32.421875 48.390625 
Q 24.90625 48.390625 20.390625 44.140625 
Q 15.875 39.890625 15.1875 32.171875 
z
" id="DejaVuSans-65"/>
      <path d="M 41.109375 46.296875 
Q 39.59375 47.171875 37.8125 47.578125 
Q 36.03125 48 33.890625 48 
Q 26.265625 48 22.1875 43.046875 
Q 18.109375 38.09375 18.109375 28.8125 
L 18.109375 0 
L 9.078125 0 
L 9.078125 54.6875 
L 18.109375 54.6875 
L 18.109375 46.1875 
Q 20.953125 51.171875 25.484375 53.578125 
Q 30.03125 56 36.53125 56 
Q 37.453125 56 38.578125 55.875 
Q 39.703125 55.765625 41.0625 55.515625 
z
" id="DejaVuSans-72"/>
      <path d="M 34.28125 27.484375 
Q 23.390625 27.484375 19.1875 25 
Q 14.984375 22.515625 14.984375 16.5 
Q 14.984375 11.71875 18.140625 8.90625 
Q 21.296875 6.109375 26.703125 6.109375 
Q 34.1875 6.109375 38.703125 11.40625 
Q 43.21875 16.703125 43.21875 25.484375 
L 43.21875 27.484375 
z
M 52.203125 31.203125 
L 52.203125 0 
L 43.21875 0 
L 43.21875 8.296875 
Q 40.140625 3.328125 35.546875 0.953125 
Q 30.953125 -1.421875 24.3125 -1.421875 
Q 15.921875 -1.421875 10.953125 3.296875 
Q 6 8.015625 6 15.921875 
Q 6 25.140625 12.171875 29.828125 
Q 18.359375 34.515625 30.609375 34.515625 
L 43.21875 34.515625 
L 43.21875 35.40625 
Q 43.21875 41.609375 39.140625 45 
Q 35.0625 48.390625 27.6875 48.390625 
Q 23 48.390625 18.546875 47.265625 
Q 14.109375 46.140625 10.015625 43.890625 
L 10.015625 52.203125 
Q 14.9375 54.109375 19.578125 55.046875 
Q 24.21875 56 28.609375 56 
Q 40.484375 56 46.34375 49.84375 
Q 52.203125 43.703125 52.203125 31.203125 
z
" id="DejaVuSans-61"/>
      <path d="M 48.78125 52.59375 
L 48.78125 44.1875 
Q 44.96875 46.296875 41.140625 47.34375 
Q 37.3125 48.390625 33.40625 48.390625 
Q 24.65625 48.390625 19.8125 42.84375 
Q 14.984375 37.3125 14.984375 27.296875 
Q 14.984375 17.28125 19.8125 11.734375 
Q 24.65625 6.203125 33.40625 6.203125 
Q 37.3125 6.203125 41.140625 7.25 
Q 44.96875 8.296875 48.78125 10.40625 
L 48.78125 2.09375 
Q 45.015625 0.34375 40.984375 -0.53125 
Q 36.96875 -1.421875 32.421875 -1.421875 
Q 20.0625 -1.421875 12.78125 6.34375 
Q 5.515625 14.109375 5.515625 27.296875 
Q 5.515625 40.671875 12.859375 48.328125 
Q 20.21875 56 33.015625 56 
Q 37.15625 56 41.109375 55.140625 
Q 45.0625 54.296875 48.78125 52.59375 
z
" id="DejaVuSans-63"/>
      <path d="M 9.421875 54.6875 
L 18.40625 54.6875 
L 18.40625 0 
L 9.421875 0 
z
M 9.421875 75.984375 
L 18.40625 75.984375 
L 18.40625 64.59375 
L 9.421875 64.59375 
z
" id="DejaVuSans-69"/>
      <path d="M 30.609375 48.390625 
Q 23.390625 48.390625 19.1875 42.75 
Q 14.984375 37.109375 14.984375 27.296875 
Q 14.984375 17.484375 19.15625 11.84375 
Q 23.34375 6.203125 30.609375 6.203125 
Q 37.796875 6.203125 41.984375 11.859375 
Q 46.1875 17.53125 46.1875 27.296875 
Q 46.1875 37.015625 41.984375 42.703125 
Q 37.796875 48.390625 30.609375 48.390625 
z
M 30.609375 56 
Q 42.328125 56 49.015625 48.375 
Q 55.71875 40.765625 55.71875 27.296875 
Q 55.71875 13.875 49.015625 6.21875 
Q 42.328125 -1.421875 30.609375 -1.421875 
Q 18.84375 -1.421875 12.171875 6.21875 
Q 5.515625 13.875 5.515625 27.296875 
Q 5.515625 40.765625 12.171875 48.375 
Q 18.84375 56 30.609375 56 
z
" id="DejaVuSans-6f"/>
      <path d="M 44.28125 53.078125 
L 44.28125 44.578125 
Q 40.484375 46.53125 36.375 47.5 
Q 32.28125 48.484375 27.875 48.484375 
Q 21.1875 48.484375 17.84375 46.4375 
Q 14.5 44.390625 14.5 40.28125 
Q 14.5 37.15625 16.890625 35.375 
Q 19.28125 33.59375 26.515625 31.984375 
L 29.59375 31.296875 
Q 39.15625 29.25 43.1875 25.515625 
Q 47.21875 21.78125 47.21875 15.09375 
Q 47.21875 7.46875 41.1875 3.015625 
Q 35.15625 -1.421875 24.609375 -1.421875 
Q 20.21875 -1.421875 15.453125 -0.5625 
Q 10.6875 0.296875 5.421875 2 
L 5.421875 11.28125 
Q 10.40625 8.6875 15.234375 7.390625 
Q 20.0625 6.109375 24.8125 6.109375 
Q 31.15625 6.109375 34.5625 8.28125 
Q 37.984375 10.453125 37.984375 14.40625 
Q 37.984375 18.0625 35.515625 20.015625 
Q 33.0625 21.96875 24.703125 23.78125 
L 21.578125 24.515625 
Q 13.234375 26.265625 9.515625 29.90625 
Q 5.8125 33.546875 5.8125 39.890625 
Q 5.8125 47.609375 11.28125 51.796875 
Q 16.75 56 26.8125 56 
Q 31.78125 56 36.171875 55.265625 
Q 40.578125 54.546875 44.28125 53.078125 
z
" id="DejaVuSans-73"/>
      <path id="DejaVuSans-20"/>
      <path d="M 9.8125 72.90625 
L 51.703125 72.90625 
L 51.703125 64.59375 
L 19.671875 64.59375 
L 19.671875 43.109375 
L 48.578125 43.109375 
L 48.578125 34.8125 
L 19.671875 34.8125 
L 19.671875 0 
L 9.8125 0 
z
" id="DejaVuSans-46"/>
     </defs>
     <g transform="translate(32.199187 130.234799)rotate(-90)scale(0.1 -0.1)">
      <use xlink:href="#DejaVuSans-49"/>
      <use x="29.492188" xlink:href="#DejaVuSans-6e"/>
      <use x="92.871094" xlink:href="#DejaVuSans-74"/>
      <use x="132.080078" xlink:href="#DejaVuSans-65"/>
      <use x="193.603516" xlink:href="#DejaVuSans-72"/>
      <use x="234.716797" xlink:href="#DejaVuSans-61"/>
      <use x="295.996094" xlink:href="#DejaVuSans-63"/>
      <use x="350.976562" xlink:href="#DejaVuSans-74"/>
      <use x="390.185547" xlink:href="#DejaVuSans-69"/>
      <use x="417.96875" xlink:href="#DejaVuSans-6f"/>
      <use x="479.150391" xlink:href="#DejaVuSans-6e"/>
      <use x="542.529297" xlink:href="#DejaVuSans-73"/>
      <use x="594.628906" xlink:href="#DejaVuSans-20"/>
      <use x="626.416016" xlink:href="#DejaVuSans-46"/>
      <use x="683.826172" xlink:href="#DejaVuSans-72"/>
      <use x="724.939453" xlink:href="#DejaVuSans-61"/>
      <use x="786.21875" xlink:href="#DejaVuSans-63"/>
      <use x="841.199219" xlink:href="#DejaVuSans-74"/>
      <use x="880.408203" xlink:href="#DejaVuSans-69"/>
      <use x="908.191406" xlink:href="#DejaVuSans-6f"/>
      <use x="969.373047" xlink:href="#DejaVuSans-6e"/>
     </g>
    </g>
   </g>
   <g id="patch_167">
    <path d="M 61.182 152.064 
L 61.182 5.13216 
" style="fill:none;stroke:#000000;stroke-linecap:square;stroke-linejoin:miter;stroke-width:0.8;"/>
   </g>
   <g id="patch_168">
    <path d="M 807.6024 152.064 
L 807.6024 5.13216 
" style="fill:none;stroke:#000000;stroke-linecap:square;stroke-linejoin:miter;stroke-width:0.8;"/>
   </g>
   <g id="patch_169">
    <path d="M 61.182 152.064 
L 807.6024 152.064 
" style="fill:none;stroke:#000000;stroke-linecap:square;stroke-linejoin:miter;stroke-width:0.8;"/>
   </g>
   <g id="patch_170">
    <path d="M 61.182 5.13216 
L 807.6024 5.13216 
" style="fill:none;stroke:#000000;stroke-linecap:square;stroke-linejoin:miter;stroke-width:0.8;"/>
   </g>
  </g>
 </g>
 <defs>
  <clipPath id="p2ccffd8fad">
   <rect height="146.93184" width="746.4204" x="61.182" y="5.13216"/>
  </clipPath>
 </defs>
</svg>
